SplineFontDB: 3.2
FontName: FanVace
FullName: FanVace
FamilyName: FanVace
Weight: Regular
Copyright: Copyright (c) fANhAN iNSiDE 2021
UComments: "2022-5-13: Created with FontForge (http://fontforge.org)"
Version: 001.000
ItalicAngle: 0
UnderlinePosition: -409
UnderlineWidth: 204
Ascent: 3277
Descent: 819
InvalidEm: 0
LayerCount: 2
Layer: 0 0 "Back" 1
Layer: 1 0 "Fore" 0
XUID: [1021 813 2138702201 13357]
StyleMap: 0x0000
FSType: 0
OS2Version: 0
OS2_WeightWidthSlopeOnly: 0
OS2_UseTypoMetrics: 1
CreationTime: 1652400918
ModificationTime: 1652488578
OS2TypoAscent: 0
OS2TypoAOffset: 1
OS2TypoDescent: 0
OS2TypoDOffset: 1
OS2TypoLinegap: 369
OS2WinAscent: 0
OS2WinAOffset: 1
OS2WinDescent: 0
OS2WinDOffset: 1
HheadAscent: 0
HheadAOffset: 1
HheadDescent: 0
HheadDOffset: 1
Lookup: 4 0 1 "'liga' Cluster" { "'liga' Consonant Cluster Latin"  "'liga' Vowel Cluster-Latin"  } ['liga' ('DFLT' <'dflt' > 'latn' <'dflt' > ) ]
MarkAttachClasses: 1
DEI: 91125
Encoding: UnicodeFull
UnicodeInterp: none
NameList: AGL For New Fonts
DisplaySize: -48
AntiAlias: 1
FitToEm: 0
WinInfo: 38 38 14
BeginPrivate: 0
EndPrivate
TeXData: 1 0 0 346030 173015 115343 0 1048576 115343 783286 444596 497025 792723 393216 433062 380633 303038 157286 324010 404750 52429 2506097 1059062 262144
BeginChars: 1114113 180

StartChar: exclam
Encoding: 33 33 1
Width: 1182
Flags: HW
LayerCount: 2
Fore
SplineSet
1167 2867 m 1
 880 1274 l 1
 536 1278 l 1
 200 2867 l 1
 224.666992188 2998.33300781 286 3099.33300781 384 3170 c 0
 471.333007812 3235.33300781 574 3268.33300781 692 3269 c 0
 817.333007812 3269 926.5 3232.66699219 1019.5 3160 c 128
 1112.5 3087.33300781 1161.66699219 2989.66699219 1167 2867 c 1
1154 385 m 256
 1154 251 1109 138.333007812 1019 47 c 128
 929 -44.3330078125 817 -90 683 -90 c 0
 551.666992188 -90 440.333007812 -42.8330078125 349 51.5 c 128
 257.666992188 145.833007812 212 257 212 385 c 0
 212 516.333007812 258.5 628.333007812 351.5 721 c 128
 444.5 813.666992188 555 860 683 860 c 0
 817 860 929 814.333007812 1019 723 c 128
 1109 631.666992188 1154 519 1154 385 c 256
EndSplineSet
Validated: 1
EndChar

StartChar: quotedbl
Encoding: 34 34 2
Width: 1559
Flags: HW
LayerCount: 2
Fore
SplineSet
1560 3002 m 0
 1560 2922.66699219 1552 2820.33300781 1536 2695 c 2
 1482 2273 l 2
 1465.33300781 2150.33300781 1400 2089 1286 2089 c 256
 1171.33300781 2089 1105.66699219 2150.33300781 1089 2273 c 2
 1036 2695 l 2
 1019.33300781 2820.33300781 1011 2922.66699219 1011 3002 c 0
 1011 3157.33300781 1102.66699219 3235.33300781 1286 3236 c 256
 1468.66699219 3235.33300781 1560 3157.33300781 1560 3002 c 0
749 3002 m 0
 749 2936.66699219 741 2834.33300781 725 2695 c 2
 671 2273 l 2
 657.666992188 2150.33300781 592.333007812 2089 475 2089 c 256
 357.666992188 2089 292 2150.33300781 278 2273 c 2
 225 2695 l 2
 208.333007812 2834.33300781 200 2936.66699219 200 3002 c 0
 200 3157.33300781 291.666992188 3235.33300781 475 3236 c 256
 657.666992188 3235.33300781 749 3157.33300781 749 3002 c 0
EndSplineSet
Validated: 1
EndChar

StartChar: numbersign
Encoding: 35 35 3
Width: 2554
Flags: HW
LayerCount: 2
Fore
SplineSet
2240 1540 m 1
 1847 1540 l 1
 1777 1085 l 1
 2121 1085 l 1
 2121 737 l 1
 1728 737 l 1
 1617 0 l 1
 1208 0 l 1
 1318 737 l 1
 954 737 l 1
 843 0 l 1
 433 0 l 1
 544 737 l 1
 200 737 l 1
 200 1085 l 1
 593 1085 l 1
 663 1540 l 1
 319 1540 l 1
 319 1888 l 1
 712 1888 l 1
 823 2621 l 1
 1232 2621 l 1
 1122 1888 l 1
 1486 1888 l 1
 1597 2621 l 1
 2006 2621 l 1
 1896 1888 l 1
 2240 1888 l 1
 2240 1540 l 1
1437 1540 m 1
 1072 1540 l 1
 1003 1085 l 1
 1367 1085 l 1
 1437 1540 l 1
EndSplineSet
Validated: 1
EndChar

StartChar: dollar
Encoding: 36 36 4
Width: 2276
Flags: HW
LayerCount: 2
Fore
SplineSet
1282 3133 m 1
 1282 2879 l 1
 1478.66699219 2859.66699219 1645 2799.66699219 1781 2699 c 0
 1936.33300781 2581.66699219 2014.33300781 2429 2015 2241 c 0
 2015 2148.33300781 1990.33300781 2070.33300781 1941 2007 c 0
 1886.33300781 1936.33300781 1814 1901 1724 1901 c 0
 1647.33300781 1901 1582.5 1926.83300781 1529.5 1978.5 c 128
 1476.5 2030.16699219 1450 2094.33300781 1450 2171 c 0
 1450 2236.33300781 1483.33300781 2300.5 1550 2363.5 c 128
 1616.66699219 2426.5 1642.5 2464.83300781 1627.5 2478.5 c 128
 1612.5 2492.16699219 1580.66699219 2512.66699219 1532 2540 c 0
 1466.66699219 2580.66699219 1383.33300781 2606.33300781 1282 2617 c 1
 1282 1647 l 1
 1830.66699219 1442.33300781 2105 1125.33300781 2105 696 c 0
 2105 458.666992188 2024.33300781 267.666992188 1863 123 c 0
 1718.33300781 -8.3330078125 1524.66699219 -87.6669921875 1282 -115 c 1
 1282 -618 l 1
 991 -618 l 1
 991 -119 l 1
 778.333007812 -108.333007812 599.333007812 -51 454 53 c 0
 284.666992188 173 200 334.333007812 200 537 c 0
 200 638.333007812 227.333007812 726.333007812 282 801 c 128
 336.666992188 875.666992188 412 913 508 913 c 0
 595.333007812 913 664.833007812 883.666992188 716.5 825 c 128
 768.166992188 766.333007812 794 693.333007812 794 606 c 0
 794 543.333007812 772.333007812 490 729 446 c 0
 701.666992188 418.666992188 664 394.166992188 616 372.5 c 128
 568 350.833007812 544 337.333007812 544 332 c 0
 563.333007812 310 607.333007812 274.333007812 676 225 c 0
 755.333007812 178.333007812 860.333007812 151 991 143 c 1
 991 1180 l 1
 483 1352 229 1646.66699219 229 2064 c 0
 229 2288 301.333007812 2475.33300781 446 2626 c 0
 582.666992188 2770.66699219 764.333007812 2855 991 2879 c 1
 991 3138 l 1
 1282 3133 l 1
991 2613 m 1
 871 2596.33300781 774 2554 700 2486 c 0
 618 2409.33300781 577 2314 577 2200 c 0
 577 2017.33300781 715 1869.66699219 991 1757 c 1
 991 2613 l 1
1282 152 m 1
 1410.66699219 171.333007812 1517.83300781 218.5 1603.5 293.5 c 128
 1689.16699219 368.5 1732 468.666992188 1732 594 c 0
 1732 793.333007812 1582 951.666992188 1282 1069 c 1
 1282 152 l 1
EndSplineSet
Validated: 33
EndChar

StartChar: percent
Encoding: 37 37 5
Width: 3562
Flags: HW
LayerCount: 2
Fore
SplineSet
1499 2081 m 0
 1499 1862.33300781 1445.66699219 1680.66699219 1339 1536 c 0
 1221.66699219 1374.66699219 1058 1294 848 1294 c 256
 638 1294 474 1377.33300781 356 1544 c 0
 252 1688.66699219 200 1870.33300781 200 2089 c 0
 200 2301.66699219 253.333007812 2483.33300781 360 2634 c 0
 480 2803.33300781 641.333007812 2888 844 2888 c 0
 1060 2888 1226.33300781 2804.66699219 1343 2638 c 0
 1447 2490.66699219 1499 2305 1499 2081 c 0
626 2097 m 0
 626 1703.66699219 700 1507 848 1507 c 0
 1000.66699219 1507 1077 1694 1077 2068 c 0
 1077 2469.33300781 1002 2670.33300781 852 2671 c 256
 701.333007812 2670.33300781 626 2479 626 2097 c 0
3256 3236 m 1
 717 -217 l 1
 360 -217 l 1
 2892 3236 l 1
 3256 3236 l 1
3309 668 m 0
 3309 449.333007812 3256 269 3150 127 c 0
 3032.66699219 -37 2868.66699219 -119 2658 -119 c 256
 2448 -119 2284.33300781 -35.6669921875 2167 131 c 0
 2063 278.333007812 2011 461.333007812 2011 680 c 0
 2011 892.666992188 2064.33300781 1073 2171 1221 c 0
 2291 1390.33300781 2452 1475 2654 1475 c 0
 2870 1475 3036.66699219 1391.66699219 3154 1225 c 0
 3257.33300781 1077.66699219 3309 892 3309 668 c 0
2433 684 m 0
 2433 293.333007812 2508 98 2658 98 c 0
 2810.66699219 98 2887 285 2887 659 c 0
 2887 1057.66699219 2812 1257 2662 1257 c 0
 2509.33300781 1257 2433 1066 2433 684 c 0
EndSplineSet
Validated: 1
EndChar

StartChar: ampersand
Encoding: 38 38 6
Width: 3103
Flags: HW
LayerCount: 2
Fore
SplineSet
2166 1315 m 0
 2166 1361.66699219 2126.33300781 1384.66699219 2047 1384 c 0
 2009 1384 1964 1380 1912 1372 c 1
 1912 1675 l 1
 2895 1671 l 1
 2895 1372 l 1
 2838 1372 2838 1372 2727 1372 c 0
 2672.33300781 1372 2632.83300781 1363.16699219 2608.5 1345.5 c 128
 2584.16699219 1327.83300781 2558.33300781 1290.33300781 2531 1233 c 0
 2525.66699219 1222.33300781 2472.33300781 1110.33300781 2371 897 c 0
 2308.33300781 763 2248.33300781 655 2191 573 c 1
 2308.33300781 466.333007812 2406.66699219 413.333007812 2486 414 c 0
 2556.66699219 414 2592 433 2592 471 c 0
 2592 483 2592 483 2592 496 c 2
 2596 512 l 2
 2601.33300781 547.333007812 2555 611.666992188 2457 705 c 1
 2748 782 l 1
 2865.33300781 692 2924 566.666992188 2924 406 c 0
 2924 78 2739.66699219 -86 2371 -86 c 0
 2193.66699219 -86 2005.33300781 1.3330078125 1806 176 c 1
 1571.33300781 1.3330078125 1331 -86 1085 -86 c 0
 836.333007812 -86 626.666992188 -5.5 456 155.5 c 128
 285.333007812 316.5 200 521.333007812 200 770 c 0
 200 1122 406.333007812 1412.66699219 819 1642 c 1
 726.333007812 1849.33300781 679.666992188 2031 679 2187 c 0
 679 2389 751.5 2558.33300781 896.5 2695 c 128
 1041.5 2831.66699219 1215 2900 1417 2900 c 0
 1599.66699219 2900 1749.66699219 2852.33300781 1867 2757 c 0
 2003.66699219 2653 2072 2505.33300781 2072 2314 c 0
 2072 2008 1872.66699219 1755.33300781 1474 1556 c 1
 1656.66699219 1247.33300781 1817.66699219 1005.66699219 1957 831 c 1
 2096.33300781 1033.66699219 2166 1195 2166 1315 c 0
1396 2556 m 0
 1254 2556 1183 2474 1183 2310 c 0
 1183 2192.66699219 1224 2046.66699219 1306 1872 c 1
 1510.66699219 1976 1613 2115.33300781 1613 2290 c 0
 1613 2467.33300781 1540.66699219 2556 1396 2556 c 0
1253 332 m 0
 1354.33300781 332 1458 364.666992188 1564 430 c 1
 1384 656.666992188 1188.66699219 953 978 1319 c 1
 816.666992188 1209.66699219 736.333007812 1088 737 954 c 0
 737 806.666992188 790.166992188 666.166992188 896.5 532.5 c 128
 1002.83300781 398.833007812 1121.66699219 332 1253 332 c 0
EndSplineSet
Validated: 33
EndChar

StartChar: quotesingle
Encoding: 39 39 7
Width: 858
Flags: HW
LayerCount: 2
Fore
SplineSet
749.038085938 2920 m 0
 749.038085938 2840.66699219 740.705078125 2738.33300781 724.038085938 2613 c 2
 671.038085938 2191 l 2
 654.372070312 2068.33300781 588.705078125 2007 474.038085938 2007 c 0
 356.705078125 2007 291.372070312 2068.33300781 278.038085938 2191 c 2
 224.038085938 2613 l 2
 207.372070312 2752.33300781 199.372070312 2854.66699219 200.038085938 2920 c 0
 200.038085938 3075.33300781 291.372070312 3153.33300781 474.038085938 3154 c 256
 657.372070312 3153.33300781 749.038085938 3075.33300781 749.038085938 2920 c 0
EndSplineSet
Validated: 33
EndChar

StartChar: parenleft
Encoding: 40 40 8
Width: 1567
Flags: HW
LayerCount: 2
Fore
SplineSet
1335 -745 m 1
 1253 -844 l 1
 903.666992188 -664 637.333007812 -380 454 8 c 0
 284.666992188 368.666992188 200 788 200 1266 c 0
 200 1749.33300781 283.333007812 2169.66699219 450 2527 c 0
 632.666992188 2917.66699219 900.333007812 3201.66699219 1253 3379 c 1
 1335 3281 l 1
 1146.33300781 3024.33300781 1022 2707.66699219 962 2331 c 0
 929.333007812 2107 913 1752 913 1266 c 0
 913 818 932 461.666992188 970 197 c 0
 1033.33300781 -231.666992188 1155 -545.666992188 1335 -745 c 1
EndSplineSet
Validated: 1
EndChar

StartChar: parenright
Encoding: 41 41 9
Width: 1279
Flags: HW
LayerCount: 2
Fore
SplineSet
200 -745 m 1
 282 -844 l 1
 631.333007812 -664 897.333007812 -380 1080 8 c 0
 1249.33300781 368.666992188 1334 788 1334 1266 c 0
 1334 1749.33300781 1250.66699219 2169.66699219 1084 2527 c 0
 901.333007812 2917.66699219 634 3201.66699219 282 3379 c 1
 200 3281 l 1
 388.666992188 3024.33300781 511.333007812 2707.66699219 568 2331 c 0
 603.333007812 2107 621.333007812 1752 622 1266 c 0
 622 818 602.666992188 461.666992188 564 197 c 0
 498.666992188 -231.666992188 377.333007812 -545.666992188 200 -745 c 1
EndSplineSet
Validated: 9
EndChar

StartChar: asterisk
Encoding: 42 42 10
Width: 1485
Flags: HW
LayerCount: 2
Fore
SplineSet
1519 2257 m 1
 1376 1942 l 1
 970 2228 l 1
 1032 1733 l 1
 692 1733 l 1
 753 2228 l 1
 348 1942 l 1
 200 2257 l 1
 655 2417 l 1
 655 2425 l 1
 200 2572 l 1
 348 2908 l 1
 753 2609 l 1
 692 3113 l 1
 1032 3113 l 1
 970 2609 l 1
 1376 2908 l 1
 1519 2572 l 1
 1073 2425 l 1
 1073 2417 l 1
 1519 2257 l 1
EndSplineSet
Validated: 1
EndChar

StartChar: plus
Encoding: 43 43 11
Width: 2567
Flags: HW
LayerCount: 2
Fore
SplineSet
2273 799 m 1
 1483 799 l 1
 1483 0 l 1
 991 0 l 1
 991 799 l 1
 200 799 l 1
 200 1294 l 1
 991 1294 l 1
 991 2093 l 1
 1483 2093 l 1
 1483 1294 l 1
 2273 1294 l 1
 2273 799 l 1
EndSplineSet
Validated: 1
EndChar

StartChar: comma
Encoding: 44 44 12
Width: 1128
Flags: HW
LayerCount: 2
Fore
SplineSet
970 418 m 2
 970 205.333007812 908.333007812 1.6669921875 785 -193 c 0
 645.666992188 -409 475 -516.666992188 273 -516 c 0
 256.333007812 -516 240.666992188 -514 226 -510 c 128
 211.333007812 -506 202.666992188 -495.666992188 200 -479 c 0
 301.333007812 -296.333007812 362.666992188 -117.666992188 384 57 c 0
 392 122.333007812 396 315 396 635 c 1
 970 635 l 1
 970 418 l 2
EndSplineSet
Validated: 33
EndChar

StartChar: hyphen
Encoding: 45 45 13
Width: 1637
Flags: HW
LayerCount: 2
Fore
SplineSet
1413 1540 m 1
 1375 1368 1320.33300781 1108.66699219 1249 762 c 1
 597 762 l 2
 452.333007812 762 372 695 356 561 c 1
 200 561 l 1
 260 905 310.666992188 1161.66699219 352 1331 c 1
 954 1331 l 2
 1041.33300781 1331 1106.16699219 1345.33300781 1148.5 1374 c 128
 1190.83300781 1402.66699219 1227 1458 1257 1540 c 1
 1413 1540 l 1
EndSplineSet
Validated: 1
EndChar

StartChar: period
Encoding: 46 46 14
Width: 1173
Flags: HW
LayerCount: 2
Fore
SplineSet
1019 324 m 256
 1019 209.333007812 979.333007812 111.666992188 900 31 c 128
 820.666992188 -49.6669921875 723.666992188 -90 609 -90 c 0
 497 -90 400.833007812 -49 320.5 33 c 128
 240.166992188 115 200 212 200 324 c 0
 200 433.333007812 241 529.5 323 612.5 c 128
 405 695.5 500.333007812 737 609 737 c 0
 723.666992188 737 820.666992188 696.833007812 900 616.5 c 128
 979.333007812 536.166992188 1019 438.666992188 1019 324 c 256
EndSplineSet
Validated: 1
EndChar

StartChar: slash
Encoding: 47 47 15
Width: 3381
Flags: HW
LayerCount: 2
Fore
SplineSet
2764 3289 m 1
 716 -602 l 1
 200 -602 l 1
 2248 3285 l 1
 2764 3289 l 1
EndSplineSet
Validated: 1
EndChar

StartChar: zero
Encoding: 48 48 16
Width: 2763
Flags: HW
LayerCount: 2
Fore
SplineSet
2453 1311 m 0
 2453 899 2369.66699219 572.666992188 2203 332 c 0
 2011.66699219 50.6669921875 1719.66699219 -90 1327 -90 c 256
 933.666992188 -90 640 50.6669921875 446 332 c 0
 282 572 200 898.333007812 200 1311 c 256
 200 1723 282 2049.33300781 446 2290 c 0
 640 2574 933.666992188 2716 1327 2716 c 0
 1717.66699219 2716 2009.66699219 2574 2203 2290 c 0
 2369.66699219 2046.66699219 2453 1720.33300781 2453 1311 c 0
1621 1040 m 2
 1621 1569 l 2
 1621 1719 1603.33300781 1855.33300781 1568 1978 c 0
 1513.33300781 2152.66699219 1433 2240.33300781 1327 2241 c 0
 1215 2241 1131.66699219 2146.66699219 1077 1958 c 0
 1039 1826.66699219 1021 1691.33300781 1023 1552 c 2
 1032 1036 l 2
 1034.66699219 888.666992188 1052.33300781 759 1085 647 c 0
 1134.33300781 469.666992188 1215 381 1327 381 c 0
 1433.66699219 381 1514 467 1568 639 c 0
 1603.33300781 759 1621 892.666992188 1621 1040 c 2
1486 2105 m 1
 1056 1036 l 1
 1050.66699219 910.666992188 1068.33300781 774.333007812 1109 627 c 1
 1593 1757 l 1
 1576.33300781 1893.66699219 1540.66699219 2009.66699219 1486 2105 c 1
EndSplineSet
Validated: 41
EndChar

StartChar: one
Encoding: 49 49 17
Width: 1907
Flags: HW
LayerCount: 2
Fore
SplineSet
1556 2879 m 1
 1378.66699219 2720.33300781 1169.66699219 2566.33300781 929 2417 c 0
 628.333007812 2228.33300781 386.666992188 2124.33300781 204 2105 c 1
 200 1823 l 1
 222 1823 267.833007812 1825.66699219 337.5 1831 c 128
 407.166992188 1836.33300781 459.666992188 1839 495 1839 c 0
 645 1839 720 1799.33300781 720 1720 c 2
 720 356 l 2
 720 288 679 235 597 197 c 0
 534.333007812 167 460.666992188 152 376 152 c 1
 376 -61 l 1
 548 -50.3330078125 763.666992188 -45 1023 -45 c 0
 1296.33300781 -45 1557.33300781 -50.3330078125 1806 -61 c 1
 1810 111 l 1
 1763.33300781 124.333007812 1718.33300781 138 1675 152 c 0
 1607 184.666992188 1571.33300781 235 1568 303 c 2
 1556 2879 l 1
EndSplineSet
Validated: 9
EndChar

StartChar: two
Encoding: 50 50 18
Width: 2545
Flags: HW
LayerCount: 2
Fore
SplineSet
2297 504 m 1
 2297 427.333007812 2295.66699219 307 2293 143 c 2
 2293 0 l 1
 228 0 l 1
 228 434 l 1
 995.333007812 778 1379 1220.33300781 1379 1761 c 0
 1379 2047.66699219 1244 2191 974 2191 c 0
 717.333007812 2191 557.333007812 2060 494 1798 c 1
 306 1774 l 1
 298 1869.33300781 277.666992188 2022 245 2232 c 0
 242.333007812 2240 232.666992188 2270 216 2322 c 0
 205.333007812 2360 200 2391.66699219 200 2417 c 0
 200 2515 340.333007812 2592.66699219 621 2650 c 0
 825.666992188 2694 1008.66699219 2716 1170 2716 c 0
 1462 2716 1698.33300781 2660 1879 2548 c 0
 2095 2414 2202.66699219 2209 2202 1933 c 0
 2202 1624.33300781 2090.33300781 1333.66699219 1867 1061 c 0
 1659.66699219 812.333007812 1403 625.333007812 1097 500 c 1
 2297 504 l 1
EndSplineSet
Validated: 33
EndChar

StartChar: three
Encoding: 51 51 19
Width: 2541
Flags: HW
LayerCount: 2
Fore
SplineSet
2301 836 m 0
 2301 505.333007812 2110 248.666992188 1728 66 c 0
 1424.66699219 -78.6669921875 1086 -151.333007812 712 -152 c 0
 583.333007812 -152 452.333007812 -141 319 -119 c 0
 316.333007812 -108.333007812 293 -59 249 29 c 0
 216.333007812 94.3330078125 200 142 200 172 c 0
 200 226.666992188 226 254 278 254 c 0
 294.666992188 254 318.5 250.5 349.5 243.5 c 128
 380.5 236.5 404.333007812 233 421 233 c 0
 601 233 785.333007812 277 974 365 c 0
 1198 471.666992188 1310 604 1310 762 c 0
 1310 1035.33300781 1030 1171.66699219 470 1171 c 1
 507 1520 l 1
 695.666992188 1525.33300781 856.666992188 1559.33300781 990 1622 c 0
 1170 1706.66699219 1260.33300781 1831 1261 1995 c 0
 1261 2074.33300781 1233 2139.16699219 1177 2189.5 c 128
 1121 2239.83300781 1052 2265 970 2265 c 0
 858 2265 759 2228.83300781 673 2156.5 c 128
 587 2084.16699219 523.333007812 1992 482 1880 c 1
 282 1880 l 1
 312 2183.33300781 327 2400.33300781 327 2531 c 1
 548.333007812 2653.66699219 831 2715.33300781 1175 2716 c 0
 1437 2716 1658 2675 1838 2593 c 0
 2081.33300781 2481 2203 2310.33300781 2203 2081 c 0
 2203 1747.66699219 1921.66699219 1527.66699219 1359 1421 c 1
 1359 1413 l 1
 1987 1413.66699219 2301 1221.33300781 2301 836 c 0
EndSplineSet
Validated: 33
EndChar

StartChar: four
Encoding: 52 52 20
Width: 2775
Flags: HW
LayerCount: 2
Fore
SplineSet
2461 586 m 1
 2133 586 l 1
 2133 0 l 1
 1290 0 l 1
 1290 586 l 1
 200 586 l 1
 200 1061 l 1
 642.666992188 1757 1045.33300781 2277 1408 2621 c 1
 2133 2621 l 1
 2133 1061 l 1
 2461 1061 l 1
 2461 586 l 1
1290 1061 m 1
 1290 1880 l 1
 1281 1880 l 1
 1076.33300781 1615.33300781 974 1481.66699219 974 1479 c 0
 859.333007812 1323.66699219 765.333007812 1184.33300781 692 1061 c 1
 1290 1061 l 1
EndSplineSet
Validated: 1
EndChar

StartChar: five
Encoding: 53 53 21
Width: 2493
Flags: HW
LayerCount: 2
Fore
SplineSet
2273 1004 m 0
 2273 622 2072.33300781 324.333007812 1671 111 c 0
 1343 -63.6669921875 968.666992188 -151.333007812 548 -152 c 0
 466 -152 367.666992188 -146.333007812 253 -135 c 1
 200 221 l 1
 470.666992188 248.333007812 703 307 897 397 c 0
 1170.33300781 522.333007812 1306.66699219 694.333007812 1306 913 c 0
 1306 1052.33300781 1240.66699219 1159 1110 1233 c 0
 1003.33300781 1293 875 1323 725 1323 c 0
 536.333007812 1323 376.333007812 1290.33300781 245 1225 c 1
 319 2621 l 1
 2179 2621 l 1
 2162.33300781 2523 2139 2333.33300781 2109 2052 c 1
 811 2052 l 1
 811 1614 l 1
 1027 1701.33300781 1235.66699219 1745 1437 1745 c 0
 1671.66699219 1745 1867 1680.66699219 2023 1552 c 0
 2189.66699219 1416 2273 1233.33300781 2273 1004 c 0
EndSplineSet
Validated: 33
EndChar

StartChar: six
Encoding: 54 54 22
Width: 2688
Flags: HW
LayerCount: 2
Fore
SplineSet
2403 938 m 0
 2403 626.666992188 2300 377.5 2094 190.5 c 128
 1888 3.5 1626.66699219 -90 1310 -90 c 0
 952 -90 677.5 9.6669921875 486.5 209 c 128
 295.5 408.333007812 200 688.333007812 200 1049 c 0
 200 1480.33300781 351.333007812 1854.33300781 654 2171 c 0
 913.333007812 2438.33300781 1267 2651.33300781 1715 2810 c 1
 1850 2519 l 1
 1713.33300781 2445 1553.66699219 2322 1371 2150 c 0
 1158.33300781 1945.33300781 1052 1789.66699219 1052 1683 c 0
 1052 1645 1067 1613.66699219 1097 1589 c 1
 1236.33300781 1717.66699219 1405.66699219 1782 1605 1782 c 0
 1842.33300781 1782 2034.66699219 1701.33300781 2182 1540 c 128
 2329.33300781 1378.66699219 2403 1178 2403 938 c 0
1535 717 m 1
 1570.33300781 771.666992188 1588 833 1588 901 c 0
 1588 1040.33300781 1544.33300781 1138.66699219 1457 1196 c 1
 1443.66699219 1272.66699219 1386.33300781 1311 1285 1311 c 0
 1175.66699219 1311 1106 1246.66699219 1076 1118 c 0
 1065.33300781 1068.66699219 1060 961 1060 795 c 0
 1060 705 1071 638 1093 594 c 1
 1098.33300781 534 1124.16699219 483.5 1170.5 442.5 c 128
 1216.83300781 401.5 1270 381 1330 381 c 0
 1472 381 1543 467 1543 639 c 0
 1543 663.666992188 1540.33300781 689.666992188 1535 717 c 1
EndSplineSet
Validated: 1
EndChar

StartChar: seven
Encoding: 55 55 23
Width: 2684
Flags: HW
LayerCount: 2
Fore
SplineSet
2399 2621 m 1
 2134.33300781 2039.66699219 1955.66699219 1615.33300781 1863 1348 c 0
 1691 864.666992188 1592.66699219 415.333007812 1568 0 c 1
 577 0 l 1
 621 406.666992188 737 778 925 1114 c 0
 1127 1474.66699219 1391.66699219 1757.33300781 1719 1962 c 1
 1719 1970 l 1
 839 1970 l 2
 686.333007812 1970 578.5 1946.83300781 515.5 1900.5 c 128
 452.5 1854.16699219 399 1758.66699219 355 1614 c 1
 200 1614 l 1
 252 1868 299.666992188 2203.66699219 343 2621 c 1
 2399 2621 l 1
EndSplineSet
Validated: 1
EndChar

StartChar: eight
Encoding: 56 56 24
Width: 2751
Flags: HW
LayerCount: 2
Fore
SplineSet
2445 754 m 0
 2445 470 2315.33300781 251.333007812 2056 98 c 0
 1840 -27.3330078125 1579 -90 1273 -90 c 0
 986.333007812 -90 746 -31.3330078125 552 86 c 0
 317.333007812 225.333007812 200 428.666992188 200 696 c 0
 200 1007.33300781 385.666992188 1226 757 1352 c 1
 607 1447.33300781 499.333007812 1534.66699219 434 1614 c 0
 349.333007812 1723.33300781 307 1853 307 2003 c 0
 307 2246.33300781 423 2432 655 2560 c 0
 841 2664 1067.66699219 2716 1335 2716 c 0
 1586.33300781 2716 1798 2668 1970 2572 c 0
 2182.66699219 2454.66699219 2289 2281.33300781 2289 2052 c 256
 2289 1822.66699219 2143 1635.66699219 1851 1491 c 1
 2247 1327.66699219 2445 1082 2445 754 c 0
1617 2015 m 256
 1617 2110.33300781 1589 2191.5 1533 2258.5 c 128
 1477 2325.5 1409.66699219 2359 1331 2359 c 256
 1251.66699219 2359 1184 2325.66699219 1128 2259 c 128
 1072 2192.33300781 1044 2111 1044 2015 c 256
 1044 1919.66699219 1072 1839.16699219 1128 1773.5 c 128
 1184 1707.83300781 1251.66699219 1675 1331 1675 c 256
 1410.33300781 1675 1477.83300781 1707.83300781 1533.5 1773.5 c 128
 1589.16699219 1839.16699219 1617 1919.66699219 1617 2015 c 256
1601 659 m 0
 1601 751.666992188 1573 831.5 1517 898.5 c 128
 1461 965.5 1393.33300781 999 1314 999 c 256
 1234.66699219 999 1167.16699219 965.666992188 1111.5 899 c 128
 1055.83300781 832.333007812 1028 752.333007812 1028 659 c 0
 1028 563.666992188 1056 482.5 1112 415.5 c 128
 1168 348.5 1235.33300781 315 1314 315 c 256
 1393.33300781 315 1461 348.5 1517 415.5 c 128
 1573 482.5 1601 563.666992188 1601 659 c 0
EndSplineSet
Validated: 1
EndChar

StartChar: nine
Encoding: 57 57 25
Width: 2727
Flags: HW
LayerCount: 2
Fore
SplineSet
2429 1577 m 0
 2429 1148.33300781 2269 766 1949 430 c 0
 1665 126.666992188 1303.33300781 -89 864 -217 c 1
 712 61 l 1
 1080.66699219 290.333007812 1345.66699219 611.333007812 1507 1024 c 1
 1499 1036 l 1
 1376.33300781 904.666992188 1209.66699219 839.333007812 999 840 c 0
 761.666992188 840 569.166992188 920.5 421.5 1081.5 c 128
 273.833007812 1242.5 200 1443 200 1683 c 0
 200 2002.33300781 308 2256.33300781 524 2445 c 0
 728.666992188 2625 993.666992188 2715.33300781 1319 2716 c 0
 1657.66699219 2716 1927.33300781 2610.83300781 2128 2400.5 c 128
 2328.66699219 2190.16699219 2429 1915.66699219 2429 1577 c 0
1646 1806 m 0
 1646 1918 1611.83300781 2014.33300781 1543.5 2095 c 128
 1475.16699219 2175.66699219 1393.33300781 2216 1298 2216 c 256
 1202.66699219 2216 1120.83300781 2175.66699219 1052.5 2095 c 128
 984.166992188 2014.33300781 950 1918 950 1806 c 0
 950 1691.33300781 984.166992188 1593.83300781 1052.5 1513.5 c 128
 1120.83300781 1433.16699219 1202.66699219 1393 1298 1393 c 256
 1393.33300781 1393 1475.16699219 1433.16699219 1543.5 1513.5 c 128
 1611.83300781 1593.83300781 1646 1691.33300781 1646 1806 c 0
EndSplineSet
Validated: 33
EndChar

StartChar: colon
Encoding: 58 58 26
Width: 1124
Flags: HW
LayerCount: 2
Fore
SplineSet
1019 1442 m 0
 1019 1327.33300781 979.5 1229.66699219 900.5 1149 c 128
 821.5 1068.33300781 724.666992188 1028 610 1028 c 256
 495.333007812 1028 398.333007812 1068.33300781 319 1149 c 128
 239.666992188 1229.66699219 200 1327.33300781 200 1442 c 256
 200 1556.66699219 239.5 1654.16699219 318.5 1734.5 c 128
 397.5 1814.83300781 494.666992188 1855 610 1855 c 0
 722 1855 818.166992188 1814.16699219 898.5 1732.5 c 128
 978.833007812 1650.83300781 1019 1554 1019 1442 c 0
1019 324 m 0
 1019 209.333007812 979.5 111.666992188 900.5 31 c 128
 821.5 -49.6669921875 724.666992188 -90 610 -90 c 256
 495.333007812 -90 398.333007812 -49.6669921875 319 31 c 128
 239.666992188 111.666992188 200 209.333007812 200 324 c 256
 200 438.666992188 239.5 536.166992188 318.5 616.5 c 128
 397.5 696.833007812 494.666992188 737 610 737 c 0
 722 737 818.166992188 696.166992188 898.5 614.5 c 128
 978.833007812 532.833007812 1019 436 1019 324 c 0
EndSplineSet
Validated: 1
EndChar

StartChar: semicolon
Encoding: 59 59 27
Width: 1157
Flags: HW
LayerCount: 2
Fore
SplineSet
1093 1401 m 256
 1093 1286.33300781 1053.33300781 1188.66699219 974 1108 c 128
 894.666992188 1027.33300781 797.666992188 987 683 987 c 0
 571 987 474.833007812 1028 394.5 1110 c 128
 314.166992188 1192 274 1289 274 1401 c 256
 274 1513 314.166992188 1610 394.5 1692 c 128
 474.833007812 1774 571 1815 683 1815 c 0
 797.666992188 1815 894.666992188 1774.66699219 974 1694 c 128
 1053.33300781 1613.33300781 1093 1515.66699219 1093 1401 c 256
970 377 m 2
 970 164.333007812 908.666992188 -37.6669921875 786 -229 c 0
 644 -447.666992188 473.333007812 -557 274 -557 c 0
 254.666992188 -557 237.5 -555 222.5 -551 c 128
 207.5 -547 200 -536.666992188 200 -520 c 0
 301.333007812 -345.333007812 362.666992188 -166.666992188 384 16 c 0
 392 84 396 276.666992188 396 594 c 1
 970 594 l 1
 970 377 l 2
EndSplineSet
Validated: 1
EndChar

StartChar: less
Encoding: 60 60 28
Width: 2561
Flags: HW
LayerCount: 2
Fore
SplineSet
2272 -33 m 1
 200 852 l 1
 200 1241 l 1
 2272 2126 l 1
 2272 1651 l 1
 830 1049 l 1
 2272 442 l 1
 2272 -33 l 1
EndSplineSet
Validated: 1
EndChar

StartChar: equal
Encoding: 61 61 29
Width: 2561
Flags: HW
LayerCount: 2
Fore
SplineSet
2272 1241 m 1
 200 1241 l 1
 200 1737 l 1
 2272 1737 l 1
 2272 1241 l 1
2272 356 m 1
 200 356 l 1
 200 852 l 1
 2272 852 l 1
 2272 356 l 1
EndSplineSet
Validated: 1
EndChar

StartChar: greater
Encoding: 62 62 30
Width: 2594
Flags: HW
LayerCount: 2
Fore
SplineSet
2272 852 m 1
 200 -33 l 1
 200 442 l 1
 1642 1049 l 1
 200 1651 l 1
 200 2126 l 1
 2272 1241 l 1
 2272 852 l 1
EndSplineSet
Validated: 1
EndChar

StartChar: question
Encoding: 63 63 31
Width: 2210
Flags: HW
LayerCount: 2
Fore
SplineSet
2166 2150 m 0
 2166 1940 2080 1772.33300781 1908 1647 c 0
 1886 1630.33300781 1726.33300781 1549.66699219 1429 1405 c 0
 1257 1320.33300781 1171 1222 1171 1110 c 1
 864 1102 l 1
 836.666992188 1222 809.333007812 1409 782 1663 c 1
 896.666992188 1663 1016.66699219 1701.33300781 1142 1778 c 0
 1294.66699219 1870.66699219 1370 1982.66699219 1368 2114 c 0
 1362.66699219 2343.33300781 1211 2458 913 2458 c 0
 787.666992188 2458 675.166992188 2408.16699219 575.5 2308.5 c 128
 475.833007812 2208.83300781 413.666992188 2093.33300781 389 1962 c 1
 200 1962 l 1
 219.333007812 2221.33300781 229 2378.33300781 229 2433 c 0
 229 2452.33300781 226.333007812 2480.33300781 221 2517 c 128
 215.666992188 2553.66699219 213 2581.66699219 213 2601 c 0
 213 2693.66699219 334.333007812 2767.33300781 577 2822 c 0
 751.666992188 2860 913 2879 1061 2879 c 0
 1361.66699219 2879 1606 2832.66699219 1794 2740 c 0
 2042 2617.33300781 2166 2420.66699219 2166 2150 c 0
1491 377 m 0
 1491 259.666992188 1450.66699219 158.666992188 1370 74 c 128
 1289.33300781 -10.6669921875 1189 -53 1069 -53 c 0
 951.666992188 -53 852 -10.6669921875 770 74 c 128
 688 158.666992188 647 259.666992188 647 377 c 256
 647 494.333007812 688 595.333007812 770 680 c 128
 852 764.666992188 951.666992188 807 1069 807 c 256
 1186.33300781 807 1286 765.333007812 1368 682 c 128
 1450 598.666992188 1491 497 1491 377 c 0
EndSplineSet
Validated: 33
EndChar

StartChar: at
Encoding: 64 64 32
Width: 3148
Flags: HW
LayerCount: 2
Fore
SplineSet
2977 1520 m 0
 2977 1276.66699219 2914.33300781 1059.33300781 2789 868 c 0
 2647 652 2461.33300781 544.333007812 2232 545 c 0
 2147.33300781 545 2066.16699219 573.666992188 1988.5 631 c 128
 1910.83300781 688.333007812 1870.33300781 758 1867 840 c 1
 1859 840 l 1
 1829 766 1765.5 699 1668.5 639 c 128
 1571.5 579 1482.33300781 549 1401 549 c 0
 1275.66699219 549 1177.33300781 602.333007812 1106 709 c 0
 1046 801.666992188 1015.66699219 915 1015 1049 c 0
 1015 1292.33300781 1084.66699219 1514.66699219 1224 1716 c 0
 1379.33300781 1942.66699219 1573.33300781 2056 1806 2056 c 0
 1926 2056 2016 1992 2076 1864 c 1
 2113 1995 l 1
 2420 1995 l 1
 2370.66699219 1812.33300781 2321.66699219 1629.33300781 2273 1446 c 0
 2213 1224.66699219 2183 1039 2183 889 c 0
 2183 793.666992188 2219.66699219 745.666992188 2293 745 c 0
 2399.66699219 745 2491.33300781 849 2568 1057 c 0
 2628 1226.33300781 2658 1379.33300781 2658 1516 c 0
 2658 1794.66699219 2561 2013 2367 2171 c 0
 2187 2318.33300781 1955 2392 1671 2392 c 0
 1324.33300781 2392 1052.66699219 2282.16699219 856 2062.5 c 128
 659.333007812 1842.83300781 569 1551.33300781 585 1188 c 0
 598.333007812 890.666992188 722.666992188 649 958 463 c 0
 1170.66699219 293.666992188 1419.33300781 209 1704 209 c 0
 1982.66699219 209 2250 277.333007812 2506 414 c 1
 2543 164 l 1
 2253.66699219 -5.3330078125 1976.66699219 -90 1712 -90 c 0
 1308 -90 959.666992188 31.3330078125 667 274 c 0
 355.666992188 530.666992188 200 855.666992188 200 1249 c 0
 200 1675 338.666992188 2026 616 2302 c 128
 893.333007812 2578 1245 2716 1671 2716 c 0
 2039.66699219 2716 2345.33300781 2609.33300781 2588 2396 c 0
 2847.33300781 2175.33300781 2977 1883.33300781 2977 1520 c 0
1966 1556 m 0
 1966 1722.66699219 1921 1806 1831 1806 c 0
 1699.66699219 1806 1589 1725.66699219 1499 1565 c 0
 1422.33300781 1425.66699219 1384 1283.66699219 1384 1139 c 0
 1384 912.333007812 1440 799 1552 799 c 0
 1699.33300781 799 1810 893 1884 1081 c 0
 1938.66699219 1223 1966 1381.33300781 1966 1556 c 0
EndSplineSet
Validated: 33
EndChar

StartChar: A
Encoding: 65 65 33
Width: 4096
Flags: HW
LayerCount: 2
Fore
SplineSet
3048 3129 m 0
 2882.42578125 3129 2748 2994.57421875 2748 2829 c 0
 2748 2780.90332031 2759.34277344 2735.43554688 2779.49707031 2695.12695312 c 0
 2949.35449219 2355.41113281 3079.97753906 2018.01367188 3161.44628906 1704.36132812 c 0
 3224.17089844 1462.86816406 3395.77832031 721.662109375 3050.6640625 290.270507812 c 0
 2980.95996094 203.138671875 2860.18554688 89.5517578125 2636.06347656 13.2060546875 c 0
 2482.48046875 -39.111328125 2287.99023438 -71 2048 -71 c 0
 1764.89550781 -71 1465.18652344 -26.66796875 1239.05664062 117.4921875 c 0
 1160.75683594 167.408203125 1097.85742188 224.6171875 1045.3359375 290.270507812 c 0
 673.658203125 754.866210938 817.036132812 1696.19238281 1316.50292969 2695.12695312 c 0
 1336.65722656 2735.43554688 1348 2780.90332031 1348 2829 c 0
 1348 2994.57421875 1213.57421875 3129 1048 3129 c 0
 930.521484375 3129 828.724609375 3061.328125 779.497070312 2962.87304688 c 0
 600.107421875 2604.09472656 236 1802.44921875 236 1011.40039062 c 0
 236 606.633789062 332.038085938 221.568359375 576.590820312 -84.1220703125 c 0
 825.689453125 -395.49609375 1266.78515625 -671 2048 -671 c 0
 2369.54492188 -671 2807.56835938 -625.51171875 3178.85253906 -388.815429688 c 0
 3567.8125 -140.850585938 3860 303.674804688 3860 1011.40039062 c 0
 3860 1282.56933594 3817.53320312 1565.52734375 3742.23632812 1855.421875 c 0
 3648.12109375 2217.76464844 3502.20019531 2591.47753906 3316.50292969 2962.87304688 c 0
 3267.27539062 3061.328125 3165.47851562 3129 3048 3129 c 0
EndSplineSet
Validated: 41
EndChar

StartChar: B
Encoding: 66 66 34
Width: 4096
Flags: HW
LayerCount: 2
Fore
SplineSet
2348 1829 m 2
 2348 1994.57421875 2213.57421875 2129 2048 2129 c 0
 1882.42578125 2129 1748 1994.57421875 1748 1829 c 2
 1748 -52.2421875 l 1
 1427.13671875 -9.3515625 1193.64453125 104.883789062 1045.3359375 290.270507812 c 0
 673.658203125 754.866210938 817.036132812 1696.19238281 1316.50292969 2695.12695312 c 0
 1320.16699219 2702.45410156 1323.5390625 2709.95214844 1326.60449219 2717.60449219 c 2
 2326.60449219 5213.60449219 l 2
 2340.40625 5248.05175781 2348 5285.64648438 2348 5325 c 0
 2348 5490.57421875 2213.57421875 5625 2048 5625 c 0
 1921.77929688 5625 1813.66015625 5546.88085938 1769.39550781 5436.39550781 c 2
 773.928710938 2951.71191406 l 1
 595.475585938 2593.22167969 236 1797.32226562 236 1011.40039062 c 0
 236 606.633789062 332.038085938 221.568359375 576.590820312 -84.1220703125 c 0
 825.689453125 -395.49609375 1266.78515625 -671 2048 -671 c 0
 2369.54492188 -671 2807.56835938 -625.51171875 3178.85253906 -388.815429688 c 0
 3567.8125 -140.850585938 3860 303.674804688 3860 1011.40039062 c 0
 3860 1282.56933594 3817.53320312 1565.52734375 3742.23632812 1855.421875 c 0
 3648.12109375 2217.76464844 3502.20019531 2591.47753906 3316.50292969 2962.87304688 c 0
 3267.27539062 3061.328125 3165.47851562 3129 3048 3129 c 0
 2882.42578125 3129 2748 2994.57421875 2748 2829 c 0
 2748 2780.90332031 2759.34277344 2735.43554688 2779.49707031 2695.12695312 c 0
 2949.35449219 2355.41113281 3079.97753906 2018.01367188 3161.44628906 1704.36132812 c 0
 3224.17089844 1462.86816406 3395.77832031 721.662109375 3050.6640625 290.270507812 c 0
 2951.72167969 166.591796875 2759.9375 2.822265625 2348 -52.2421875 c 1
 2348 1829 l 2
EndSplineSet
Validated: 41
EndChar

StartChar: C
Encoding: 67 67 35
Width: 4096
Flags: HW
LayerCount: 2
Fore
SplineSet
2648 929 m 2
 2813.57421875 929 2948 1063.42578125 2948 1229 c 0
 2948 1394.57421875 2813.57421875 1529 2648 1529 c 2
 766.7578125 1529 l 1
 809.6484375 1849.86328125 923.883789062 2083.35546875 1109.27050781 2231.6640625 c 0
 1573.86621094 2603.34179688 2515.19238281 2459.96386719 3514.12695312 1960.49707031 c 0
 3554.43554688 1940.34277344 3599.90332031 1929 3648 1929 c 0
 3813.57421875 1929 3948 2063.42578125 3948 2229 c 0
 3948 2346.47851562 3880.328125 2448.27539062 3781.87304688 2497.50292969 c 0
 3423.09472656 2676.89257812 2621.44921875 3041 1830.40039062 3041 c 0
 1425.63378906 3041 1040.56835938 2944.96191406 734.877929688 2700.40917969 c 0
 423.50390625 2451.31054688 148 2010.21484375 148 1229 c 0
 148 907.455078125 193.48828125 469.431640625 430.184570312 98.1474609375 c 0
 678.149414062 -290.8125 1122.67480469 -583 1830.40039062 -583 c 0
 2143.625 -583 2532.33789062 -525.602539062 3002.15136719 -367.234375 c 1
 1781.30566406 -2729.56933594 l 2
 1760.02246094 -2770.75195312 1748 -2817.48339844 1748 -2867 c 0
 1748 -3032.57421875 1882.42578125 -3167 2048 -3167 c 0
 2164.05761719 -3167 2264.81054688 -3100.95507812 2314.69433594 -3004.43066406 c 2
 3914.69433594 91.5693359375 l 2
 3935.97753906 132.751953125 3948 179.483398438 3948 229 c 0
 3948 394.57421875 3813.57421875 529 3648 529 c 0
 3599.90332031 529 3554.43554688 517.657226562 3514.12695312 497.502929688 c 0
 3174.41113281 327.645507812 2837.01367188 197.022460938 2523.36132812 115.553710938 c 0
 2281.86816406 52.8291015625 1540.66210938 -118.778320312 1109.27050781 226.3359375 c 0
 985.591796875 325.278320312 821.822265625 517.0625 766.7578125 929 c 1
 2648 929 l 2
EndSplineSet
Validated: 41
Ligature2: "'liga' Consonant Cluster Latin" T S
EndChar

StartChar: D
Encoding: 68 68 36
Width: 4096
Flags: HW
LayerCount: 2
Fore
SplineSet
2348 5325 m 0
 2348 5490.57421875 2213.57421875 5625 2048 5625 c 0
 1921.77929688 5625 1813.66015625 5546.88085938 1769.39550781 5436.39550781 c 2
 773.928710938 2951.71191406 l 1
 595.475585938 2593.22167969 236 1797.32226562 236 1011.40039062 c 0
 236 606.633789062 332.038085938 221.568359375 576.590820312 -84.1220703125 c 0
 825.689453125 -395.49609375 1266.78515625 -671 2048 -671 c 0
 2369.54492188 -671 2807.56835938 -625.51171875 3178.85253906 -388.815429688 c 0
 3567.8125 -140.850585938 3860 303.674804688 3860 1011.40039062 c 0
 3860 1282.56933594 3817.53320312 1565.52734375 3742.23632812 1855.421875 c 0
 3648.12109375 2217.76464844 3502.20019531 2591.47753906 3316.50292969 2962.87304688 c 0
 3267.27539062 3061.328125 3165.47851562 3129 3048 3129 c 0
 2882.42578125 3129 2748 2994.57421875 2748 2829 c 0
 2748 2780.90332031 2759.34277344 2735.43554688 2779.49707031 2695.12695312 c 0
 2896.37695312 2461.36621094 3102.37890625 2014.17382812 3202.35546875 1529 c 1
 893.64453125 1529 l 1
 950.272460938 1803.8046875 1069.51660156 2201.15429688 1316.50292969 2695.12695312 c 0
 1320.16699219 2702.45410156 1323.5390625 2709.95214844 1326.60449219 2717.60449219 c 2
 2326.60449219 5213.60449219 l 2
 2340.40625 5248.05175781 2348 5285.64648438 2348 5325 c 0
2048 -71 m 0
 1764.89550781 -71 1465.18652344 -26.66796875 1239.05664062 117.4921875 c 0
 1099.69433594 206.3359375 860.919921875 408.696289062 837.797851562 929 c 1
 3258.20214844 929 l 1
 3235.05664062 408.166992188 2995.78613281 206.004882812 2856.94335938 117.4921875 c 0
 2629.19335938 -27.7001953125 2327.79199219 -71 2048 -71 c 0
EndSplineSet
Validated: 9
EndChar

StartChar: E
Encoding: 69 69 37
Width: 4096
Flags: HW
HStem: -39.5029 568.503<3607.66 3860.09>
VStem: 148 618.758<589.932 929 1529 1866.26>
LayerCount: 2
Fore
SplineSet
2648 929 m 2
 2813.57421875 929 2948 1063.42578125 2948 1229 c 0
 2948 1394.57421875 2813.57421875 1529 2648 1529 c 2
 766.7578125 1529 l 1
 809.6484375 1849.86328125 923.883789062 2083.35546875 1109.27050781 2231.6640625 c 0
 1573.86621094 2603.34179688 2515.19238281 2459.96386719 3514.12695312 1960.49707031 c 0
 3554.43554688 1940.34277344 3599.90332031 1929 3648 1929 c 0
 3813.57421875 1929 3948 2063.42578125 3948 2229 c 0
 3948 2346.47851562 3880.328125 2448.27539062 3781.87304688 2497.50292969 c 0
 3423.09472656 2676.89257812 2621.44921875 3041 1830.40039062 3041 c 0
 1425.63378906 3041 1040.56835938 2944.96191406 734.877929688 2700.40917969 c 0
 423.50390625 2451.31054688 148 2010.21484375 148 1229 c 0
 148 907.455078125 193.48828125 469.431640625 430.184570312 98.1474609375 c 0
 678.149414062 -290.8125 1122.67480469 -583 1830.40039062 -583 c 0
 2101.56933594 -583 2384.52734375 -540.533203125 2674.421875 -465.236328125 c 0
 3036.76464844 -371.12109375 3410.47753906 -225.200195312 3781.87304688 -39.5029296875 c 0
 3880.328125 9.724609375 3948 111.521484375 3948 229 c 0
 3948 394.57421875 3813.57421875 529 3648 529 c 0
 3599.90332031 529 3554.43554688 517.657226562 3514.12695312 497.502929688 c 0
 3174.41113281 327.645507812 2837.01367188 197.022460938 2523.36132812 115.553710938 c 0
 2281.86816406 52.8291015625 1540.66210938 -118.778320312 1109.27050781 226.3359375 c 0
 985.591796875 325.278320312 821.822265625 517.0625 766.7578125 929 c 1
 2648 929 l 2
EndSplineSet
Validated: 41
EndChar

StartChar: F
Encoding: 70 70 38
Width: 4096
Flags: HW
LayerCount: 2
Fore
SplineSet
3048 3129 m 0
 2882.42578125 3129 2748 2994.57421875 2748 2829 c 0
 2748 2780.90332031 2759.34277344 2735.43554688 2779.49707031 2695.12695312 c 0
 2949.35449219 2355.41113281 3079.97753906 2018.01367188 3161.44628906 1704.36132812 c 0
 3224.17089844 1462.86816406 3395.77832031 721.662109375 3050.6640625 290.270507812 c 0
 2951.72167969 166.591796875 2759.9375 2.822265625 2348 -52.2421875 c 1
 2348 5325 l 2
 2348 5490.57421875 2213.57421875 5625 2048 5625 c 0
 1882.42578125 5625 1748 5490.57421875 1748 5325 c 2
 1748 -52.2421875 l 1
 1427.13671875 -9.3515625 1193.64453125 104.883789062 1045.3359375 290.270507812 c 0
 673.658203125 754.866210938 817.036132812 1696.19238281 1316.50292969 2695.12695312 c 0
 1336.65722656 2735.43554688 1348 2780.90332031 1348 2829 c 0
 1348 2994.57421875 1213.57421875 3129 1048 3129 c 0
 930.521484375 3129 828.724609375 3061.328125 779.497070312 2962.87304688 c 0
 600.107421875 2604.09472656 236 1802.44921875 236 1011.40039062 c 0
 236 606.633789062 332.038085938 221.568359375 576.590820312 -84.1220703125 c 0
 825.689453125 -395.49609375 1266.78515625 -671 2048 -671 c 0
 2369.54492188 -671 2807.56835938 -625.51171875 3178.85253906 -388.815429688 c 0
 3567.8125 -140.850585938 3860 303.674804688 3860 1011.40039062 c 0
 3860 1282.56933594 3817.53320312 1565.52734375 3742.23632812 1855.421875 c 0
 3648.12109375 2217.76464844 3502.20019531 2591.47753906 3316.50292969 2962.87304688 c 0
 3267.27539062 3061.328125 3165.47851562 3129 3048 3129 c 0
EndSplineSet
Validated: 41
EndChar

StartChar: G
Encoding: 71 71 39
Width: 4096
Flags: HW
LayerCount: 2
Fore
SplineSet
1748 629 m 2
 1748 463.42578125 1882.42578125 329 2048 329 c 0
 2213.57421875 329 2348 463.42578125 2348 629 c 2
 2348 2510.2421875 l 1
 2668.86328125 2467.3515625 2902.35546875 2353.11621094 3050.6640625 2167.72949219 c 0
 3422.34179688 1703.13378906 3278.96386719 761.807617188 2779.49707031 -237.126953125 c 0
 2759.34277344 -277.435546875 2748 -322.903320312 2748 -371 c 0
 2748 -536.57421875 2882.42578125 -671 3048 -671 c 0
 3165.47851562 -671 3267.27539062 -603.328125 3316.50292969 -504.873046875 c 0
 3495.89257812 -146.094726562 3860 655.55078125 3860 1446.59960938 c 0
 3860 1851.36621094 3763.96191406 2236.43164062 3519.40917969 2542.12207031 c 0
 3270.31054688 2853.49609375 2829.21484375 3129 2048 3129 c 0
 1726.45507812 3129 1288.43164062 3083.51171875 917.147460938 2846.81542969 c 0
 528.1875 2598.85058594 236 2154.32519531 236 1446.59960938 c 0
 236 1175.43066406 278.466796875 892.47265625 353.763671875 602.578125 c 0
 446.936523438 243.865234375 621.166015625 -112.415039062 773.928710938 -493.711914062 c 0
 1769.39550781 -2978.39550781 1769.39550781 -2978.39550781 1769.39550781 -2978.39550781 c 2
 1813.66015625 -3088.88085938 1921.77929688 -3167 2048 -3167 c 0
 2213.57421875 -3167 2348 -3032.57421875 2348 -2867 c 0
 2348 -2827.64648438 2340.40625 -2790.05175781 2326.60449219 -2755.60449219 c 2
 1326.60449219 -259.604492188 l 2
 1323.5390625 -251.952148438 1320.16699219 -244.454101562 1316.50292969 -237.126953125 c 0
 1146.64550781 102.588867188 1016.02246094 439.986328125 934.553710938 753.638671875 c 0
 871.829101562 995.131835938 700.221679688 1736.33789062 1045.3359375 2167.72949219 c 0
 1144.27832031 2291.40820312 1336.0625 2455.17773438 1748 2510.2421875 c 1
 1748 629 l 2
EndSplineSet
Validated: 41
EndChar

StartChar: H
Encoding: 72 72 40
Width: 4096
Flags: HW
LayerCount: 2
Fore
SplineSet
2348 5325 m 0
 2348 5490.57421875 2213.57421875 5625 2048 5625 c 0
 1931.94238281 5625 1831.18945312 5558.95507812 1781.30566406 5462.43066406 c 2
 181.305664062 2366.43066406 l 2
 160.022460938 2325.24804688 148 2278.51660156 148 2229 c 0
 148 2063.42578125 282.42578125 1929 448 1929 c 0
 496.096679688 1929 541.564453125 1940.34277344 581.873046875 1960.49707031 c 0
 921.588867188 2130.35449219 1258.98632812 2260.97753906 1572.63867188 2342.44628906 c 0
 1814.13183594 2405.17089844 2555.33789062 2576.77832031 2986.72949219 2231.6640625 c 0
 3073.86132812 2161.95996094 3187.44824219 2041.18554688 3263.79394531 1817.06347656 c 0
 3316.11132812 1663.48046875 3348 1468.99023438 3348 1229 c 0
 3348 945.895507812 3303.66796875 646.186523438 3159.5078125 420.056640625 c 0
 3109.59179688 341.756835938 3052.3828125 278.857421875 2986.72949219 226.3359375 c 0
 2522.13378906 -145.341796875 1580.80761719 -1.9638671875 581.873046875 497.502929688 c 0
 541.564453125 517.657226562 496.096679688 529 448 529 c 0
 282.42578125 529 148 394.57421875 148 229 c 0
 148 111.521484375 215.671875 9.724609375 314.126953125 -39.5029296875 c 0
 672.905273438 -218.892578125 1474.55078125 -583 2265.59960938 -583 c 0
 2670.36621094 -583 3055.43164062 -486.961914062 3361.12207031 -242.409179688 c 0
 3672.49609375 6.689453125 3948 447.78515625 3948 1229 c 0
 3948 1550.54492188 3902.51171875 1988.56835938 3665.81542969 2359.85253906 c 0
 3417.85058594 2748.8125 2973.32519531 3041 2265.59960938 3041 c 0
 1952.375 3041 1563.66210938 2983.60253906 1093.84863281 2825.234375 c 1
 2314.69433594 5187.56933594 l 2
 2335.97753906 5228.75195312 2348 5275.48339844 2348 5325 c 0
EndSplineSet
Validated: 41
EndChar

StartChar: I
Encoding: 73 73 41
Width: 4096
Flags: W
HStem: -671 618.758<1410.74 1748 2348 2687.07>
VStem: 2748 568.503<2788.66 3041.09>
LayerCount: 2
Fore
SplineSet
2348 1829 m 2
 2348 1994.57421875 2213.57421875 2129 2048 2129 c 0
 1882.42578125 2129 1748 1994.57421875 1748 1829 c 2
 1748 -52.2421875 l 1
 1427.13671875 -9.3515625 1193.64453125 104.883789062 1045.3359375 290.270507812 c 0
 673.658203125 754.866210938 817.036132812 1696.19238281 1316.50292969 2695.12695312 c 0
 1336.65722656 2735.43554688 1348 2780.90332031 1348 2829 c 0
 1348 2994.57421875 1213.57421875 3129 1048 3129 c 0
 930.521484375 3129 828.724609375 3061.328125 779.497070312 2962.87304688 c 0
 600.107421875 2604.09472656 236 1802.44921875 236 1011.40039062 c 0
 236 606.633789062 332.038085938 221.568359375 576.590820312 -84.1220703125 c 0
 825.689453125 -395.49609375 1266.78515625 -671 2048 -671 c 0
 2369.54492188 -671 2807.56835938 -625.51171875 3178.85253906 -388.815429688 c 0
 3567.8125 -140.850585938 3860 303.674804688 3860 1011.40039062 c 0
 3860 1282.56933594 3817.53320312 1565.52734375 3742.23632812 1855.421875 c 0
 3648.12109375 2217.76464844 3502.20019531 2591.47753906 3316.50292969 2962.87304688 c 0
 3267.27539062 3061.328125 3165.47851562 3129 3048 3129 c 0
 2882.42578125 3129 2748 2994.57421875 2748 2829 c 0
 2748 2780.90332031 2759.34277344 2735.43554688 2779.49707031 2695.12695312 c 0
 2949.35449219 2355.41113281 3079.97753906 2018.01367188 3161.44628906 1704.36132812 c 0
 3224.17089844 1462.86816406 3395.77832031 721.662109375 3050.6640625 290.270507812 c 0
 2951.72167969 166.591796875 2759.9375 2.822265625 2348 -52.2421875 c 1
 2348 1829 l 2
EndSplineSet
Validated: 41
EndChar

StartChar: J
Encoding: 74 74 42
Width: 4096
Flags: HW
LayerCount: 2
Fore
SplineSet
2348 5325 m 0
 2348 5490.57421875 2213.57421875 5625 2048 5625 c 0
 1931.94238281 5625 1831.18945312 5558.95507812 1781.30566406 5462.43066406 c 2
 181.305664062 2366.43066406 l 2
 160.022460938 2325.24804688 148 2278.51660156 148 2229 c 0
 148 2063.42578125 282.42578125 1929 448 1929 c 0
 496.096679688 1929 541.564453125 1940.34277344 581.873046875 1960.49707031 c 0
 815.633789062 2077.37695312 1262.82617188 2283.37890625 1748 2383.35546875 c 1
 1748 74.64453125 l 1
 1473.1953125 131.272460938 1075.84570312 250.516601562 581.873046875 497.502929688 c 0
 541.564453125 517.657226562 496.096679688 529 448 529 c 0
 282.42578125 529 148 394.57421875 148 229 c 0
 148 111.521484375 215.671875 9.724609375 314.126953125 -39.5029296875 c 0
 672.905273438 -218.892578125 1474.55078125 -583 2265.59960938 -583 c 0
 2670.36621094 -583 3055.43164062 -486.961914062 3361.12207031 -242.409179688 c 0
 3672.49609375 6.689453125 3948 447.78515625 3948 1229 c 0
 3948 1550.54492188 3902.51171875 1988.56835938 3665.81542969 2359.85253906 c 0
 3417.85058594 2748.8125 2973.32519531 3041 2265.59960938 3041 c 0
 1952.375 3041 1563.66210938 2983.60253906 1093.84863281 2825.234375 c 1
 2314.69433594 5187.56933594 l 2
 2335.97753906 5228.75195312 2348 5275.48339844 2348 5325 c 0
3348 1229 m 0
 3348 945.895507812 3303.66796875 646.186523438 3159.5078125 420.056640625 c 0
 3070.6640625 280.694335938 2868.30371094 41.919921875 2348 18.7978515625 c 1
 2348 2439.20214844 l 1
 2868.83300781 2416.05664062 3070.99511719 2176.78613281 3159.5078125 2037.94335938 c 0
 3304.70019531 1810.19335938 3348 1508.79199219 3348 1229 c 0
EndSplineSet
Validated: 9
EndChar

StartChar: K
Encoding: 75 75 43
Width: 4096
Flags: HW
LayerCount: 2
Fore
SplineSet
1748 629 m 2
 1748 463.42578125 1882.42578125 329 2048 329 c 0
 2213.57421875 329 2348 463.42578125 2348 629 c 2
 2348 2510.2421875 l 1
 2668.86328125 2467.3515625 2902.35546875 2353.11621094 3050.6640625 2167.72949219 c 0
 3422.34179688 1703.13378906 3278.96386719 761.807617188 2779.49707031 -237.126953125 c 0
 2775.83300781 -244.454101562 2772.4609375 -251.952148438 2769.39550781 -259.604492188 c 2
 1769.39550781 -2755.60449219 l 2
 1755.59375 -2790.05175781 1748 -2827.64648438 1748 -2867 c 0
 1748 -3032.57421875 1882.42578125 -3167 2048 -3167 c 0
 2174.22070312 -3167 2282.33984375 -3088.88085938 2326.60449219 -2978.39550781 c 2
 3322.07128906 -493.711914062 l 1
 3500.52441406 -135.221679688 3860 660.677734375 3860 1446.59960938 c 0
 3860 1851.36621094 3763.96191406 2236.43164062 3519.40917969 2542.12207031 c 0
 3270.31054688 2853.49609375 2829.21484375 3129 2048 3129 c 0
 1726.45507812 3129 1288.43164062 3083.51171875 917.147460938 2846.81542969 c 0
 528.1875 2598.85058594 236 2154.32519531 236 1446.59960938 c 0
 236 1175.43066406 278.466796875 892.47265625 353.763671875 602.578125 c 0
 447.87890625 240.235351562 593.799804688 -133.477539062 779.497070312 -504.873046875 c 0
 828.724609375 -603.328125 930.521484375 -671 1048 -671 c 0
 1213.57421875 -671 1348 -536.57421875 1348 -371 c 0
 1348 -322.903320312 1336.65722656 -277.435546875 1316.50292969 -237.126953125 c 0
 1146.64550781 102.588867188 1016.02246094 439.986328125 934.553710938 753.638671875 c 0
 871.829101562 995.131835938 700.221679688 1736.33789062 1045.3359375 2167.72949219 c 0
 1144.27832031 2291.40820312 1336.0625 2455.17773438 1748 2510.2421875 c 1
 1748 629 l 2
EndSplineSet
Validated: 41
EndChar

StartChar: L
Encoding: 76 76 44
Width: 4096
Flags: HW
LayerCount: 2
Fore
SplineSet
3048 3129 m 0
 2882.42578125 3129 2748 2994.57421875 2748 2829 c 0
 2748 2780.90332031 2759.34277344 2735.43554688 2779.49707031 2695.12695312 c 0
 2949.35449219 2355.41113281 3079.97753906 2018.01367188 3161.44628906 1704.36132812 c 0
 3224.17089844 1462.86816406 3395.77832031 721.662109375 3050.6640625 290.270507812 c 0
 2980.95996094 203.138671875 2860.18554688 89.5517578125 2636.06347656 13.2060546875 c 0
 2482.48046875 -39.111328125 2287.99023438 -71 2048 -71 c 0
 1764.89550781 -71 1465.18652344 -26.66796875 1239.05664062 117.4921875 c 0
 1160.75683594 167.408203125 1097.85742188 224.6171875 1045.3359375 290.270507812 c 0
 673.658203125 754.866210938 817.036132812 1696.19238281 1316.50292969 2695.12695312 c 0
 1320.16699219 2702.45410156 1323.5390625 2709.95214844 1326.60449219 2717.60449219 c 2
 2326.60449219 5213.60449219 l 2
 2340.40625 5248.05175781 2348 5285.64648438 2348 5325 c 0
 2348 5490.57421875 2213.57421875 5625 2048 5625 c 0
 1921.77929688 5625 1813.66015625 5546.88085938 1769.39550781 5436.39550781 c 2
 773.928710938 2951.71191406 l 1
 595.475585938 2593.22167969 236 1797.32226562 236 1011.40039062 c 0
 236 606.633789062 332.038085938 221.568359375 576.590820312 -84.1220703125 c 0
 825.689453125 -395.49609375 1266.78515625 -671 2048 -671 c 0
 2369.54492188 -671 2807.56835938 -625.51171875 3178.85253906 -388.815429688 c 0
 3567.8125 -140.850585938 3860 303.674804688 3860 1011.40039062 c 0
 3860 1282.56933594 3817.53320312 1565.52734375 3742.23632812 1855.421875 c 0
 3648.12109375 2217.76464844 3502.20019531 2591.47753906 3316.50292969 2962.87304688 c 0
 3267.27539062 3061.328125 3165.47851562 3129 3048 3129 c 0
EndSplineSet
Validated: 41
EndChar

StartChar: M
Encoding: 77 77 45
Width: 4096
Flags: HW
LayerCount: 2
Fore
SplineSet
1749.57128906 2264.046875 m 0
 1658.33203125 1652.45703125 1831.27539062 807.669921875 1753.015625 283.08203125 c 0
 1739.66308594 193.579101562 1713.59179688 82.0908203125 1663.11425781 13.046875 c 0
 1634.99121094 -25.4208984375 1588.34375 -71 1448 -71 c 0
 1145.17089844 -71 957.830078125 58.671875 838.771484375 257.1015625 c 0
 790.775390625 337.094726562 668 567.216796875 668 1011.40039062 c 0
 668 1147.07421875 670.171875 1802.46386719 1116.50292969 2695.12695312 c 0
 1117.5390625 2697.20019531 1117.5390625 2697.20019531 2318.54296875 5195.28808594 c 0
 2337.42089844 5234.55371094 2348 5278.55078125 2348 5325 c 0
 2348 5490.57421875 2213.57421875 5625 2048 5625 c 0
 1928.87402344 5625 1825.87207031 5555.41699219 1777.45703125 5454.71191406 c 2
 578.447265625 2960.77148438 l 1
 475.872070312 2755.40917969 68 1924.80957031 68 1011.40039062 c 0
 68 -47.998046875 624.078125 -671 1448 -671 c 0
 1574.71679688 -671 2050.91796875 -659.984375 2262.49902344 -130.541015625 c 0
 2349.49511719 87.15234375 2373.8203125 346.653320312 2373.8203125 623.09375 c 0
 2373.8203125 1151.60546875 2282.23925781 1767.73730469 2342.984375 2174.91796875 c 0
 2356.33691406 2264.42089844 2382.40820312 2375.90917969 2432.88574219 2444.953125 c 0
 2461.00878906 2483.42089844 2507.65625 2529 2648 2529 c 0
 2950.82910156 2529 3138.16992188 2399.328125 3257.22851562 2200.8984375 c 0
 3305.22460938 2120.90527344 3428 1890.78320312 3428 1446.59960938 c 0
 3428 1310.92578125 3425.828125 655.536132812 2979.49707031 -237.126953125 c 0
 2959.34277344 -277.435546875 2948 -322.903320312 2948 -371 c 0
 2948 -536.57421875 3082.42578125 -671 3248 -671 c 0
 3365.47851562 -671 3467.27539062 -603.328125 3516.50292969 -504.873046875 c 0
 3619.11425781 -299.650390625 4028 532.017578125 4028 1446.59960938 c 0
 4028 2505.99804688 3471.921875 3129 2648 3129 c 0
 2521.28320312 3129 2045.08203125 3117.984375 1833.50097656 2588.54101562 c 0
 1791.66992188 2483.86328125 1766.15234375 2375.1875 1749.57128906 2264.046875 c 0
EndSplineSet
Validated: 41
EndChar

StartChar: N
Encoding: 78 78 46
Width: 4096
Flags: HW
LayerCount: 2
Fore
SplineSet
1448 3129 m 0
 624.041992188 3129 68 2505.95507812 68 1446.59960938 c 0
 68 1253.79589844 92.9033203125 507.159179688 578.447265625 -502.771484375 c 0
 1777.45703125 -2996.71191406 1777.45703125 -2996.71191406 1777.45703125 -2996.71191406 c 2
 1825.87207031 -3097.41699219 1928.87402344 -3167 2048 -3167 c 0
 2213.57421875 -3167 2348 -3032.57421875 2348 -2867 c 0
 2348 -2820.55078125 2337.42089844 -2776.55371094 2318.54296875 -2737.28808594 c 0
 1117.5390625 -239.200195312 1117.5390625 -239.200195312 1116.50292969 -237.126953125 c 0
 948.62890625 98.6201171875 828.243164062 433.0546875 754.955078125 746.563476562 c 0
 688.225585938 1032.02050781 614.305664062 1505.77636719 723.88671875 1919.71777344 c 0
 780.629882812 2134.06640625 892.672851562 2352.63574219 1111.3046875 2458.83300781 c 0
 1200.84277344 2502.32421875 1310.39941406 2529 1448 2529 c 0
 1588.37402344 2529 1635.0078125 2483.39746094 1663.11425781 2444.953125 c 0
 1679.66503906 2422.31542969 1726.55371094 2352.29492188 1753.015625 2174.91796875 c 0
 1813.52246094 1769.33007812 1722.1796875 1145.79492188 1722.1796875 623.09375 c 0
 1722.1796875 257.85546875 1764.54101562 -89.2978515625 1948.22265625 -340.537109375 c 0
 2072.26269531 -510.198242188 2288.35644531 -671 2648 -671 c 0
 3471.95800781 -671 4028 -47.955078125 4028 1011.40039062 c 0
 4028 1204.1328125 4018.32519531 1959.22753906 3516.50292969 2962.87304688 c 0
 3467.27539062 3061.328125 3365.47851562 3129 3248 3129 c 0
 3082.42578125 3129 2948 2994.57421875 2948 2829 c 0
 2948 2780.90332031 2959.34277344 2735.43554688 2979.49707031 2695.12695312 c 0
 3147.37109375 2359.37988281 3267.75683594 2024.9453125 3341.04492188 1711.43652344 c 0
 3407.77441406 1425.97949219 3481.69433594 952.223632812 3372.11328125 538.282226562 c 0
 3315.37011719 323.93359375 3203.32714844 105.364257812 2984.6953125 -0.8330078125 c 0
 2895.15722656 -44.32421875 2785.60058594 -71 2648 -71 c 0
 2507.62597656 -71 2460.9921875 -25.3974609375 2432.88574219 13.046875 c 0
 2416.33496094 35.6845703125 2369.44628906 105.705078125 2342.984375 283.08203125 c 0
 2264.98925781 805.892578125 2437.40234375 1654.234375 2346.42871094 2264.046875 c 0
 2319.73242188 2442.98925781 2243.82714844 2816.96191406 1914.08691406 3011.85449219 c 0
 1777.76367188 3092.42675781 1618.41699219 3129 1448 3129 c 0
EndSplineSet
Validated: 41
EndChar

StartChar: O
Encoding: 79 79 47
Width: 4096
Flags: W
HStem: -39.5029 568.503<3607.66 3860.09>
VStem: 148 600<628.716 1821.21>
LayerCount: 2
Fore
SplineSet
3948 229 m 0
 3948 394.57421875 3813.57421875 529 3648 529 c 0
 3599.90332031 529 3554.43554688 517.657226562 3514.12695312 497.502929688 c 0
 3174.41113281 327.645507812 2837.01367188 197.022460938 2523.36132812 115.553710938 c 0
 2281.86816406 52.8291015625 1540.66210938 -118.778320312 1109.27050781 226.3359375 c 0
 1022.13867188 296.040039062 908.551757812 416.814453125 832.206054688 640.936523438 c 0
 779.888671875 794.51953125 748 989.009765625 748 1229 c 0
 748 1512.10449219 792.33203125 1811.81347656 936.4921875 2037.94335938 c 0
 986.408203125 2116.24316406 1043.6171875 2179.14257812 1109.27050781 2231.6640625 c 0
 1573.86621094 2603.34179688 2515.19238281 2459.96386719 3514.12695312 1960.49707031 c 0
 3554.43554688 1940.34277344 3599.90332031 1929 3648 1929 c 0
 3813.57421875 1929 3948 2063.42578125 3948 2229 c 0
 3948 2346.47851562 3880.328125 2448.27539062 3781.87304688 2497.50292969 c 0
 3423.09472656 2676.89257812 2621.44921875 3041 1830.40039062 3041 c 0
 1425.63378906 3041 1040.56835938 2944.96191406 734.877929688 2700.40917969 c 0
 423.50390625 2451.31054688 148 2010.21484375 148 1229 c 0
 148 907.455078125 193.48828125 469.431640625 430.184570312 98.1474609375 c 0
 678.149414062 -290.8125 1122.67480469 -583 1830.40039062 -583 c 0
 2101.56933594 -583 2384.52734375 -540.533203125 2674.421875 -465.236328125 c 0
 3036.76464844 -371.12109375 3410.47753906 -225.200195312 3781.87304688 -39.5029296875 c 0
 3880.328125 9.724609375 3948 111.521484375 3948 229 c 0
EndSplineSet
Validated: 41
EndChar

StartChar: P
Encoding: 80 80 48
Width: 4096
Flags: HW
LayerCount: 2
Fore
SplineSet
2348 1829 m 2
 2348 1994.57421875 2213.57421875 2129 2048 2129 c 0
 1882.42578125 2129 1748 1994.57421875 1748 1829 c 2
 1748 -52.2421875 l 1
 1427.13671875 -9.3515625 1193.64453125 104.883789062 1045.3359375 290.270507812 c 0
 673.658203125 754.866210938 817.036132812 1696.19238281 1316.50292969 2695.12695312 c 0
 1336.65722656 2735.43554688 1348 2780.90332031 1348 2829 c 0
 1348 2994.57421875 1213.57421875 3129 1048 3129 c 0
 930.521484375 3129 828.724609375 3061.328125 779.497070312 2962.87304688 c 0
 600.107421875 2604.09472656 236 1802.44921875 236 1011.40039062 c 0
 236 606.633789062 332.038085938 221.568359375 576.590820312 -84.1220703125 c 0
 825.689453125 -395.49609375 1266.78515625 -671 2048 -671 c 0
 2369.54492188 -671 2807.56835938 -625.51171875 3178.85253906 -388.815429688 c 0
 3567.8125 -140.850585938 3860 303.674804688 3860 1011.40039062 c 0
 3860 1282.56933594 3817.53320312 1565.52734375 3742.23632812 1855.421875 c 0
 3649.06347656 2214.13476562 3474.83398438 2570.41503906 3322.07128906 2951.71191406 c 0
 2326.60449219 5436.39550781 2326.60449219 5436.39550781 2326.60449219 5436.39550781 c 2
 2282.33984375 5546.88085938 2174.22070312 5625 2048 5625 c 0
 1882.42578125 5625 1748 5490.57421875 1748 5325 c 0
 1748 5285.64648438 1755.59375 5248.05175781 1769.39550781 5213.60449219 c 2
 2769.39550781 2717.60449219 l 2
 2772.4609375 2709.95214844 2775.83300781 2702.45410156 2779.49707031 2695.12695312 c 0
 2949.35449219 2355.41113281 3079.97753906 2018.01367188 3161.44628906 1704.36132812 c 0
 3224.17089844 1462.86816406 3395.77832031 721.662109375 3050.6640625 290.270507812 c 0
 2951.72167969 166.591796875 2759.9375 2.822265625 2348 -52.2421875 c 1
 2348 1829 l 2
EndSplineSet
Validated: 41
EndChar

StartChar: Q
Encoding: 81 81 49
Width: 4096
Flags: HW
LayerCount: 2
Fore
SplineSet
3002.15136719 2825.234375 m 1
 2650.50097656 2943.77148438 2239.08203125 3041 1830.40039062 3041 c 0
 1425.63378906 3041 1040.56835938 2944.96191406 734.877929688 2700.40917969 c 0
 423.50390625 2451.31054688 148 2010.21484375 148 1229 c 0
 148 907.455078125 193.48828125 469.431640625 430.184570312 98.1474609375 c 0
 678.149414062 -290.8125 1122.67480469 -583 1830.40039062 -583 c 0
 2101.56933594 -583 2384.52734375 -540.533203125 2674.421875 -465.236328125 c 0
 3036.76464844 -371.12109375 3410.47753906 -225.200195312 3781.87304688 -39.5029296875 c 0
 3880.328125 9.724609375 3948 111.521484375 3948 229 c 0
 3948 394.57421875 3813.57421875 529 3648 529 c 0
 3599.90332031 529 3554.43554688 517.657226562 3514.12695312 497.502929688 c 0
 3280.36621094 380.623046875 2833.17382812 174.62109375 2348 74.64453125 c 1
 2348 2383.35546875 l 1
 2622.8046875 2326.72753906 3020.15429688 2207.48339844 3514.12695312 1960.49707031 c 0
 3554.43554688 1940.34277344 3599.90332031 1929 3648 1929 c 0
 3813.57421875 1929 3948 2063.42578125 3948 2229 c 0
 3948 2278.51660156 3935.97753906 2325.24804688 3914.69433594 2366.43066406 c 2
 2314.69433594 5462.43066406 l 2
 2264.81054688 5558.95507812 2164.05761719 5625 2048 5625 c 0
 1882.42578125 5625 1748 5490.57421875 1748 5325 c 0
 1748 5275.48339844 1760.02246094 5228.75195312 1781.30566406 5187.56933594 c 2
 3002.15136719 2825.234375 l 1
748 1229 m 0
 748 1512.10449219 792.33203125 1811.81347656 936.4921875 2037.94335938 c 0
 1025.3359375 2177.30566406 1227.69628906 2416.08007812 1748 2439.20214844 c 1
 1748 18.7978515625 l 1
 1227.16699219 41.943359375 1025.00488281 281.213867188 936.4921875 420.056640625 c 0
 791.299804688 647.806640625 748 949.208007812 748 1229 c 0
EndSplineSet
Validated: 9
EndChar

StartChar: R
Encoding: 82 82 50
Width: 4096
Flags: HW
LayerCount: 2
Fore
SplineSet
1348 2829 m 0
 1348 2994.57421875 1213.57421875 3129 1048 3129 c 0
 930.521484375 3129 828.724609375 3061.328125 779.497070312 2962.87304688 c 0
 600.107421875 2604.09472656 236 1802.44921875 236 1011.40039062 c 0
 236 606.633789062 332.038085938 221.568359375 576.590820312 -84.1220703125 c 0
 825.689453125 -395.49609375 1266.78515625 -671 2048 -671 c 0
 2369.54492188 -671 2807.56835938 -625.51171875 3178.85253906 -388.815429688 c 0
 3567.8125 -140.850585938 3860 303.674804688 3860 1011.40039062 c 0
 3860 1282.56933594 3817.53320312 1565.52734375 3742.23632812 1855.421875 c 0
 3649.06347656 2214.13476562 3474.83398438 2570.41503906 3322.07128906 2951.71191406 c 0
 2326.60449219 5436.39550781 2326.60449219 5436.39550781 2326.60449219 5436.39550781 c 2
 2282.33984375 5546.88085938 2174.22070312 5625 2048 5625 c 0
 1882.42578125 5625 1748 5490.57421875 1748 5325 c 0
 1748 5285.64648438 1755.59375 5248.05175781 1769.39550781 5213.60449219 c 2
 2769.39550781 2717.60449219 l 2
 2772.4609375 2709.95214844 2775.83300781 2702.45410156 2779.49707031 2695.12695312 c 0
 2949.35449219 2355.41113281 3079.97753906 2018.01367188 3161.44628906 1704.36132812 c 0
 3224.17089844 1462.86816406 3395.77832031 721.662109375 3050.6640625 290.270507812 c 0
 2980.95996094 203.138671875 2860.18554688 89.5517578125 2636.06347656 13.2060546875 c 0
 2482.48046875 -39.111328125 2287.99023438 -71 2048 -71 c 0
 1764.89550781 -71 1465.18652344 -26.66796875 1239.05664062 117.4921875 c 0
 1160.75683594 167.408203125 1097.85742188 224.6171875 1045.3359375 290.270507812 c 0
 673.658203125 754.866210938 817.036132812 1696.19238281 1316.50292969 2695.12695312 c 0
 1336.65722656 2735.43554688 1348 2780.90332031 1348 2829 c 0
EndSplineSet
Validated: 41
EndChar

StartChar: S
Encoding: 83 83 51
Width: 4096
Flags: W
HStem: 2529 600<1446.25 2640.21>
VStem: 236 601.798<1529 1956.11> 779.497 568.503<-583.09 -330.664> 3258.2 601.798<1529 1961.16>
LayerCount: 2
Fore
SplineSet
1748 -2867 m 0xb0
 1748 -3032.57421875 1882.42578125 -3167 2048 -3167 c 0
 2174.22070312 -3167 2282.33984375 -3088.88085938 2326.60449219 -2978.39550781 c 2
 3322.07128906 -493.711914062 l 1
 3500.52441406 -135.221679688 3860 660.677734375 3860 1446.59960938 c 0
 3860 1851.36621094 3763.96191406 2236.43164062 3519.40917969 2542.12207031 c 0
 3270.31054688 2853.49609375 2829.21484375 3129 2048 3129 c 0
 1726.45507812 3129 1288.43164062 3083.51171875 917.147460938 2846.81542969 c 0
 528.1875 2598.85058594 236 2154.32519531 236 1446.59960938 c 0xd0
 236 1175.43066406 278.466796875 892.47265625 353.763671875 602.578125 c 0
 447.87890625 240.235351562 593.799804688 -133.477539062 779.497070312 -504.873046875 c 0
 828.724609375 -603.328125 930.521484375 -671 1048 -671 c 0
 1213.57421875 -671 1348 -536.57421875 1348 -371 c 0
 1348 -322.903320312 1336.65722656 -277.435546875 1316.50292969 -237.126953125 c 0
 1199.62304688 -3.3662109375 993.62109375 443.826171875 893.64453125 929 c 1
 3202.35546875 929 l 1
 3145.72753906 654.1953125 3026.48339844 256.845703125 2779.49707031 -237.126953125 c 0
 2775.83300781 -244.454101562 2772.4609375 -251.952148438 2769.39550781 -259.604492188 c 2
 1769.39550781 -2755.60449219 l 2
 1755.59375 -2790.05175781 1748 -2827.64648438 1748 -2867 c 0xb0
2048 2529 m 0
 2331.10449219 2529 2630.81347656 2484.66796875 2856.94335938 2340.5078125 c 0
 2996.30566406 2251.6640625 3235.08007812 2049.30371094 3258.20214844 1529 c 1
 837.797851562 1529 l 1
 860.943359375 2049.83300781 1100.21386719 2251.99511719 1239.05664062 2340.5078125 c 0
 1466.80664062 2485.70019531 1768.20800781 2529 2048 2529 c 0
EndSplineSet
Validated: 9
EndChar

StartChar: T
Encoding: 84 84 52
Width: 4096
Flags: HW
LayerCount: 2
Fore
SplineSet
2048 5625 m 0
 1882.42578125 5625 1748 5490.57421875 1748 5325 c 0
 1748 5285.64648438 1755.59375 5248.05175781 1769.39550781 5213.60449219 c 2
 2769.39550781 2717.60449219 l 2
 2772.4609375 2709.95214844 2775.83300781 2702.45410156 2779.49707031 2695.12695312 c 0
 2896.37695312 2461.36621094 3102.37890625 2014.17382812 3202.35546875 1529 c 1
 893.64453125 1529 l 1
 950.272460938 1803.8046875 1069.51660156 2201.15429688 1316.50292969 2695.12695312 c 0
 1336.65722656 2735.43554688 1348 2780.90332031 1348 2829 c 0
 1348 2994.57421875 1213.57421875 3129 1048 3129 c 0
 930.521484375 3129 828.724609375 3061.328125 779.497070312 2962.87304688 c 0
 600.107421875 2604.09472656 236 1802.44921875 236 1011.40039062 c 0
 236 606.633789062 332.038085938 221.568359375 576.590820312 -84.1220703125 c 0
 825.689453125 -395.49609375 1266.78515625 -671 2048 -671 c 0
 2369.54492188 -671 2807.56835938 -625.51171875 3178.85253906 -388.815429688 c 0
 3567.8125 -140.850585938 3860 303.674804688 3860 1011.40039062 c 0
 3860 1282.56933594 3817.53320312 1565.52734375 3742.23632812 1855.421875 c 0
 3649.06347656 2214.13476562 3474.83398438 2570.41503906 3322.07128906 2951.71191406 c 0
 2326.60449219 5436.39550781 2326.60449219 5436.39550781 2326.60449219 5436.39550781 c 2
 2282.33984375 5546.88085938 2174.22070312 5625 2048 5625 c 0
2048 -71 m 0
 1764.89550781 -71 1465.18652344 -26.66796875 1239.05664062 117.4921875 c 0
 1099.69433594 206.3359375 860.919921875 408.696289062 837.797851562 929 c 1
 3258.20214844 929 l 1
 3235.05664062 408.166992188 2995.78613281 206.004882812 2856.94335938 117.4921875 c 0
 2629.19335938 -27.7001953125 2327.79199219 -71 2048 -71 c 0
EndSplineSet
Validated: 9
EndChar

StartChar: U
Encoding: 85 85 53
Width: 4096
Flags: HW
LayerCount: 2
Fore
SplineSet
1048 -671 m 0
 1213.57421875 -671 1348 -536.57421875 1348 -371 c 0
 1348 -322.903320312 1336.65722656 -277.435546875 1316.50292969 -237.126953125 c 0
 1146.64550781 102.588867188 1016.02246094 439.986328125 934.553710938 753.638671875 c 0
 871.829101562 995.131835938 700.221679688 1736.33789062 1045.3359375 2167.72949219 c 0
 1115.04003906 2254.86132812 1235.81445312 2368.44824219 1459.93652344 2444.79394531 c 0
 1613.51953125 2497.11132812 1808.00976562 2529 2048 2529 c 0
 2331.10449219 2529 2630.81347656 2484.66796875 2856.94335938 2340.5078125 c 0
 2935.24316406 2290.59179688 2998.14257812 2233.3828125 3050.6640625 2167.72949219 c 0
 3422.34179688 1703.13378906 3278.96386719 761.807617188 2779.49707031 -237.126953125 c 0
 2759.34277344 -277.435546875 2748 -322.903320312 2748 -371 c 0
 2748 -536.57421875 2882.42578125 -671 3048 -671 c 0
 3165.47851562 -671 3267.27539062 -603.328125 3316.50292969 -504.873046875 c 0
 3495.89257812 -146.094726562 3860 655.55078125 3860 1446.59960938 c 0
 3860 1851.36621094 3763.96191406 2236.43164062 3519.40917969 2542.12207031 c 0
 3270.31054688 2853.49609375 2829.21484375 3129 2048 3129 c 0
 1726.45507812 3129 1288.43164062 3083.51171875 917.147460938 2846.81542969 c 0
 528.1875 2598.85058594 236 2154.32519531 236 1446.59960938 c 0
 236 1175.43066406 278.466796875 892.47265625 353.763671875 602.578125 c 0
 447.87890625 240.235351562 593.799804688 -133.477539062 779.497070312 -504.873046875 c 0
 828.724609375 -603.328125 930.521484375 -671 1048 -671 c 0
EndSplineSet
Validated: 41
EndChar

StartChar: V
Encoding: 86 86 54
Width: 4096
Flags: HW
LayerCount: 2
Fore
SplineSet
1748 629 m 2
 1748 463.42578125 1882.42578125 329 2048 329 c 0
 2213.57421875 329 2348 463.42578125 2348 629 c 2
 2348 2510.2421875 l 1
 2668.86328125 2467.3515625 2902.35546875 2353.11621094 3050.6640625 2167.72949219 c 0
 3422.34179688 1703.13378906 3278.96386719 761.807617188 2779.49707031 -237.126953125 c 0
 2759.34277344 -277.435546875 2748 -322.903320312 2748 -371 c 0
 2748 -536.57421875 2882.42578125 -671 3048 -671 c 0
 3165.47851562 -671 3267.27539062 -603.328125 3316.50292969 -504.873046875 c 0
 3495.89257812 -146.094726562 3860 655.55078125 3860 1446.59960938 c 0
 3860 1851.36621094 3763.96191406 2236.43164062 3519.40917969 2542.12207031 c 0
 3308.26953125 2806.04785156 2950.74707031 3053.27734375 2348 3114.43847656 c 1
 2348 5325 l 2
 2348 5490.57421875 2213.57421875 5625 2048 5625 c 0
 1882.42578125 5625 1748 5490.57421875 1748 5325 c 2
 1748 3114.43847656 l 1
 1462.19433594 3085.4375 932.39453125 2986.87695312 576.590820312 2542.12207031 c 0
 332.038085938 2236.43164062 236 1851.36621094 236 1446.59960938 c 0
 236 1175.43066406 278.466796875 892.47265625 353.763671875 602.578125 c 0
 447.87890625 240.235351562 593.799804688 -133.477539062 779.497070312 -504.873046875 c 0
 828.724609375 -603.328125 930.521484375 -671 1048 -671 c 0
 1213.57421875 -671 1348 -536.57421875 1348 -371 c 0
 1348 -322.903320312 1336.65722656 -277.435546875 1316.50292969 -237.126953125 c 0
 1146.64550781 102.588867188 1016.02246094 439.986328125 934.553710938 753.638671875 c 0
 871.829101562 995.131835938 700.221679688 1736.33789062 1045.3359375 2167.72949219 c 0
 1144.27832031 2291.40820312 1336.0625 2455.17773438 1748 2510.2421875 c 1
 1748 629 l 2
EndSplineSet
Validated: 41
EndChar

StartChar: W
Encoding: 87 87 55
Width: 4096
Flags: W
HStem: -39.5029 568.503<3607.66 3860.09> 2825.23 21G<2826.33 2991.82>
VStem: 148 600<628.716 1821.21>
LayerCount: 2
Fore
SplineSet
3002.15136719 2825.234375 m 1
 2650.50097656 2943.77148438 2239.08203125 3041 1830.40039062 3041 c 0
 1425.63378906 3041 1040.56835938 2944.96191406 734.877929688 2700.40917969 c 0
 423.50390625 2451.31054688 148 2010.21484375 148 1229 c 0
 148 907.455078125 193.48828125 469.431640625 430.184570312 98.1474609375 c 0
 678.149414062 -290.8125 1122.67480469 -583 1830.40039062 -583 c 0
 2101.56933594 -583 2384.52734375 -540.533203125 2674.421875 -465.236328125 c 0
 3036.76464844 -371.12109375 3410.47753906 -225.200195312 3781.87304688 -39.5029296875 c 0
 3880.328125 9.724609375 3948 111.521484375 3948 229 c 0
 3948 394.57421875 3813.57421875 529 3648 529 c 0
 3599.90332031 529 3554.43554688 517.657226562 3514.12695312 497.502929688 c 0
 3174.41113281 327.645507812 2837.01367188 197.022460938 2523.36132812 115.553710938 c 0
 2281.86816406 52.8291015625 1540.66210938 -118.778320312 1109.27050781 226.3359375 c 0
 1022.13867188 296.040039062 908.551757812 416.814453125 832.206054688 640.936523438 c 0
 779.888671875 794.51953125 748 989.009765625 748 1229 c 0
 748 1512.10449219 792.33203125 1811.81347656 936.4921875 2037.94335938 c 0
 986.408203125 2116.24316406 1043.6171875 2179.14257812 1109.27050781 2231.6640625 c 0
 1573.86621094 2603.34179688 2515.19238281 2459.96386719 3514.12695312 1960.49707031 c 0
 3554.43554688 1940.34277344 3599.90332031 1929 3648 1929 c 0
 3813.57421875 1929 3948 2063.42578125 3948 2229 c 0
 3948 2278.51660156 3935.97753906 2325.24804688 3914.69433594 2366.43066406 c 2
 2314.69433594 5462.43066406 l 2
 2264.81054688 5558.95507812 2164.05761719 5625 2048 5625 c 0
 1882.42578125 5625 1748 5490.57421875 1748 5325 c 0
 1748 5275.48339844 1760.02246094 5228.75195312 1781.30566406 5187.56933594 c 2
 3002.15136719 2825.234375 l 1
EndSplineSet
Validated: 41
Ligature2: "'liga' Consonant Cluster Latin" W H
EndChar

StartChar: X
Encoding: 88 88 56
Width: 4096
Flags: HW
LayerCount: 2
Fore
SplineSet
1748 -2867 m 0
 1748 -3032.57421875 1882.42578125 -3167 2048 -3167 c 0
 2164.05761719 -3167 2264.81054688 -3100.95507812 2314.69433594 -3004.43066406 c 2
 3914.69433594 91.5693359375 l 2
 3935.97753906 132.751953125 3948 179.483398438 3948 229 c 0
 3948 394.57421875 3813.57421875 529 3648 529 c 0
 3599.90332031 529 3554.43554688 517.657226562 3514.12695312 497.502929688 c 0
 3280.36621094 380.623046875 2833.17382812 174.62109375 2348 74.64453125 c 1
 2348 2383.35546875 l 1
 2622.8046875 2326.72753906 3020.15429688 2207.48339844 3514.12695312 1960.49707031 c 0
 3554.43554688 1940.34277344 3599.90332031 1929 3648 1929 c 0
 3813.57421875 1929 3948 2063.42578125 3948 2229 c 0
 3948 2346.47851562 3880.328125 2448.27539062 3781.87304688 2497.50292969 c 0
 3423.09472656 2676.89257812 2621.44921875 3041 1830.40039062 3041 c 0
 1425.63378906 3041 1040.56835938 2944.96191406 734.877929688 2700.40917969 c 0
 423.50390625 2451.31054688 148 2010.21484375 148 1229 c 0
 148 907.455078125 193.48828125 469.431640625 430.184570312 98.1474609375 c 0
 678.149414062 -290.8125 1122.67480469 -583 1830.40039062 -583 c 0
 2143.625 -583 2532.33789062 -525.602539062 3002.15136719 -367.234375 c 1
 1781.30566406 -2729.56933594 l 2
 1760.02246094 -2770.75195312 1748 -2817.48339844 1748 -2867 c 0
748 1229 m 0
 748 1512.10449219 792.33203125 1811.81347656 936.4921875 2037.94335938 c 0
 1025.3359375 2177.30566406 1227.69628906 2416.08007812 1748 2439.20214844 c 1
 1748 18.7978515625 l 1
 1227.16699219 41.943359375 1025.00488281 281.213867188 936.4921875 420.056640625 c 0
 791.299804688 647.806640625 748 949.208007812 748 1229 c 0
EndSplineSet
Validated: 9
EndChar

StartChar: Y
Encoding: 89 89 57
Width: 4096
Flags: W
HStem: -583 601.798<2348 2780.16> 1929 568.503<235.91 488.336> 2439.2 601.798<2348 2775.11>
VStem: 3348 600<636.787 1830.75>
LayerCount: 2
Fore
SplineSet
1093.84863281 -367.234375 m 1xd0
 1445.49902344 -485.771484375 1856.91796875 -583 2265.59960938 -583 c 0
 2670.36621094 -583 3055.43164062 -486.961914062 3361.12207031 -242.409179688 c 0
 3672.49609375 6.689453125 3948 447.78515625 3948 1229 c 0
 3948 1550.54492188 3902.51171875 1988.56835938 3665.81542969 2359.85253906 c 0
 3417.85058594 2748.8125 2973.32519531 3041 2265.59960938 3041 c 0xb0
 1994.43066406 3041 1711.47265625 2998.53320312 1421.578125 2923.23632812 c 0
 1059.23535156 2829.12109375 685.522460938 2683.20019531 314.126953125 2497.50292969 c 0
 215.671875 2448.27539062 148 2346.47851562 148 2229 c 0
 148 2063.42578125 282.42578125 1929 448 1929 c 0
 496.096679688 1929 541.564453125 1940.34277344 581.873046875 1960.49707031 c 0
 815.633789062 2077.37695312 1262.82617188 2283.37890625 1748 2383.35546875 c 1
 1748 74.64453125 l 1
 1473.1953125 131.272460938 1075.84570312 250.516601562 581.873046875 497.502929688 c 0
 541.564453125 517.657226562 496.096679688 529 448 529 c 0
 282.42578125 529 148 394.57421875 148 229 c 0
 148 179.483398438 160.022460938 132.751953125 181.305664062 91.5693359375 c 2
 1781.30566406 -3004.43066406 l 2
 1831.18945312 -3100.95507812 1931.94238281 -3167 2048 -3167 c 0
 2213.57421875 -3167 2348 -3032.57421875 2348 -2867 c 0
 2348 -2817.48339844 2335.97753906 -2770.75195312 2314.69433594 -2729.56933594 c 2
 1093.84863281 -367.234375 l 1xd0
3348 1229 m 0
 3348 945.895507812 3303.66796875 646.186523438 3159.5078125 420.056640625 c 0
 3070.6640625 280.694335938 2868.30371094 41.919921875 2348 18.7978515625 c 1
 2348 2439.20214844 l 1
 2868.83300781 2416.05664062 3070.99511719 2176.78613281 3159.5078125 2037.94335938 c 0
 3304.70019531 1810.19335938 3348 1508.79199219 3348 1229 c 0
EndSplineSet
Validated: 9
Ligature2: "'liga' Consonant Cluster Latin" Y H
EndChar

StartChar: Z
Encoding: 90 90 58
Width: 4096
Flags: W
HStem: 2529 600<1446.25 2640.21>
VStem: 236 601.798<1529 1956.11> 3258.2 601.798<1529 1961.16>
LayerCount: 2
Fore
SplineSet
2048 -3167 m 0
 2213.57421875 -3167 2348 -3032.57421875 2348 -2867 c 0
 2348 -2827.64648438 2340.40625 -2790.05175781 2326.60449219 -2755.60449219 c 2
 1326.60449219 -259.604492188 l 2
 1323.5390625 -251.952148438 1320.16699219 -244.454101562 1316.50292969 -237.126953125 c 0
 1199.62304688 -3.3662109375 993.62109375 443.826171875 893.64453125 929 c 1
 3202.35546875 929 l 1
 3145.72753906 654.1953125 3026.48339844 256.845703125 2779.49707031 -237.126953125 c 0
 2759.34277344 -277.435546875 2748 -322.903320312 2748 -371 c 0
 2748 -536.57421875 2882.42578125 -671 3048 -671 c 0
 3165.47851562 -671 3267.27539062 -603.328125 3316.50292969 -504.873046875 c 0
 3495.89257812 -146.094726562 3860 655.55078125 3860 1446.59960938 c 0
 3860 1851.36621094 3763.96191406 2236.43164062 3519.40917969 2542.12207031 c 0
 3270.31054688 2853.49609375 2829.21484375 3129 2048 3129 c 0
 1726.45507812 3129 1288.43164062 3083.51171875 917.147460938 2846.81542969 c 0
 528.1875 2598.85058594 236 2154.32519531 236 1446.59960938 c 0
 236 1175.43066406 278.466796875 892.47265625 353.763671875 602.578125 c 0
 446.936523438 243.865234375 621.166015625 -112.415039062 773.928710938 -493.711914062 c 0
 1769.39550781 -2978.39550781 1769.39550781 -2978.39550781 1769.39550781 -2978.39550781 c 2
 1813.66015625 -3088.88085938 1921.77929688 -3167 2048 -3167 c 0
2048 2529 m 0
 2331.10449219 2529 2630.81347656 2484.66796875 2856.94335938 2340.5078125 c 0
 2996.30566406 2251.6640625 3235.08007812 2049.30371094 3258.20214844 1529 c 1
 837.797851562 1529 l 1
 860.943359375 2049.83300781 1100.21386719 2251.99511719 1239.05664062 2340.5078125 c 0
 1466.80664062 2485.70019531 1768.20800781 2529 2048 2529 c 0
EndSplineSet
Validated: 9
EndChar

StartChar: bracketleft
Encoding: 91 91 59
Width: 1653
Flags: HW
LayerCount: 2
Fore
SplineSet
1400 -836 m 1
 802 -729.333007812 402 -663.666992188 200 -639 c 1
 200 3256 l 1
 352.666992188 3266.66699219 757 3329.66699219 1413 3445 c 1
 1429 3228 l 1
 1336.33300781 3228 1227 3204.66699219 1101 3158 c 0
 948.333007812 3103.33300781 872 3037.66699219 872 2961 c 2
 872 -344 l 2
 872 -420.666992188 949.666992188 -485 1105 -537 c 0
 1230.33300781 -581 1339.66699219 -602.666992188 1433 -602 c 1
 1400 -836 l 1
EndSplineSet
Validated: 33
EndChar

StartChar: backslash
Encoding: 92 92 60
Width: 3413
Flags: HW
LayerCount: 2
Fore
SplineSet
2653 -369 m 1
 2129 -369 l 1
 200 3269 l 1
 724 3269 l 1
 2653 -369 l 1
EndSplineSet
Validated: 1
EndChar

StartChar: bracketright
Encoding: 93 93 61
Width: 1530
Flags: HW
LayerCount: 2
Fore
SplineSet
233 -836 m 1
 831 -729.333007812 1231 -663.666992188 1433 -639 c 1
 1433 3256 l 1
 1280.33300781 3266.66699219 876.333007812 3329.66699219 221 3445 c 1
 204 3228 l 1
 296.666992188 3228 406 3204.66699219 532 3158 c 0
 684.666992188 3103.33300781 761 3037.66699219 761 2961 c 2
 761 -344 l 2
 761 -420.666992188 683.333007812 -485 528 -537 c 0
 402.666992188 -581 293.333007812 -602.666992188 200 -602 c 1
 233 -836 l 1
EndSplineSet
Validated: 41
EndChar

StartChar: asciicircum
Encoding: 94 94 62
Width: 2288
Flags: HW
LayerCount: 2
Fore
SplineSet
2060 1114 m 1
 1580 1114 l 1
 1130 2126 l 1
 675 1114 l 1
 200 1114 l 1
 913 2621 l 1
 1347 2621 l 1
 2060 1114 l 1
EndSplineSet
Validated: 1
EndChar

StartChar: underscore
Encoding: 95 95 63
Width: 2750
Flags: HW
LayerCount: 2
Fore
SplineSet
2248 -569 m 1
 200 -569 l 1
 200 -311 l 1
 2248 -311 l 1
 2248 -569 l 1
EndSplineSet
Validated: 1
EndChar

StartChar: grave
Encoding: 96 96 64
Width: 1558
Flags: HW
LayerCount: 2
Fore
SplineSet
1240 2159 m 1
 962 2159 l 1
 417 2478 l 2
 272.333007812 2562.66699219 200 2650 200 2740 c 0
 200 2808 225.166992188 2861.83300781 275.5 2901.5 c 128
 325.833007812 2941.16699219 386.666992188 2961 458 2961 c 0
 575.333007812 2961 672.333007812 2910.66699219 749 2810 c 2
 1240 2159 l 1
EndSplineSet
Validated: 1
EndChar

StartChar: a
Encoding: 97 97 65
Width: 4096
Flags: HW
HStem: -271 600<1148 2948>
VStem: 548 600<329 2729> 2948 600<329 2729>
LayerCount: 2
Fore
SplineSet
548 -271 m 1
 548 2729 l 1
 1148 2729 l 1
 1148 329 l 1
 2948 329 l 1
 2948 2729 l 1
 3548 2729 l 1
 3548 -271 l 1
 548 -271 l 1
EndSplineSet
Validated: 1
EndChar

StartChar: b
Encoding: 98 98 66
Width: 4096
Flags: HW
LayerCount: 2
Fore
SplineSet
1748 5325 m 1
 2348 5325 l 1
 1148 2729 l 1
 1148 329 l 1
 1748 329 l 1
 1748 2729 l 1
 2348 2729 l 1
 2348 329 l 1
 2948 329 l 1
 2948 2729 l 1
 3548 2729 l 1
 3548 329 l 1
 3548 -271 l 1
 548 -271 l 1
 548 2729 l 1
 1748 5325 l 1
EndSplineSet
Validated: 1
EndChar

StartChar: c
Encoding: 99 99 67
Width: 4096
Flags: HW
LayerCount: 2
Fore
SplineSet
2348 -2867 m 1
 1748 -2867 l 1
 2948 -271 l 1
 548 -271 l 1
 548 2729 l 1
 1148 2729 l 1
 3548 2729 l 1
 3548 2129 l 1
 1148 2129 l 1
 1148 1529 l 1
 3548 1529 l 1
 3548 929 l 1
 1148 929 l 1
 1148 329 l 1
 3548 329 l 1
 3548 -271 l 1
 2348 -2867 l 1
EndSplineSet
Validated: 1
Ligature2: "'liga' Consonant Cluster Latin" t s
EndChar

StartChar: d
Encoding: 100 100 68
Width: 4096
Flags: HW
LayerCount: 2
Fore
SplineSet
1748 5325 m 1
 2348 5325 l 1
 1148 2729 l 1
 1148 1529 l 1
 2948 1529 l 1
 2948 2729 l 1
 3548 2729 l 1
 3548 -271 l 1
 548 -271 l 1
 548 2729 l 1
 1748 5325 l 1
1148 929 m 1
 1148 329 l 1
 2948 329 l 1
 2948 929 l 1
 1148 929 l 1
EndSplineSet
Validated: 1
EndChar

StartChar: e
Encoding: 101 101 69
Width: 4096
Flags: HW
HStem: -271 600<1148 3548> 929 600<1148 3548> 2129 600<1148 3548>
VStem: 548 600<329 929 1529 2129>
LayerCount: 2
Fore
SplineSet
548 2729 m 1
 3548 2729 l 1
 3548 2129 l 1
 1148 2129 l 1
 1148 1529 l 1
 3548 1529 l 1
 3548 929 l 1
 1148 929 l 1
 1148 329 l 1
 3548 329 l 1
 3548 -271 l 1
 1148 -271 l 1
 548 -271 l 1
 548 2729 l 1
EndSplineSet
Validated: 1
EndChar

StartChar: f
Encoding: 102 102 70
Width: 4096
Flags: HW
LayerCount: 2
Fore
SplineSet
3548 2729 m 1
 3548 -271 l 1
 548 -271 l 1
 548 329 l 1
 548 2729 l 1
 1148 2729 l 1
 1148 329 l 1
 1748 329 l 1
 1748 5325 l 1
 2348 5325 l 1
 2348 329 l 1
 2948 329 l 1
 2948 2729 l 1
 3548 2729 l 1
EndSplineSet
Validated: 1
EndChar

StartChar: g
Encoding: 103 103 71
Width: 4096
Flags: HW
LayerCount: 2
Fore
SplineSet
1748 -2867 m 1
 548 -271 l 1
 548 2729 l 1
 1548 2729 2548 2729 3548 2729 c 1
 3548 2129 l 1
 3548 -271 l 1
 2948 -271 l 1
 2948 2129 l 1
 2348 2129 l 1
 2348 -271 l 1
 1748 -271 l 1
 1748 2129 l 1
 1148 2129 l 1
 1148 -271 l 1
 2348 -2867 l 1
 1748 -2867 l 1
EndSplineSet
Validated: 1
EndChar

StartChar: h
Encoding: 104 104 72
Width: 4096
Flags: W
HStem: -271 600<548 2948> 2129 600<1148 2948> 5305 20G<1738.76 2348> 5305 20G<1738.76 2348>
VStem: 2948 600<329 2129>
LayerCount: 2
Fore
SplineSet
1748 5325 m 1xe8
 2348 5325 l 1
 1148 2729 l 1
 3548 2729 l 1
 3548 -271 l 1
 548 -271 l 1
 548 329 l 1
 2948 329 l 1
 2948 2129 l 1
 548 2129 l 1
 548 2729 l 1
 1748 5325 l 1xe8
EndSplineSet
Validated: 1
EndChar

StartChar: i
Encoding: 105 105 73
Width: 4096
Flags: W
HStem: -271 600<1148 1748 2348 2948> 2709 20G<548 1148 1748 2348 2948 3548>
VStem: 548 600<329 2729> 1748 600<329 2729> 2948 600<329 2729>
CounterMasks: 1 38
LayerCount: 2
Fore
SplineSet
548 -271 m 1
 548 2729 l 1
 1148 2729 l 1
 1148 329 l 1
 1748 329 l 1
 1748 2729 l 1
 2348 2729 l 1
 2348 329 l 1
 2948 329 l 1
 2948 2729 l 1
 3548 2729 l 1
 3548 -271 l 1
 548 -271 l 1
EndSplineSet
Validated: 1
EndChar

StartChar: j
Encoding: 106 106 74
Width: 4096
Flags: HW
LayerCount: 2
Fore
SplineSet
1748 5325 m 1
 2348 5325 l 1
 1148 2729 l 1
 3548 2729 l 1
 3548 -271 l 1
 548 -271 l 1
 548 329 l 1
 1748 329 l 1
 1748 2129 l 1
 548 2129 l 1
 548 2729 l 1
 1748 5325 l 1
2348 2129 m 1
 2348 329 l 1
 2948 329 l 1
 2948 2129 l 1
 2348 2129 l 1
EndSplineSet
Validated: 1
EndChar

StartChar: k
Encoding: 107 107 75
Width: 4096
Flags: HW
LayerCount: 2
Fore
SplineSet
2348 -2867 m 1
 1748 -2867 l 1
 2948 -271 l 1
 2948 2129 l 1
 2348 2129 l 1
 2348 -271 l 1
 1748 -271 l 1
 1748 2129 l 1
 1148 2129 l 1
 1148 -271 l 1
 548 -271 l 1
 548 2129 l 1
 548 2729 l 1
 1548 2729 2548 2729 3548 2729 c 1
 3548 -271 l 1
 2348 -2867 l 1
EndSplineSet
Validated: 1
EndChar

StartChar: l
Encoding: 108 108 76
Width: 4096
Flags: HW
LayerCount: 2
Fore
SplineSet
1748 5325 m 1
 2348 5325 l 1
 1148 2729 l 1
 1148 329 l 1
 2948 329 l 1
 2948 2729 l 1
 3548 2729 l 1
 3548 -271 l 1
 548 -271 l 1
 548 2729 l 1
 1748 5325 l 1
EndSplineSet
Validated: 1
EndChar

StartChar: m
Encoding: 109 109 77
Width: 4096
Flags: HW
LayerCount: 2
Fore
SplineSet
1748 5325 m 1
 2348 5325 l 1
 1148 2729 l 1
 1148 329 l 1
 1748 329 l 1
 1748 2729 l 1
 3548 2729 l 1
 3548 -271 l 1
 2948 -271 l 1
 2948 2129 l 1
 2348 2129 l 1
 2348 -271 l 1
 548 -271 l 1
 548 2729 l 1
 1748 5325 l 1
EndSplineSet
Validated: 1
EndChar

StartChar: n
Encoding: 110 110 78
Width: 4096
Flags: HW
LayerCount: 2
Fore
SplineSet
1748 -2867 m 1
 548 -271 l 1
 548 2729 l 1
 2348 2729 l 1
 2348 329 l 1
 2948 329 l 1
 2948 2729 l 1
 3548 2729 l 1
 3548 -271 l 1
 1748 -271 l 1
 1748 2129 l 1
 1148 2129 l 1
 1148 -271 l 1
 2348 -2867 l 1
 1748 -2867 l 1
EndSplineSet
Validated: 1
EndChar

StartChar: o
Encoding: 111 111 79
Width: 4096
Flags: W
HStem: -271 600<1148 3548> 2129 600<1148 3548>
VStem: 548 600<329 2129>
LayerCount: 2
Fore
SplineSet
548 2729 m 1
 3548 2729 l 1
 3548 2129 l 1
 1148 2129 l 1
 1148 329 l 1
 3548 329 l 1
 3548 -271 l 1
 1148 -271 l 1
 548 -271 l 1
 548 2729 l 1
EndSplineSet
Validated: 1
EndChar

StartChar: p
Encoding: 112 112 80
Width: 4096
Flags: HW
LayerCount: 2
Fore
SplineSet
2348 5325 m 1
 3548 2729 l 1
 3548 -271 l 1
 548 -271 l 1
 548 329 l 1
 548 2729 l 1
 1148 2729 l 1
 1148 329 l 1
 1748 329 l 1
 1748 2729 l 1
 2348 2729 l 1
 2348 329 l 1
 2948 329 l 1
 2948 2729 l 1
 1748 5325 l 1
 2348 5325 l 1
EndSplineSet
Validated: 1
EndChar

StartChar: q
Encoding: 113 113 81
Width: 4096
Flags: HW
LayerCount: 2
Fore
SplineSet
2348 5325 m 1
 3548 2729 l 1
 3548 2129 l 1
 2348 2129 l 1
 2348 329 l 1
 3548 329 l 1
 3548 -271 l 1
 548 -271 l 1
 548 2729 l 1
 2948 2729 l 1
 1748 5325 l 1
 2348 5325 l 1
1748 2129 m 1
 1148 2129 l 1
 1148 329 l 1
 1748 329 l 1
 1748 2129 l 1
EndSplineSet
Validated: 1
EndChar

StartChar: r
Encoding: 114 114 82
Width: 4096
Flags: HW
LayerCount: 2
Fore
SplineSet
2348 5325 m 1
 3548 2729 l 1
 3548 -271 l 1
 548 -271 l 1
 548 2729 l 1
 1148 2729 l 1
 1148 329 l 1
 2948 329 l 1
 2948 2729 l 1
 1748 5325 l 1
 2348 5325 l 1
EndSplineSet
Validated: 1
EndChar

StartChar: s
Encoding: 115 115 83
Width: 4096
Flags: W
HStem: -271 21G<548 1148> 929 600<1148 2948> 2129 600<1148 2948>
VStem: 548 600<-271 929 1529 2129> 2948 600<-271 929 1529 2129>
LayerCount: 2
Fore
SplineSet
2348 -2867 m 1
 1748 -2867 l 1
 2948 -271 l 1
 2948 929 l 1
 1148 929 l 1
 1148 -271 l 1
 548 -271 l 1
 548 2729 l 1
 3548 2729 l 1
 3548 -271 l 1
 2348 -2867 l 1
2948 1529 m 1
 2948 2129 l 1
 1148 2129 l 1
 1148 1529 l 1
 2948 1529 l 1
EndSplineSet
Validated: 1
EndChar

StartChar: t
Encoding: 116 116 84
Width: 4096
Flags: HW
LayerCount: 2
Fore
SplineSet
2348 5325 m 1
 3548 2729 l 1
 3548 -271 l 1
 548 -271 l 1
 548 2729 l 1
 1148 2729 l 1
 1148 1529 l 1
 2948 1529 l 1
 2948 2729 l 1
 1748 5325 l 1
 2348 5325 l 1
2948 929 m 1
 1148 929 l 1
 1148 329 l 1
 2948 329 l 1
 2948 929 l 1
EndSplineSet
Validated: 1
EndChar

StartChar: u
Encoding: 117 117 85
Width: 4096
Flags: HW
LayerCount: 2
Fore
SplineSet
3548 2729 m 1
 3548 -271 l 1
 2948 -271 l 1
 2948 2129 l 1
 1148 2129 l 1
 1148 -271 l 1
 548 -271 l 1
 548 2129 l 1
 548 2729 l 1
 3548 2729 l 1
EndSplineSet
Validated: 1
EndChar

StartChar: v
Encoding: 118 118 86
Width: 4096
Flags: HW
LayerCount: 2
Fore
SplineSet
1748 5325 m 1
 2348 5325 l 1
 2348 2729 l 1
 3548 2729 l 1
 3548 -271 l 1
 2948 -271 l 1
 2948 2129 l 1
 2348 2129 l 1
 2348 -271 l 1
 1748 -271 l 1
 1748 2129 l 1
 1148 2129 l 1
 1148 -271 l 1
 548 -271 l 1
 548 2729 l 1
 1748 2729 l 1
 1748 5325 l 1
EndSplineSet
Validated: 1
EndChar

StartChar: w
Encoding: 119 119 87
Width: 4096
Flags: HW
LayerCount: 2
Fore
SplineSet
2348 5325 m 1
 3548 2729 l 1
 3548 2129 l 1
 1148 2129 l 1
 1148 329 l 1
 3548 329 l 1
 3548 -271 l 1
 548 -271 l 1
 548 2729 l 1
 2948 2729 l 1
 1748 5325 l 1
 2348 5325 l 1
EndSplineSet
Validated: 1
Ligature2: "'liga' Consonant Cluster Latin" w h
EndChar

StartChar: x
Encoding: 120 120 88
Width: 4096
Flags: W
HStem: -271 600<1148 1748 2348 2948> 2129 600<1148 1748 2348 3548>
VStem: 548 600<329 2129> 1748 600<329 2129>
LayerCount: 2
Fore
SplineSet
2348 -2867 m 1
 1748 -2867 l 1
 2948 -271 l 1
 548 -271 l 1
 548 2729 l 1
 3548 2729 l 1
 3548 2129 l 1
 2348 2129 l 1
 2348 329 l 1
 3548 329 l 1
 3548 -271 l 1
 2348 -2867 l 1
1748 329 m 1
 1748 2129 l 1
 1148 2129 l 1
 1148 329 l 1
 1748 329 l 1
EndSplineSet
Validated: 1
EndChar

StartChar: y
Encoding: 121 121 89
Width: 4096
Flags: HW
LayerCount: 2
Fore
SplineSet
1748 -2867 m 1
 548 -271 l 1
 548 329 l 1
 1748 329 l 1
 1748 2129 l 1
 548 2129 l 1
 548 2729 l 1
 3548 2729 l 1
 3548 -271 l 1
 1148 -271 l 1
 2348 -2867 l 1
 1748 -2867 l 1
2348 329 m 1
 2948 329 l 1
 2948 2129 l 1
 2348 2129 l 1
 2348 329 l 1
EndSplineSet
Validated: 1
Ligature2: "'liga' Consonant Cluster Latin" y h
EndChar

StartChar: z
Encoding: 122 122 90
Width: 4096
Flags: HW
LayerCount: 2
Fore
SplineSet
1748 -2867 m 1
 548 -271 l 1
 548 2729 l 1
 3548 2729 l 1
 3548 -271 l 1
 2948 -271 l 1
 2948 929 l 1
 1148 929 l 1
 1148 -271 l 1
 2348 -2867 l 1
 1748 -2867 l 1
1148 1529 m 1
 2948 1529 l 1
 2948 2129 l 1
 1148 2129 l 1
 1148 1529 l 1
EndSplineSet
Validated: 1
EndChar

StartChar: braceleft
Encoding: 123 123 91
Width: 2177
Flags: HW
LayerCount: 2
Fore
SplineSet
1900 -688 m 1
 1561.33300781 -677.333007812 1370 -670.666992188 1326 -668 c 0
 1124 -643.333007812 972.666992188 -586 872 -496 c 0
 749.333007812 -381.333007812 687.666992188 -205 687 33 c 0
 687 103.666992188 693.166992188 208.666992188 705.5 348 c 128
 717.833007812 487.333007812 724 591 724 659 c 0
 724 779 664 896.666992188 544 1012 c 0
 446 1104.66699219 331.333007812 1175.66699219 200 1225 c 1
 328.666992188 1271.66699219 443.333007812 1344 544 1442 c 0
 664 1559.33300781 724 1678 724 1798 c 0
 724 1866 717.833007812 1969.66699219 705.5 2109 c 128
 693.166992188 2248.33300781 687 2353.66699219 687 2425 c 0
 687 2689.66699219 761 2876.66699219 909 2986 c 0
 1037.66699219 3081.33300781 1238.33300781 3129 1511 3129 c 2
 1904 3129 l 1
 1904 2957 l 1
 1849.33300781 2957 1768.83300781 2954.33300781 1662.5 2949 c 128
 1556.16699219 2943.66699219 1478.33300781 2863 1429 2707 c 0
 1393.66699219 2595 1376 2466.66699219 1376 2322 c 0
 1376 2275.33300781 1378 2205 1382 2111 c 128
 1386 2017 1388 1947 1388 1901 c 0
 1388 1756.33300781 1331.33300781 1617 1218 1483 c 128
 1104.66699219 1349 977 1260.33300781 835 1217 c 1
 1064.33300781 1151.66699219 1217.33300781 974 1294 684 c 1
 1326.66699219 430 1361.33300781 173.333007812 1398 -86 c 128
 1434.66699219 -345.333007812 1524 -483.333007812 1666 -500 c 2
 1900 -512 l 1
 1900 -688 l 1
EndSplineSet
Validated: 1
EndChar

StartChar: bar
Encoding: 124 124 92
Width: 812
Flags: HW
LayerCount: 2
Fore
SplineSet
691 -90 m 1
 200 -90 l 1
 200 3019 l 1
 691 3019 l 1
 691 -90 l 1
EndSplineSet
Validated: 1
EndChar

StartChar: braceright
Encoding: 125 125 93
Width: 1972
Flags: HW
LayerCount: 2
Fore
SplineSet
204 -688 m 1
 542.666992188 -677.333007812 733.666992188 -670.666992188 777 -668 c 0
 979 -643.333007812 1130.66699219 -586 1232 -496 c 0
 1354.66699219 -381.333007812 1416 -205 1416 33 c 0
 1416 103.666992188 1409.83300781 208.666992188 1397.5 348 c 128
 1385.16699219 487.333007812 1379 591 1379 659 c 0
 1379 779 1439.33300781 896.666992188 1560 1012 c 0
 1658 1104.66699219 1772.66699219 1175.66699219 1904 1225 c 1
 1775.33300781 1271.66699219 1660.66699219 1344 1560 1442 c 0
 1440 1559.33300781 1379.66699219 1678 1379 1798 c 0
 1379 1866 1385.16699219 1969.66699219 1397.5 2109 c 128
 1409.83300781 2248.33300781 1416 2353.66699219 1416 2425 c 0
 1416 2689.66699219 1342.33300781 2876.66699219 1195 2986 c 0
 1066.33300781 3081.33300781 865.666992188 3129 593 3129 c 2
 200 3129 l 1
 200 2957 l 1
 254.666992188 2957 335.166992188 2954.33300781 441.5 2949 c 128
 547.833007812 2943.66699219 625.666992188 2863 675 2707 c 0
 710.333007812 2595 728 2466.66699219 728 2322 c 0
 728 2275.33300781 726 2205 722 2111 c 128
 718 2017 716 1947 716 1901 c 0
 716 1756.33300781 772.666992188 1617 886 1483 c 128
 999.333007812 1349 1127 1260.33300781 1269 1217 c 1
 1039.66699219 1151.66699219 886.666992188 974 810 684 c 1
 774.666992188 430 739.166992188 173.333007812 703.5 -86 c 128
 667.833007812 -345.333007812 579 -483.333007812 437 -500 c 2
 204 -512 l 1
 204 -688 l 1
EndSplineSet
Validated: 9
EndChar

StartChar: asciitilde
Encoding: 126 126 94
Width: 2305
Flags: HW
LayerCount: 2
Fore
SplineSet
2093 1008 m 1
 1937.66699219 773.333007812 1767 655.666992188 1581 655 c 0
 1474.33300781 655 1324 702.833007812 1130 798.5 c 128
 936 894.166992188 790 942 692 942 c 0
 530.666992188 942 416 841 348 639 c 1
 200 1085 l 1
 322.666992188 1319.66699219 493.333007812 1437.33300781 712 1438 c 0
 813.333007812 1438 964.333007812 1390.16699219 1165 1294.5 c 128
 1365.66699219 1198.83300781 1505.66699219 1151 1585 1151 c 0
 1716.33300781 1151 1836.33300781 1253.33300781 1945 1458 c 1
 2093 1008 l 1
EndSplineSet
Validated: 1
EndChar

StartChar: .notdef
Encoding: 1114112 -1 95
Width: 2048
Flags: W
LayerCount: 2
Fore
SplineSet
258 0 m 1
 258 3277 l 1
 1794 3277 l 1
 1794 0 l 1
 258 0 l 1
512 258 m 1
 1536 258 l 1
 1536 3023 l 1
 512 3023 l 1
 512 258 l 1
EndSplineSet
Validated: 1
EndChar

StartChar: ellipsis
Encoding: 8230 8230 96
Width: 3991
Flags: HW
LayerCount: 2
Fore
SplineSet
3747 324 m 256
 3747 209.333007812 3707.33300781 111.666992188 3628 31 c 128
 3548.66699219 -49.6669921875 3451.66699219 -90 3337 -90 c 256
 3222.33300781 -90 3125.5 -49.6669921875 3046.5 31 c 128
 2967.5 111.666992188 2928 209.333007812 2928 324 c 0
 2928 436 2968.16699219 532.833007812 3048.5 614.5 c 128
 3128.83300781 696.166992188 3225 737 3337 737 c 0
 3451.66699219 737 3548.66699219 696.833007812 3628 616.5 c 128
 3707.33300781 536.166992188 3747 438.666992188 3747 324 c 256
2383 324 m 256
 2383 209.333007812 2343.33300781 111.666992188 2264 31 c 128
 2184.66699219 -49.6669921875 2087.66699219 -90 1973 -90 c 256
 1858.33300781 -90 1761.5 -49.6669921875 1682.5 31 c 128
 1603.5 111.666992188 1564 209.333007812 1564 324 c 0
 1564 436 1604.16699219 532.833007812 1684.5 614.5 c 128
 1764.83300781 696.166992188 1861 737 1973 737 c 256
 2085 737 2181.33300781 696.833007812 2262 616.5 c 128
 2342.66699219 536.166992188 2383 438.666992188 2383 324 c 256
1019 324 m 256
 1019 209.333007812 979.333007812 111.666992188 900 31 c 128
 820.666992188 -49.6669921875 723.666992188 -90 609 -90 c 256
 494.333007812 -90 397.5 -49.6669921875 318.5 31 c 128
 239.5 111.666992188 200 209.333007812 200 324 c 0
 200 436 240.166992188 532.833007812 320.5 614.5 c 128
 400.833007812 696.166992188 497 737 609 737 c 256
 721 737 817.333007812 696.833007812 898 616.5 c 128
 978.666992188 536.166992188 1019 438.666992188 1019 324 c 256
EndSplineSet
Validated: 1
EndChar

StartChar: dagger
Encoding: 8224 8224 97
Width: 1689
Flags: HW
LayerCount: 2
Fore
SplineSet
1707 2388 m 0
 1707 2303.33300781 1681 2234.33300781 1629 2181 c 128
 1577 2127.66699219 1508.66699219 2101 1424 2101 c 0
 1328.66699219 2101 1251.66699219 2142 1193 2224 c 128
 1134.33300781 2306 1090 2347 1060 2347 c 0
 1013.33300781 2347 990 2319.66699219 990 2265 c 0
 990 2136.33300781 1126.66699219 2008 1400 1880 c 1
 1168 1555.33300781 1031.33300781 1167.66699219 990 717 c 1
 917 717 l 1
 873 1167.66699219 736.333007812 1555.33300781 507 1880 c 1
 780.333007812 2008.66699219 917 2137 917 2265 c 0
 917 2319.66699219 893.666992188 2347 847 2347 c 0
 814.333007812 2347 768.666992188 2306 710 2224 c 128
 651.333007812 2142 575.333007812 2101 482 2101 c 0
 397.333007812 2101 329.166992188 2127 277.5 2179 c 128
 225.833007812 2231 200 2300.66699219 200 2388 c 0
 200 2467.33300781 227.333007812 2535 282 2591 c 128
 336.666992188 2647 403.333007812 2675 482 2675 c 0
 577.333007812 2675 654.5 2633.33300781 713.5 2550 c 128
 772.5 2466.66699219 813 2425 835 2425 c 0
 892.333007812 2425 921 2457.66699219 921 2523 c 0
 921 2572.33300781 867 2650.16699219 759 2756.5 c 128
 651 2862.83300781 597 2964 597 3060 c 0
 597 3161.33300781 634 3240.33300781 708 3297 c 0
 773.333007812 3354.33300781 858 3383 962 3383 c 0
 1060 3383 1142.5 3353 1209.5 3293 c 128
 1276.5 3233 1310 3155.33300781 1310 3060 c 256
 1310 2964.66699219 1256 2863.66699219 1148 2757 c 128
 1040 2650.33300781 986 2572.33300781 986 2523 c 0
 986 2457.66699219 1014.66699219 2425 1072 2425 c 0
 1091.33300781 2425 1131 2466.66699219 1191 2550 c 128
 1251 2633.33300781 1328.66699219 2675 1424 2675 c 0
 1503.33300781 2675 1570.33300781 2647 1625 2591 c 128
 1679.66699219 2535 1707 2467.33300781 1707 2388 c 0
EndSplineSet
Validated: 1
EndChar

StartChar: daggerdbl
Encoding: 8225 8225 98
Width: 1596
Flags: HW
LayerCount: 2
Fore
SplineSet
1642 2572 m 0
 1642 2504 1616.16699219 2443.33300781 1564.5 2390 c 128
 1512.83300781 2336.66699219 1452.66699219 2310 1384 2310 c 0
 1299.33300781 2310 1225.66699219 2349.66699219 1163 2429 c 128
 1100.33300781 2508.33300781 1056.66699219 2548 1032 2548 c 0
 982.666992188 2548 958 2519.33300781 958 2462 c 0
 958 2347.33300781 1074 2210.66699219 1306 2052 c 1
 1229.33300781 2008 1155.66699219 1948 1085 1872 c 0
 997.666992188 1779.33300781 954 1698.66699219 954 1630 c 0
 954 1594.66699219 978.666992188 1567.33300781 1028 1548 c 1
 1063.33300781 1548 1107.66699219 1587.66699219 1161 1667 c 128
 1214.33300781 1746.33300781 1288.66699219 1786 1384 1786 c 0
 1454.66699219 1786 1514 1758.66699219 1562 1704 c 128
 1610 1649.33300781 1634 1586.66699219 1634 1516 c 256
 1634 1445.33300781 1610.83300781 1383.83300781 1564.5 1331.5 c 128
 1518.16699219 1279.16699219 1460.66699219 1253 1392 1253 c 0
 1318 1253 1256.66699219 1272.33300781 1208 1311 c 0
 1180.66699219 1330.33300781 1137 1378 1077 1454 c 1
 1032 1466 l 1
 985.333007812 1449.33300781 962 1422 962 1384 c 0
 962 1351.33300781 1004.33300781 1292 1089 1206 c 128
 1173.66699219 1120 1216 1041.66699219 1216 971 c 0
 1216 897 1186 836.166992188 1126 788.5 c 128
 1066 740.833007812 997.666992188 717 921 717 c 256
 844.333007812 717 776 740.166992188 716 786.5 c 128
 656 832.833007812 626 894.333007812 626 971 c 0
 626 1041.66699219 668.333007812 1120 753 1206 c 128
 837.666992188 1292 880 1351.33300781 880 1384 c 0
 880 1422 857 1449.33300781 811 1466 c 1
 766 1454 l 1
 706 1377.33300781 662.333007812 1329.66699219 635 1311 c 0
 585.666992188 1273 524 1253.66699219 450 1253 c 0
 382 1253 325.5 1279 280.5 1331 c 128
 235.5 1383 213 1444.66699219 213 1516 c 256
 213 1586.66699219 236.166992188 1649.33300781 282.5 1704 c 128
 328.833007812 1758.66699219 387.666992188 1786 459 1786 c 0
 554.333007812 1786 629.333007812 1746.33300781 684 1667 c 128
 738.666992188 1587.66699219 782.333007812 1548 815 1548 c 0
 828.333007812 1548 844 1558.33300781 862 1579 c 128
 880 1599.66699219 889 1616.66699219 889 1630 c 0
 889 1698 845.333007812 1778.66699219 758 1872 c 0
 687.333007812 1948.66699219 613.333007812 2008.66699219 536 2052 c 1
 768 2210.66699219 884 2347.33300781 884 2462 c 0
 884 2519.33300781 859.666992188 2548 811 2548 c 0
 783.666992188 2548 740.666992188 2508.33300781 682 2429 c 128
 623.333007812 2349.66699219 549 2310 459 2310 c 0
 391 2310 330.833007812 2337.33300781 278.5 2392 c 128
 226.166992188 2446.66699219 200 2506.66699219 200 2572 c 0
 200 2648.66699219 225.333007812 2713.66699219 276 2767 c 128
 326.666992188 2820.33300781 389 2847 463 2847 c 0
 555.666992188 2847 629.333007812 2809.33300781 684 2734 c 128
 738.666992188 2658.66699219 778.333007812 2621 803 2621 c 0
 855 2621 880.666992188 2651.33300781 880 2712 c 0
 880 2752.66699219 838.5 2816 755.5 2902 c 128
 672.5 2988 631 3061 631 3121 c 0
 631 3195 660.333007812 3257.16699219 719 3307.5 c 128
 777.666992188 3357.83300781 845 3383 921 3383 c 0
 1000.33300781 3383 1068.66699219 3358.5 1126 3309.5 c 128
 1183.33300781 3260.5 1212 3197.66699219 1212 3121 c 0
 1212 3063.66699219 1170.33300781 2991.33300781 1087 2904 c 128
 1003.66699219 2816.66699219 962 2752.66699219 962 2712 c 0
 962 2652 988 2621.66699219 1040 2621 c 0
 1067.33300781 2621 1109 2658.66699219 1165 2734 c 128
 1221 2809.33300781 1292.66699219 2847 1380 2847 c 0
 1454 2847 1516.16699219 2820.33300781 1566.5 2767 c 128
 1616.83300781 2713.66699219 1642 2648.66699219 1642 2572 c 0
EndSplineSet
Validated: 1
EndChar

StartChar: quoteleft
Encoding: 8216 8216 99
Width: 1313
Flags: HW
LayerCount: 2
Fore
SplineSet
970 2580 m 1
 970 2585 l 1
 868.666992188 2407.66699219 807.333007812 2227.33300781 786 2044 c 0
 778 1978.66699219 774 1789 774 1475 c 1
 200 1475 l 1
 200 1688 l 2
 200 1898 263 2100 389 2294 c 0
 528.333007812 2512.66699219 697.666992188 2621.66699219 897 2621 c 0
 948.333007812 2621 972.666992188 2607.33300781 970 2580 c 1
EndSplineSet
Validated: 33
EndChar

StartChar: quoteright
Encoding: 8217 8217 100
Width: 1288
Flags: HW
LayerCount: 2
Fore
SplineSet
970 2408 m 2
 970 2195.33300781 908.666992188 1992 786 1798 c 0
 646.666992188 1582 476 1474.33300781 274 1475 c 0
 257.333007812 1475 240.833007812 1477.66699219 224.5 1483 c 128
 208.166992188 1488.33300781 200 1499.33300781 200 1516 c 1
 200 1511 l 1
 301.333007812 1691 362.666992188 1870 384 2048 c 0
 392 2116 396.333007812 2307 397 2621 c 1
 970 2621 l 1
 970 2408 l 2
EndSplineSet
Validated: 37
EndChar

StartChar: quotedblleft
Encoding: 8220 8220 101
Width: 2092
Flags: HW
LayerCount: 2
Fore
SplineSet
1880 2580 m 1
 1880 2585 l 1
 1778.66699219 2413 1717 2232.66699219 1695 2044 c 0
 1687 1976 1683 1786.33300781 1683 1475 c 1
 1110 1475 l 1
 1110 1688 l 2
 1110 1900.66699219 1171.33300781 2104 1294 2298 c 0
 1433.33300781 2514 1604 2621.66699219 1806 2621 c 0
 1855.33300781 2621 1880 2607.33300781 1880 2580 c 1
970 2580 m 1
 970 2585 l 1
 868.666992188 2413 807.333007812 2232.66699219 786 2044 c 0
 778 1976 774 1786.33300781 774 1475 c 1
 200 1475 l 1
 200 1688 l 2
 200 1900.66699219 261.666992188 2104 385 2298 c 0
 524.333007812 2514 695 2621.66699219 897 2621 c 0
 945.666992188 2621 970 2607.33300781 970 2580 c 1
EndSplineSet
Validated: 37
EndChar

StartChar: quotedblright
Encoding: 8221 8221 102
Width: 2141
Flags: HW
LayerCount: 2
Fore
SplineSet
1880 2408 m 2
 1880 2192 1818.33300781 1988.66699219 1695 1798 c 0
 1555.66699219 1582 1385 1474.33300781 1183 1475 c 0
 1163.66699219 1475 1146.66699219 1477.66699219 1132 1483 c 128
 1117.33300781 1488.33300781 1110 1499.33300781 1110 1516 c 1
 1110 1511 l 1
 1211.33300781 1697 1272.66699219 1876 1294 2048 c 0
 1302 2113.33300781 1306 2304.33300781 1306 2621 c 1
 1880 2621 l 1
 1880 2408 l 2
970 2408 m 2
 970 2195.33300781 908.666992188 1992 786 1798 c 0
 644 1582 473.333007812 1474.33300781 274 1475 c 0
 268.666992188 1475 252.333007812 1477.66699219 225 1483 c 1
 200 1511 l 1
 200 1516 l 1
 200 1511 l 1
 301.333007812 1693.66699219 363 1872.66699219 385 2048 c 0
 393 2113.33300781 397 2304.33300781 397 2621 c 1
 970 2621 l 1
 970 2408 l 2
EndSplineSet
Validated: 37
EndChar

StartChar: bullet
Encoding: 8226 8226 103
Width: 1680
Flags: HW
LayerCount: 2
Fore
SplineSet
1518 1311 m 256
 1518 1128.33300781 1453.83300781 972 1325.5 842 c 128
 1197.16699219 712 1041.66699219 647 859 647 c 256
 676.333007812 647 520.833007812 711.833007812 392.5 841.5 c 128
 264.166992188 971.166992188 200 1127.66699219 200 1311 c 0
 200 1497 264.166992188 1654.66699219 392.5 1784 c 128
 520.833007812 1913.33300781 676.333007812 1978 859 1978 c 0
 1045 1978 1201.33300781 1912.5 1328 1781.5 c 128
 1454.66699219 1650.5 1518 1493.66699219 1518 1311 c 256
EndSplineSet
Validated: 1
EndChar

StartChar: endash
Encoding: 8211 8211 104
Width: 2562
Flags: HW
LayerCount: 2
Fore
SplineSet
2248 786 m 1
 200 786 l 1
 200 1307 l 1
 2248 1307 l 1
 2248 786 l 1
EndSplineSet
Validated: 1
EndChar

StartChar: emdash
Encoding: 8212 8212 105
Width: 4610
Flags: HW
LayerCount: 2
Fore
SplineSet
4296 786 m 1
 200 786 l 1
 200 1307 l 1
 4296 1307 l 1
 4296 786 l 1
EndSplineSet
Validated: 1
EndChar

StartChar: trademark
Encoding: 8482 8482 106
Width: 4422
Flags: HW
LayerCount: 2
Fore
SplineSet
4247 1360 m 1
 3330 1360 l 1
 3330 1470 l 1
 3472 1470 3543 1526 3543 1638 c 2
 3543 2486 l 1
 3534 2486 l 1
 2957 1364 l 1
 2891 1364 l 1
 2363 2486 l 1
 2355 2486 l 1
 2355 1638 l 2
 2355 1526 2426 1470 2568 1470 c 1
 2568 1360 l 1
 2015 1360 l 1
 2015 1470 l 1
 2137.66699219 1470 2199 1526 2199 1638 c 2
 2199 2699 l 2
 2199 2761.66699219 2169.66699219 2815 2111 2859 c 128
 2052.33300781 2903 1990.33300781 2925 1925 2925 c 1
 1925 3031 l 1
 2592 3031 l 1
 3055 2060 l 1
 3600 3027 l 1
 4247 3031 l 1
 4247 2925 l 1
 4105 2925 4034 2869 4034 2757 c 2
 4034 1638 l 2
 4034 1526 4105 1470 4247 1470 c 1
 4247 1360 l 1
1773 2642 m 1
 1667 2642 l 1
 1667 2814 1594.66699219 2900 1450 2900 c 2
 1232 2900 l 1
 1232 1638 l 2
 1232 1526 1303 1470 1445 1470 c 1
 1445 1360 l 1
 528 1360 l 1
 528 1470 l 1
 670 1470 741 1526 741 1638 c 2
 741 2900 l 1
 524 2900 l 2
 379.333007812 2900 307 2814 307 2642 c 1
 200 2642 l 1
 200 3031 l 1
 1773 3031 l 1
 1773 2642 l 1
EndSplineSet
Validated: 1
EndChar

StartChar: exclamdown
Encoding: 161 161 107
Width: 1182
Flags: HW
LayerCount: 2
Fore
SplineSet
1167 -57 m 1
 880 1536 l 1
 536 1532 l 1
 200 -57 l 1
 224.666992188 -188.333007812 286 -289.333007812 384 -360 c 0
 471.333007812 -425.333007812 574 -458.333007812 692 -459 c 0
 817.333007812 -459 926.5 -422.666992188 1019.5 -350 c 128
 1112.5 -277.333007812 1161.66699219 -179.666992188 1167 -57 c 1
1154 2421 m 0
 1154 2555 1109 2668.33300781 1019 2761 c 128
 929 2853.66699219 817 2900 683 2900 c 0
 551.666992188 2900 440.333007812 2852.83300781 349 2758.5 c 128
 257.666992188 2664.16699219 212 2551.66699219 212 2421 c 0
 212 2292.33300781 258.5 2181.66699219 351.5 2089 c 128
 444.5 1996.33300781 555 1950 683 1950 c 0
 817 1950 929 1995.66699219 1019 2087 c 128
 1109 2178.33300781 1154 2289.66699219 1154 2421 c 0
EndSplineSet
Validated: 9
EndChar

StartChar: cent
Encoding: 162 162 108
Width: 2828
Flags: HW
LayerCount: 2
Fore
SplineSet
2543 483 m 1
 2376.33300781 119.666992188 2013 -61.6669921875 1453 -61 c 0
 1321.66699219 -61 1177 -43.3330078125 1019 -8 c 1
 699 -610 l 1
 433 -610 l 1
 785 66 l 1
 596.333007812 131.333007812 450.333007812 247.333007812 347 414 c 0
 249 569.333007812 200 753.666992188 200 967 c 0
 200 1300.33300781 336.333007812 1563.66699219 609 1757 c 0
 852.333007812 1929 1147.33300781 2015 1494 2015 c 0
 1598 2015 1704.66699219 2004 1814 1982 c 1
 2088 2507 l 1
 2362 2507 l 1
 2055 1929 l 1
 2377 1819.66699219 2538.33300781 1641 2539 1393 c 0
 2539 1259 2513.66699219 1165.33300781 2463 1112 c 128
 2412.33300781 1058.66699219 2322.66699219 1032 2194 1032 c 0
 2076.66699219 1032 1990.66699219 1080 1936 1176 c 0
 1919.33300781 1206 1885.33300781 1305.66699219 1834 1475 c 1
 1724.66699219 1283.66699219 1615.33300781 1091 1506 897 c 0
 1326 575 1237.33300781 405.666992188 1240 389 c 0
 1248 331.666992188 1312.16699219 273 1432.5 213 c 128
 1552.83300781 153 1662 123 1760 123 c 0
 1894 123 2027.16699219 171.5 2159.5 268.5 c 128
 2291.83300781 365.5 2385.33300781 476.666992188 2440 602 c 1
 2543 483 l 1
912 877 m 0
 912 724.333007812 955.666992188 619 1043 561 c 1
 1201.66699219 825.666992188 1429.66699219 1228.33300781 1727 1769 c 1
 1683 1771.66699219 1669.66699219 1773.33300781 1687 1774 c 1
 1170.33300781 1774 912 1475 912 877 c 0
EndSplineSet
Validated: 33
EndChar

StartChar: sterling
Encoding: 163 163 109
Width: 3004
Flags: HW
LayerCount: 2
Fore
SplineSet
2690 1069 m 1
 2616 523 2579.33300781 166.666992188 2580 0 c 1
 319 0 l 1
 455.666992188 218.666992188 541.666992188 392 577 520 c 0
 609.666992188 640 626 824.333007812 626 1073 c 1
 200 1073 l 1
 200 1593 l 1
 536 1593 l 1
 530.666992188 1639.66699219 528 1701.33300781 528 1778 c 0
 528 2100 640 2341.66699219 864 2503 c 0
 1063.33300781 2645 1329.33300781 2716 1662 2716 c 2
 1916 2716 l 2
 2331.33300781 2716 2539 2595.66699219 2539 2355 c 0
 2539 2333 2537.66699219 2299.5 2535 2254.5 c 128
 2532.33300781 2209.5 2531 2174.66699219 2531 2150 c 0
 2531 2100.66699219 2544.66699219 1983.33300781 2572 1798 c 1
 2400 1798 l 1
 2307.33300781 2060 2124.33300781 2191 1851 2191 c 0
 1597 2191 1470 2060 1470 1798 c 0
 1470 1751.33300781 1481 1683 1503 1593 c 1
 2060 1593 l 1
 2060 1073 l 1
 1548 1073 l 1
 1518 868.333007812 1430.33300781 723.666992188 1285 639 c 1
 1285 631 l 1
 2076 631 l 2
 2212.66699219 631 2312.33300781 673.333007812 2375 758 c 0
 2410.33300781 807.333007812 2450 911 2494 1069 c 1
 2690 1069 l 1
EndSplineSet
Validated: 33
EndChar

StartChar: section
Encoding: 167 167 110
Width: 2180
Flags: HW
LayerCount: 2
Fore
SplineSet
2018 1401 m 0
 2018 1215 1964.83300781 1066.83300781 1858.5 956.5 c 128
 1752.16699219 846.166992188 1606 789.333007812 1420 786 c 1
 1412 778 l 1
 1652 565.333007812 1772 359.333007812 1772 160 c 0
 1772 -34 1705.83300781 -188.333007812 1573.5 -303 c 128
 1441.16699219 -417.666992188 1276.66699219 -475 1080 -475 c 0
 840 -475 653 -426 519 -328 c 1
 516.333007812 -284 504 -110.333007812 482 193 c 1
 613 193 l 1
 626.333007812 116.333007812 655 50.6669921875 699 -4 c 0
 748.333007812 -69.3330078125 808.666992188 -102 880 -102 c 0
 929.333007812 -102 974.333007812 -85.6669921875 1015 -53 c 128
 1055.66699219 -20.3330078125 1076 19.3330078125 1076 66 c 0
 1076 158.666992188 1001 269 851 397 c 0
 613.666992188 599 471.666992188 727.333007812 425 782 c 0
 275 959.333007812 200 1154.66699219 200 1368 c 0
 200 1490.66699219 228.666992188 1605.33300781 286 1712 c 0
 348.666992188 1834.66699219 433.333007812 1916.66699219 540 1958 c 0
 550.666992188 1960.66699219 605 1962 703 1962 c 0
 741 1962 760.333007812 1968.66699219 761 1982 c 0
 761 1998.66699219 713.166992188 2073.83300781 617.5 2207.5 c 128
 521.833007812 2341.16699219 474 2443.66699219 474 2515 c 0
 474 2722.33300781 556 2880.66699219 720 2990 c 0
 859.333007812 3080 1038 3125 1256 3125 c 0
 1438.66699219 3125 1561.66699219 3104.66699219 1625 3064 c 0
 1630.33300781 3058.66699219 1633 3026.5 1633 2967.5 c 128
 1633 2908.5 1653.66699219 2775.33300781 1695 2568 c 1
 1564 2568 l 1
 1514.66699219 2707.33300781 1440.66699219 2777 1342 2777 c 0
 1295.33300781 2777 1255 2761.33300781 1221 2730 c 128
 1187 2698.66699219 1170 2661 1170 2617 c 0
 1170 2540.33300781 1244 2435.33300781 1392 2302 c 0
 1624 2089.33300781 1759 1959.66699219 1797 1913 c 0
 1944.33300781 1741 2018 1570.33300781 2018 1401 c 0
1396 1249 m 0
 1396 1325.66699219 1338.66699219 1424 1224 1544 c 128
 1109.33300781 1664 1013.66699219 1724 937 1724 c 0
 882.333007812 1724 837.166992188 1705.66699219 801.5 1669 c 128
 765.833007812 1632.33300781 748 1586.66699219 748 1532 c 0
 748 1458 806.166992188 1361 922.5 1241 c 128
 1038.83300781 1121 1133.66699219 1061 1207 1061 c 0
 1259 1061 1303.5 1079.33300781 1340.5 1116 c 128
 1377.5 1152.66699219 1396 1197 1396 1249 c 0
EndSplineSet
Validated: 1
EndChar

StartChar: copyright
Encoding: 169 169 111
Width: 3209
Flags: HW
LayerCount: 2
Fore
SplineSet
2977 1311 m 256
 2977 923 2841.83300781 592.5 2571.5 319.5 c 128
 2301.16699219 46.5 1973.33300781 -90 1588 -90 c 0
 1206 -90 879.166992188 47.8330078125 607.5 323.5 c 128
 335.833007812 599.166992188 200 928.333007812 200 1311 c 0
 200 1696.33300781 335.166992188 2026.83300781 605.5 2302.5 c 128
 875.833007812 2578.16699219 1203.33300781 2716 1588 2716 c 0
 1976 2716 2304.5 2578.83300781 2573.5 2304.5 c 128
 2842.5 2030.16699219 2977 1699 2977 1311 c 256
2608 1311 m 256
 2608 1600.33300781 2509.83300781 1848.66699219 2313.5 2056 c 128
 2117.16699219 2263.33300781 1875.33300781 2367 1588 2367 c 0
 1304 2367 1063.16699219 2262 865.5 2052 c 128
 667.833007812 1842 569 1595 569 1311 c 0
 569 1024.33300781 667.833007812 777.166992188 865.5 569.5 c 128
 1063.16699219 361.833007812 1304 258 1588 258 c 0
 1874.66699219 258 2116.33300781 361.166992188 2313 567.5 c 128
 2509.66699219 773.833007812 2608 1021.66699219 2608 1311 c 256
2248 987 m 1
 2191 684 l 1
 2051.66699219 569.333007812 1875.33300781 512 1662 512 c 0
 1397.33300781 512 1188.5 581.666992188 1035.5 721 c 128
 882.5 860.333007812 806 1061 806 1323 c 0
 806 1571.66699219 883.166992188 1764.83300781 1037.5 1902.5 c 128
 1191.83300781 2040.16699219 1393.33300781 2109 1642 2109 c 0
 1858 2109 2038 2061.33300781 2182 1966 c 1
 2182 1667 l 1
 2076 1667 l 1
 2059.33300781 1849.66699219 1935 1941.33300781 1703 1942 c 0
 1449 1942 1322 1742.33300781 1322 1343 c 0
 1322 897.666992188 1446.33300781 675.333007812 1695 676 c 0
 1907.66699219 676 2058 779.666992188 2146 987 c 1
 2248 987 l 1
EndSplineSet
Validated: 33
EndChar

StartChar: guillemotleft
Encoding: 171 171 112
Width: 2525
Flags: HW
LayerCount: 2
Fore
SplineSet
1314 221 m 1
 1316.66699219 171.666992188 1290.66699219 147 1236 147 c 0
 1094 147 885.833007812 282.166992188 611.5 552.5 c 128
 337.166992188 822.833007812 200 1029 200 1171 c 256
 200 1313 337.166992188 1518.5 611.5 1787.5 c 128
 885.833007812 2056.5 1094 2191 1236 2191 c 0
 1285.33300781 2191 1310 2173.33300781 1310 2138 c 0
 1310 2121.33300781 1232.83300781 1986.83300781 1078.5 1734.5 c 128
 924.166992188 1482.16699219 847 1294.33300781 847 1171 c 0
 847 1031.66699219 907 866.666992188 1027 676 c 0
 1123 522.666992188 1218.66699219 371 1314 221 c 1
2297 221 m 1
 2299.66699219 171.666992188 2273.66699219 147 2219 147 c 0
 2077 147 1868.83300781 282.166992188 1594.5 552.5 c 128
 1320.16699219 822.833007812 1183 1029 1183 1171 c 256
 1183 1313 1320.16699219 1518.5 1594.5 1787.5 c 128
 1868.83300781 2056.5 2077 2191 2219 2191 c 0
 2268.33300781 2191 2293 2173.33300781 2293 2138 c 0
 2293 2121.33300781 2215.83300781 1986.83300781 2061.5 1734.5 c 128
 1907.16699219 1482.16699219 1830 1294.33300781 1830 1171 c 0
 1830 1031.66699219 1890 866.666992188 2010 676 c 0
 2106 522.666992188 2201.66699219 371 2297 221 c 1
EndSplineSet
Validated: 1
EndChar

StartChar: minus
Encoding: 173 173 113
Width: 2561
Flags: HW
LayerCount: 2
Fore
SplineSet
2272 791 m 1
 200 791 l 1
 200 1282 l 1
 2272 1282 l 1
 2272 791 l 1
EndSplineSet
Validated: 1
EndChar

StartChar: registered
Encoding: 174 174 114
Width: 3209
Flags: HW
LayerCount: 2
Fore
SplineSet
2977 1311 m 256
 2977 923 2841.83300781 592.5 2571.5 319.5 c 128
 2301.16699219 46.5 1973.33300781 -90 1588 -90 c 0
 1206 -90 879.166992188 47.8330078125 607.5 323.5 c 128
 335.833007812 599.166992188 200 928.333007812 200 1311 c 0
 200 1696.33300781 335.166992188 2026.83300781 605.5 2302.5 c 128
 875.833007812 2578.16699219 1203.33300781 2716 1588 2716 c 0
 1976 2716 2304.5 2578.83300781 2573.5 2304.5 c 128
 2842.5 2030.16699219 2977 1699 2977 1311 c 256
2608 1311 m 256
 2608 1600.33300781 2509.83300781 1848.66699219 2313.5 2056 c 128
 2117.16699219 2263.33300781 1875.33300781 2367 1588 2367 c 0
 1304 2367 1063.16699219 2262 865.5 2052 c 128
 667.833007812 1842 569 1595 569 1311 c 0
 569 1024.33300781 667.833007812 777.166992188 865.5 569.5 c 128
 1063.16699219 361.833007812 1304 258 1588 258 c 0
 1874.66699219 258 2116.33300781 361.166992188 2313 567.5 c 128
 2509.66699219 773.833007812 2608 1021.66699219 2608 1311 c 256
2252 557 m 1
 1969 557 l 2
 1829.66699219 557 1712.33300781 715.333007812 1617 1032 c 0
 1614.33300781 1067.33300781 1610.33300781 1104.33300781 1605 1143 c 0
 1599.66699219 1195 1583.33300781 1221 1556 1221 c 2
 1466 1221 l 1
 1466 791 l 2
 1466 709 1523.33300781 668 1638 668 c 1
 1638 557 l 1
 933 557 l 1
 933 668 l 1
 1042.33300781 668 1097 709 1097 791 c 2
 1097 1835 l 2
 1097 1917 1042.33300781 1958 933 1958 c 1
 933 2064 l 1
 1744 2064 l 2
 2033.33300781 2064 2178 1931.66699219 2178 1667 c 0
 2178 1582.33300781 2152.16699219 1503.16699219 2100.5 1429.5 c 128
 2048.83300781 1355.83300781 1982 1305.33300781 1900 1278 c 1
 1944 1160.66699219 1989 1044.66699219 2035 930 c 0
 2109 766 2181.33300781 678.666992188 2252 668 c 1
 2252 557 l 1
1765 1708 m 0
 1765 1770.66699219 1751.33300781 1825.33300781 1724 1872 c 0
 1688.66699219 1929.33300781 1642 1958 1584 1958 c 2
 1466 1958 l 1
 1466 1327 l 1
 1564 1327 l 2
 1698 1327 1765 1454 1765 1708 c 0
EndSplineSet
Validated: 1
EndChar

StartChar: degree
Encoding: 176 176 115
Width: 1660
Flags: HW
LayerCount: 2
Fore
SplineSet
1166 2367 m 0
 1166 2462.33300781 1133.33300781 2543.66699219 1068 2611 c 128
 1002.66699219 2678.33300781 922 2712 826 2712 c 0
 728 2712 646.833007812 2679.16699219 582.5 2613.5 c 128
 518.166992188 2547.83300781 486 2465.66699219 486 2367 c 0
 486 2271.66699219 518.833007812 2190.5 584.5 2123.5 c 128
 650.166992188 2056.5 730.666992188 2023 826 2023 c 0
 918.666992188 2023 998.5 2057.16699219 1065.5 2125.5 c 128
 1132.5 2193.83300781 1166 2274.33300781 1166 2367 c 0
826 1737 m 256
 654 1737 506.666992188 1799 384 1923 c 128
 261.333007812 2047 200 2195 200 2367 c 0
 200 2541.66699219 261.333007812 2691.16699219 384 2815.5 c 128
 506.666992188 2939.83300781 654 3002 826 3002 c 256
 998 3002 1145.5 2939.33300781 1268.5 2814 c 128
 1391.5 2688.66699219 1453 2539.66699219 1453 2367 c 256
 1453 2195 1391.5 2047 1268.5 1923 c 128
 1145.5 1799 998 1737 826 1737 c 256
EndSplineSet
Validated: 1
EndChar

StartChar: plusminus
Encoding: 177 177 116
Width: 2366
Flags: HW
LayerCount: 2
Fore
SplineSet
2273 1540 m 1
 1482 1540 l 1
 1482 946 l 1
 995 946 l 1
 991 1540 l 1
 200 1540 l 1
 200 2036 l 1
 991 2036 l 1
 991 2642 l 1
 1482 2638 l 1
 1482 2036 l 1
 2273 2036 l 1
 2273 1540 l 1
2273 328 m 1
 200 328 l 1
 200 823 l 1
 2273 823 l 1
 2273 328 l 1
EndSplineSet
Validated: 1
EndChar

StartChar: paragraph
Encoding: 182 182 117
Width: 2553
Flags: HW
LayerCount: 2
Fore
SplineSet
2436 -246 m 1
 1654 -246 l 1
 1654 2703 l 1
 1326 2703 l 1
 1326 -246 l 1
 544 -246 l 1
 544 -106 l 1
 738 -106 835 -24.3330078125 835 139 c 2
 835 1315 l 1
 627.666992188 1315 465 1399.66699219 347 1569 c 0
 249 1711 200 1881.66699219 200 2081 c 0
 200 2324.33300781 274.333007812 2512.16699219 423 2644.5 c 128
 571.666992188 2776.83300781 782.666992188 2843 1056 2843 c 2
 2436 2843 l 1
 2436 2703 l 1
 2242 2703 2145 2621.33300781 2145 2458 c 2
 2145 139 l 2
 2145 -25 2242 -106.666992188 2436 -106 c 1
 2436 -246 l 1
EndSplineSet
Validated: 33
EndChar

StartChar: periodcentered
Encoding: 183 183 118
AltUni2: 002219.ffffffff.0
Width: 1199
Flags: HW
LayerCount: 2
Fore
SplineSet
946 995 m 0
 946 893.666992188 909.166992188 806.333007812 835.5 733 c 128
 761.833007812 659.666992188 674.333007812 623 573 623 c 256
 471.666992188 623 384.166992188 659.833007812 310.5 733.5 c 128
 236.833007812 807.166992188 200 894.333007812 200 995 c 0
 200 1099 236.333007812 1187.83300781 309 1261.5 c 128
 381.666992188 1335.16699219 469.666992188 1372 573 1372 c 0
 674.333007812 1372 761.833007812 1335.16699219 835.5 1261.5 c 128
 909.166992188 1187.83300781 946 1099 946 995 c 0
EndSplineSet
Validated: 1
EndChar

StartChar: guillemotright
Encoding: 187 187 119
Width: 2443
Flags: HW
LayerCount: 2
Fore
SplineSet
1183.18652344 221 m 1
 1180.51953125 171.666992188 1206.51953125 147 1261.18652344 147 c 0
 1403.18652344 147 1611.35253906 282.166992188 1885.68652344 552.5 c 128
 2160.01953125 822.833007812 2297.18652344 1029 2297.18652344 1171 c 256
 2297.18652344 1313 2160.01953125 1518.5 1885.68652344 1787.5 c 128
 1611.35253906 2056.5 1403.18652344 2191 1261.18652344 2191 c 0
 1211.85253906 2191 1187.18652344 2173.33300781 1187.18652344 2138 c 0
 1187.18652344 2121.33300781 1264.35253906 1986.83300781 1418.68652344 1734.5 c 128
 1573.01953125 1482.16699219 1650.18652344 1294.33300781 1650.18652344 1171 c 0
 1650.18652344 1031.66699219 1590.18652344 866.666992188 1470.18652344 676 c 0
 1374.18652344 522.666992188 1278.51953125 371 1183.18652344 221 c 1
200.186523438 221 m 1
 197.51953125 171.666992188 223.51953125 147 278.186523438 147 c 0
 420.186523438 147 628.352539062 282.166992188 902.686523438 552.5 c 128
 1177.01953125 822.833007812 1314.18652344 1029 1314.18652344 1171 c 256
 1314.18652344 1313 1177.01953125 1518.5 902.686523438 1787.5 c 128
 628.352539062 2056.5 420.186523438 2191 278.186523438 2191 c 0
 228.852539062 2191 204.186523438 2173.33300781 204.186523438 2138 c 0
 204.186523438 2121.33300781 281.352539062 1986.83300781 435.686523438 1734.5 c 128
 590.01953125 1482.16699219 667.186523438 1294.33300781 667.186523438 1171 c 0
 667.186523438 1031.66699219 607.186523438 866.666992188 487.186523438 676 c 0
 391.186523438 522.666992188 295.51953125 371 200.186523438 221 c 1
EndSplineSet
Validated: 9
EndChar

StartChar: questiondown
Encoding: 191 191 120
Width: 2334
Flags: HW
LayerCount: 2
Fore
SplineSet
200 434 m 0
 200 638.666992188 286.333007812 801.333007812 459 922 c 1
 620.333007812 1012 781.333007812 1100.66699219 942 1188 c 1
 1114 1300 1201.33300781 1446 1204 1626 c 1
 1528 1655 l 1
 1560.66699219 1425.66699219 1579.66699219 1180 1585 918 c 1
 1467.66699219 918 1346 879.666992188 1220 803 c 0
 1067.33300781 713 993.666992188 601 999 467 c 0
 1004.33300781 237.666992188 1156 123 1454 123 c 0
 1579.33300781 123 1692.66699219 175 1794 279 c 0
 1889.33300781 374.333007812 1949.33300781 487.333007812 1974 618 c 1
 2167 618 l 1
 2147.66699219 358.666992188 2138 203.333007812 2138 152 c 0
 2138 132.666992188 2140 103.833007812 2144 65.5 c 128
 2148 27.1669921875 2150 0 2150 -16 c 0
 2150 -108.666992188 2030 -182.666992188 1790 -238 c 0
 1615.33300781 -278.666992188 1454 -299 1306 -299 c 0
 1002.66699219 -299 758.333007812 -252.666992188 573 -160 c 0
 324.333007812 -37.3330078125 200 160.666992188 200 434 c 0
872 2449 m 0
 872 2569 913 2670.66699219 995 2754 c 128
 1077 2837.33300781 1176.66699219 2879 1294 2879 c 256
 1411.33300781 2879 1511.66699219 2836.83300781 1595 2752.5 c 128
 1678.33300781 2668.16699219 1720 2567 1720 2449 c 256
 1720 2331.66699219 1678.33300781 2231.33300781 1595 2148 c 128
 1511.66699219 2064.66699219 1411.33300781 2023 1294 2023 c 256
 1176.66699219 2023 1077 2064.66699219 995 2148 c 128
 913 2231.33300781 872 2331.66699219 872 2449 c 0
EndSplineSet
Validated: 33
EndChar

StartChar: Agrave
Encoding: 192 192 121
Width: 4096
Flags: HW
LayerCount: 2
Fore
SplineSet
3948 1829 m 0
 3948 2652.95800781 3324.95507812 3209 2265.59960938 3209 c 0
 2072.8671875 3209 1317.77246094 3199.32519531 314.126953125 2697.50292969 c 0
 215.671875 2648.27539062 148 2546.47851562 148 2429 c 0
 148 2263.42578125 282.42578125 2129 448 2129 c 0
 496.096679688 2129 541.564453125 2140.34277344 581.873046875 2160.49707031 c 0
 917.620117188 2328.37109375 1252.0546875 2448.75683594 1565.56347656 2522.04492188 c 0
 1851.02050781 2588.77441406 2324.77636719 2662.69433594 2738.71777344 2553.11328125 c 0
 2953.06640625 2496.37011719 3171.63574219 2384.32714844 3277.83300781 2165.6953125 c 0
 3321.32421875 2076.15722656 3348 1966.60058594 3348 1829 c 0
 3348 1688.62597656 3302.39746094 1641.9921875 3263.953125 1613.88574219 c 0
 3241.31542969 1597.33496094 3171.29492188 1550.44628906 2993.91796875 1523.984375 c 0
 2588.33007812 1463.47753906 1964.79492188 1554.8203125 1442.09375 1554.8203125 c 0
 1076.85546875 1554.8203125 729.702148438 1512.45898438 478.462890625 1328.77734375 c 0
 308.801757812 1204.73730469 148 988.643554688 148 629 c 0
 148 -194.958007812 771.044921875 -751 1830.40039062 -751 c 0
 2023.1328125 -751 2778.22753906 -741.325195312 3781.87304688 -239.502929688 c 0
 3880.328125 -190.275390625 3948 -88.478515625 3948 29 c 0
 3948 194.57421875 3813.57421875 329 3648 329 c 0
 3599.90332031 329 3554.43554688 317.657226562 3514.12695312 297.502929688 c 0
 3178.37988281 129.62890625 2843.9453125 9.2431640625 2530.43652344 -64.044921875 c 0
 2244.97949219 -130.774414062 1771.22363281 -204.694335938 1357.28222656 -95.11328125 c 0
 1142.93359375 -38.3701171875 924.364257812 73.6728515625 818.166992188 292.3046875 c 0
 774.67578125 381.842773438 748 491.399414062 748 629 c 0
 748 769.374023438 793.602539062 816.0078125 832.046875 844.114257812 c 0
 854.684570312 860.665039062 924.705078125 907.553710938 1102.08203125 934.015625 c 0
 1624.89257812 1012.01074219 2473.234375 839.59765625 3083.046875 930.571289062 c 0
 3261.98925781 957.267578125 3635.96191406 1033.17285156 3830.85449219 1362.91308594 c 0
 3911.42675781 1499.23632812 3948 1658.58300781 3948 1829 c 0
EndSplineSet
Validated: 41
Ligature2: "'liga' Vowel Cluster-Latin" W A
EndChar

StartChar: Aacute
Encoding: 193 193 122
Width: 4096
Flags: HW
LayerCount: 2
Fore
SplineSet
3048 3129 m 0
 2882.42578125 3129 2748 2994.57421875 2748 2829 c 0
 2748 2780.90332031 2759.34277344 2735.43554688 2779.49707031 2695.12695312 c 0
 2896.37695312 2461.36621094 3102.37890625 2014.17382812 3202.35546875 1529 c 1
 893.64453125 1529 l 1
 950.272460938 1803.8046875 1069.51660156 2201.15429688 1316.50292969 2695.12695312 c 0
 1336.65722656 2735.43554688 1348 2780.90332031 1348 2829 c 0
 1348 2994.57421875 1213.57421875 3129 1048 3129 c 0
 930.521484375 3129 828.724609375 3061.328125 779.497070312 2962.87304688 c 0
 600.107421875 2604.09472656 236 1802.44921875 236 1011.40039062 c 0
 236 606.633789062 332.038085938 221.568359375 576.590820312 -84.1220703125 c 0
 825.689453125 -395.49609375 1266.78515625 -671 2048 -671 c 0
 2369.54492188 -671 2807.56835938 -625.51171875 3178.85253906 -388.815429688 c 0
 3567.8125 -140.850585938 3860 303.674804688 3860 1011.40039062 c 0
 3860 1282.56933594 3817.53320312 1565.52734375 3742.23632812 1855.421875 c 0
 3648.12109375 2217.76464844 3502.20019531 2591.47753906 3316.50292969 2962.87304688 c 0
 3267.27539062 3061.328125 3165.47851562 3129 3048 3129 c 0
2048 -71 m 0
 1764.89550781 -71 1465.18652344 -26.66796875 1239.05664062 117.4921875 c 0
 1099.69433594 206.3359375 860.919921875 408.696289062 837.797851562 929 c 1
 3258.20214844 929 l 1
 3235.05664062 408.166992188 2995.78613281 206.004882812 2856.94335938 117.4921875 c 0
 2629.19335938 -27.7001953125 2327.79199219 -71 2048 -71 c 0
EndSplineSet
Validated: 9
Ligature2: "'liga' Vowel Cluster-Latin" Y A
EndChar

StartChar: Aring
Encoding: 197 197 123
Width: 4096
Flags: HW
LayerCount: 2
Fore
SplineSet
148 2229 m 0
 148 2063.42578125 282.42578125 1929 448 1929 c 0
 496.096679688 1929 541.564453125 1940.34277344 581.873046875 1960.49707031 c 0
 921.588867188 2130.35449219 1258.98632812 2260.97753906 1572.63867188 2342.44628906 c 0
 1814.13183594 2405.17089844 2555.33789062 2576.77832031 2986.72949219 2231.6640625 c 0
 3073.86132812 2161.95996094 3187.44824219 2041.18554688 3263.79394531 1817.06347656 c 0
 3316.11132812 1663.48046875 3348 1468.99023438 3348 1229 c 0
 3348 945.895507812 3303.66796875 646.186523438 3159.5078125 420.056640625 c 0
 3109.59179688 341.756835938 3052.3828125 278.857421875 2986.72949219 226.3359375 c 0
 2522.13378906 -145.341796875 1580.80761719 -1.9638671875 581.873046875 497.502929688 c 0
 541.564453125 517.657226562 496.096679688 529 448 529 c 0
 282.42578125 529 148 394.57421875 148 229 c 0
 148 111.521484375 215.671875 9.724609375 314.126953125 -39.5029296875 c 0
 672.905273438 -218.892578125 1474.55078125 -583 2265.59960938 -583 c 0
 2670.36621094 -583 3055.43164062 -486.961914062 3361.12207031 -242.409179688 c 0
 3672.49609375 6.689453125 3948 447.78515625 3948 1229 c 0
 3948 1550.54492188 3902.51171875 1988.56835938 3665.81542969 2359.85253906 c 0
 3417.85058594 2748.8125 2973.32519531 3041 2265.59960938 3041 c 0
 1994.43066406 3041 1711.47265625 2998.53320312 1421.578125 2923.23632812 c 0
 1059.23535156 2829.12109375 685.522460938 2683.20019531 314.126953125 2497.50292969 c 0
 215.671875 2448.27539062 148 2346.47851562 148 2229 c 0
EndSplineSet
Validated: 41
EndChar

StartChar: Egrave
Encoding: 200 200 124
Width: 4096
Flags: HW
LayerCount: 2
Fore
SplineSet
1012.953125 930.571289062 m 0
 1624.54296875 839.33203125 2469.33007812 1012.27539062 2993.91796875 934.015625 c 0
 3083.42089844 920.663085938 3194.90917969 894.591796875 3263.953125 844.114257812 c 0
 3302.42089844 815.991210938 3348 769.34375 3348 629 c 0
 3348 326.170898438 3218.328125 138.830078125 3019.8984375 19.771484375 c 0
 2939.90527344 -28.224609375 2709.78320312 -151 2265.59960938 -151 c 0
 2129.92578125 -151 1474.53613281 -148.828125 581.873046875 297.502929688 c 0
 541.564453125 317.657226562 496.096679688 329 448 329 c 0
 282.42578125 329 148 194.57421875 148 29 c 0
 148 -88.478515625 215.671875 -190.275390625 314.126953125 -239.502929688 c 0
 519.349609375 -342.114257812 1351.01757812 -751 2265.59960938 -751 c 0
 3324.99804688 -751 3948 -194.921875 3948 629 c 0
 3948 755.716796875 3936.984375 1231.91796875 3407.54101562 1443.49902344 c 0
 3189.84765625 1530.49511719 2930.34667969 1554.8203125 2653.90625 1554.8203125 c 0
 2125.39453125 1554.8203125 1509.26269531 1463.23925781 1102.08203125 1523.984375 c 0
 1012.57910156 1537.33691406 901.090820312 1563.40820312 832.046875 1613.88574219 c 0
 793.579101562 1642.00878906 748 1688.65625 748 1829 c 0
 748 2131.82910156 877.671875 2319.16992188 1076.1015625 2438.22851562 c 0
 1156.09472656 2486.22460938 1386.21679688 2609 1830.40039062 2609 c 0
 1966.07421875 2609 2621.46386719 2606.828125 3514.12695312 2160.49707031 c 0
 3554.43554688 2140.34277344 3599.90332031 2129 3648 2129 c 0
 3813.57421875 2129 3948 2263.42578125 3948 2429 c 0
 3948 2546.47851562 3880.328125 2648.27539062 3781.87304688 2697.50292969 c 0
 3576.65039062 2800.11425781 2744.98242188 3209 1830.40039062 3209 c 0
 771.001953125 3209 148 2652.921875 148 1829 c 0
 148 1702.28320312 159.015625 1226.08203125 688.458984375 1014.50097656 c 0
 793.13671875 972.669921875 901.8125 947.15234375 1012.953125 930.571289062 c 0
EndSplineSet
Validated: 41
Ligature2: "'liga' Vowel Cluster-Latin" W E
EndChar

StartChar: Eacute
Encoding: 201 201 125
Width: 4096
Flags: HW
LayerCount: 2
Fore
SplineSet
148 2229 m 0
 148 2063.42578125 282.42578125 1929 448 1929 c 0
 496.096679688 1929 541.564453125 1940.34277344 581.873046875 1960.49707031 c 0
 815.633789062 2077.37695312 1262.82617188 2283.37890625 1748 2383.35546875 c 1
 1748 74.64453125 l 1
 1473.1953125 131.272460938 1075.84570312 250.516601562 581.873046875 497.502929688 c 0
 541.564453125 517.657226562 496.096679688 529 448 529 c 0
 282.42578125 529 148 394.57421875 148 229 c 0
 148 111.521484375 215.671875 9.724609375 314.126953125 -39.5029296875 c 0
 672.905273438 -218.892578125 1474.55078125 -583 2265.59960938 -583 c 0
 2670.36621094 -583 3055.43164062 -486.961914062 3361.12207031 -242.409179688 c 0
 3672.49609375 6.689453125 3948 447.78515625 3948 1229 c 0
 3948 1550.54492188 3902.51171875 1988.56835938 3665.81542969 2359.85253906 c 0
 3417.85058594 2748.8125 2973.32519531 3041 2265.59960938 3041 c 0
 1994.43066406 3041 1711.47265625 2998.53320312 1421.578125 2923.23632812 c 0
 1059.23535156 2829.12109375 685.522460938 2683.20019531 314.126953125 2497.50292969 c 0
 215.671875 2448.27539062 148 2346.47851562 148 2229 c 0
3348 1229 m 0
 3348 945.895507812 3303.66796875 646.186523438 3159.5078125 420.056640625 c 0
 3070.6640625 280.694335938 2868.30371094 41.919921875 2348 18.7978515625 c 1
 2348 2439.20214844 l 1
 2868.83300781 2416.05664062 3070.99511719 2176.78613281 3159.5078125 2037.94335938 c 0
 3304.70019531 1810.19335938 3348 1508.79199219 3348 1229 c 0
EndSplineSet
Validated: 9
Ligature2: "'liga' Vowel Cluster-Latin" Y E
EndChar

StartChar: Igrave
Encoding: 204 204 126
Width: 4096
Flags: W
HStem: -671 600<2433.13 3014.13> 2529 600<1081.87 1663.05>
LayerCount: 2
Fore
SplineSet
1448 3129 m 0
 624.041992188 3129 68 2505.95507812 68 1446.59960938 c 0
 68 1253.8671875 77.6748046875 498.772460938 579.497070312 -504.873046875 c 0
 628.724609375 -603.328125 730.521484375 -671 848 -671 c 0
 1013.57421875 -671 1148 -536.57421875 1148 -371 c 0
 1148 -322.903320312 1136.65722656 -277.435546875 1116.50292969 -237.126953125 c 0
 948.62890625 98.6201171875 828.243164062 433.0546875 754.955078125 746.563476562 c 0
 688.225585938 1032.02050781 614.305664062 1505.77636719 723.88671875 1919.71777344 c 0
 780.629882812 2134.06640625 892.672851562 2352.63574219 1111.3046875 2458.83300781 c 0
 1200.84277344 2502.32421875 1310.39941406 2529 1448 2529 c 0
 1588.37402344 2529 1635.0078125 2483.39746094 1663.11425781 2444.953125 c 0
 1679.66503906 2422.31542969 1726.55371094 2352.29492188 1753.015625 2174.91796875 c 0
 1813.52246094 1769.33007812 1722.1796875 1145.79492188 1722.1796875 623.09375 c 0
 1722.1796875 257.85546875 1764.54101562 -89.2978515625 1948.22265625 -340.537109375 c 0
 2072.26269531 -510.198242188 2288.35644531 -671 2648 -671 c 0
 3471.95800781 -671 4028 -47.955078125 4028 1011.40039062 c 0
 4028 1204.1328125 4018.32519531 1959.22753906 3516.50292969 2962.87304688 c 0
 3467.27539062 3061.328125 3365.47851562 3129 3248 3129 c 0
 3082.42578125 3129 2948 2994.57421875 2948 2829 c 0
 2948 2780.90332031 2959.34277344 2735.43554688 2979.49707031 2695.12695312 c 0
 3147.37109375 2359.37988281 3267.75683594 2024.9453125 3341.04492188 1711.43652344 c 0
 3407.77441406 1425.97949219 3481.69433594 952.223632812 3372.11328125 538.282226562 c 0
 3315.37011719 323.93359375 3203.32714844 105.364257812 2984.6953125 -0.8330078125 c 0
 2895.15722656 -44.32421875 2785.60058594 -71 2648 -71 c 0
 2507.62597656 -71 2460.9921875 -25.3974609375 2432.88574219 13.046875 c 0
 2416.33496094 35.6845703125 2369.44628906 105.705078125 2342.984375 283.08203125 c 0
 2264.98925781 805.892578125 2437.40234375 1654.234375 2346.42871094 2264.046875 c 0
 2319.73242188 2442.98925781 2243.82714844 2816.96191406 1914.08691406 3011.85449219 c 0
 1777.76367188 3092.42675781 1618.41699219 3129 1448 3129 c 0
EndSplineSet
Validated: 41
Ligature2: "'liga' Vowel Cluster-Latin" W I
EndChar

StartChar: Eth
Encoding: 208 208 127
Width: 4096
Flags: HW
LayerCount: 2
Fore
SplineSet
2748 -371 m 0
 2748 -536.57421875 2882.42578125 -671 3048 -671 c 0
 3165.47851562 -671 3267.27539062 -603.328125 3316.50292969 -504.873046875 c 0
 3495.89257812 -146.094726562 3860 655.55078125 3860 1446.59960938 c 0
 3860 1851.36621094 3763.96191406 2236.43164062 3519.40917969 2542.12207031 c 0
 3308.26953125 2806.04785156 2950.74707031 3053.27734375 2348 3114.43847656 c 1
 2348 5325 l 2
 2348 5490.57421875 2213.57421875 5625 2048 5625 c 0
 1882.42578125 5625 1748 5490.57421875 1748 5325 c 2
 1748 3114.43847656 l 1
 1462.19433594 3085.4375 932.39453125 2986.87695312 576.590820312 2542.12207031 c 0
 332.038085938 2236.43164062 236 1851.36621094 236 1446.59960938 c 0
 236 1175.43066406 278.466796875 892.47265625 353.763671875 602.578125 c 0
 447.87890625 240.235351562 593.799804688 -133.477539062 779.497070312 -504.873046875 c 0
 828.724609375 -603.328125 930.521484375 -671 1048 -671 c 0
 1213.57421875 -671 1348 -536.57421875 1348 -371 c 0
 1348 -322.903320312 1336.65722656 -277.435546875 1316.50292969 -237.126953125 c 0
 1199.62304688 -3.3662109375 993.62109375 443.826171875 893.64453125 929 c 1
 3202.35546875 929 l 1
 3145.72753906 654.1953125 3026.48339844 256.845703125 2779.49707031 -237.126953125 c 0
 2759.34277344 -277.435546875 2748 -322.903320312 2748 -371 c 0
2048 2529 m 0
 2331.10449219 2529 2630.81347656 2484.66796875 2856.94335938 2340.5078125 c 0
 2996.30566406 2251.6640625 3235.08007812 2049.30371094 3258.20214844 1529 c 1
 837.797851562 1529 l 1
 860.943359375 2049.83300781 1100.21386719 2251.99511719 1239.05664062 2340.5078125 c 0
 1466.80664062 2485.70019531 1768.20800781 2529 2048 2529 c 0
EndSplineSet
Validated: 9
Ligature2: "'liga' Consonant Cluster Latin" D H
EndChar

StartChar: Ograve
Encoding: 210 210 128
Width: 4096
Flags: HW
LayerCount: 2
Fore
SplineSet
2346.42871094 193.953125 m 0
 2437.58789062 805.005859375 2264.8046875 1650.8671875 2342.984375 2174.91796875 c 0
 2356.33691406 2264.42089844 2382.40820312 2375.90917969 2432.88574219 2444.953125 c 0
 2461.00878906 2483.42089844 2507.65625 2529 2648 2529 c 0
 2950.82910156 2529 3138.16992188 2399.328125 3257.22851562 2200.8984375 c 0
 3305.22460938 2120.90527344 3428 1890.78320312 3428 1446.59960938 c 0
 3428 1310.92578125 3425.828125 655.536132812 2979.49707031 -237.126953125 c 0
 2959.34277344 -277.435546875 2948 -322.903320312 2948 -371 c 0
 2948 -536.57421875 3082.42578125 -671 3248 -671 c 0
 3365.47851562 -671 3467.27539062 -603.328125 3516.50292969 -504.873046875 c 0
 3619.11425781 -299.650390625 4028 532.017578125 4028 1446.59960938 c 0
 4028 2505.99804688 3471.921875 3129 2648 3129 c 0
 2521.28320312 3129 2045.08203125 3117.984375 1833.50097656 2588.54101562 c 0
 1746.50488281 2370.84765625 1722.1796875 2111.34667969 1722.1796875 1834.90625 c 0
 1722.1796875 1306.39453125 1813.76074219 690.262695312 1753.015625 283.08203125 c 0
 1739.66308594 193.579101562 1713.59179688 82.0908203125 1663.11425781 13.046875 c 0
 1634.99121094 -25.4208984375 1588.34375 -71 1448 -71 c 0
 1145.17089844 -71 957.830078125 58.671875 838.771484375 257.1015625 c 0
 790.775390625 337.094726562 668 567.216796875 668 1011.40039062 c 0
 668 1147.07421875 670.171875 1802.46386719 1116.50292969 2695.12695312 c 0
 1136.65722656 2735.43554688 1148 2780.90332031 1148 2829 c 0
 1148 2994.57421875 1013.57421875 3129 848 3129 c 0
 730.521484375 3129 628.724609375 3061.328125 579.497070312 2962.87304688 c 0
 476.885742188 2757.65039062 68 1925.98242188 68 1011.40039062 c 0
 68 -47.998046875 624.078125 -671 1448 -671 c 0
 1574.71679688 -671 2050.91796875 -659.984375 2262.49902344 -130.541015625 c 0
 2304.33007812 -25.86328125 2329.84765625 82.8125 2346.42871094 193.953125 c 0
EndSplineSet
Validated: 41
Ligature2: "'liga' Vowel Cluster-Latin" W O
EndChar

StartChar: Oacute
Encoding: 211 211 129
Width: 4096
Flags: W
HStem: -583 601.798<1320.89 1748> -39.5029 568.503<3607.66 3860.09> 2439.2 601.798<1315.84 1748>
VStem: 148 600<627.252 1821.21>
LayerCount: 2
Fore
SplineSet
3948 229 m 0x70
 3948 394.57421875 3813.57421875 529 3648 529 c 0x70
 3599.90332031 529 3554.43554688 517.657226562 3514.12695312 497.502929688 c 0
 3280.36621094 380.623046875 2833.17382812 174.62109375 2348 74.64453125 c 1
 2348 2383.35546875 l 1
 2622.8046875 2326.72753906 3020.15429688 2207.48339844 3514.12695312 1960.49707031 c 0
 3554.43554688 1940.34277344 3599.90332031 1929 3648 1929 c 0
 3813.57421875 1929 3948 2063.42578125 3948 2229 c 0
 3948 2346.47851562 3880.328125 2448.27539062 3781.87304688 2497.50292969 c 0
 3423.09472656 2676.89257812 2621.44921875 3041 1830.40039062 3041 c 0
 1425.63378906 3041 1040.56835938 2944.96191406 734.877929688 2700.40917969 c 0
 423.50390625 2451.31054688 148 2010.21484375 148 1229 c 0
 148 907.455078125 193.48828125 469.431640625 430.184570312 98.1474609375 c 0
 678.149414062 -290.8125 1122.67480469 -583 1830.40039062 -583 c 0xb0
 2101.56933594 -583 2384.52734375 -540.533203125 2674.421875 -465.236328125 c 0
 3036.76464844 -371.12109375 3410.47753906 -225.200195312 3781.87304688 -39.5029296875 c 0
 3880.328125 9.724609375 3948 111.521484375 3948 229 c 0x70
748 1229 m 0
 748 1512.10449219 792.33203125 1811.81347656 936.4921875 2037.94335938 c 0
 1025.3359375 2177.30566406 1227.69628906 2416.08007812 1748 2439.20214844 c 1
 1748 18.7978515625 l 1xb0
 1227.16699219 41.943359375 1025.00488281 281.213867188 936.4921875 420.056640625 c 0
 791.299804688 647.806640625 748 949.208007812 748 1229 c 0
EndSplineSet
Validated: 9
Ligature2: "'liga' Vowel Cluster-Latin" Y O
EndChar

StartChar: Odieresis
Encoding: 214 214 130
Width: 4096
Flags: HW
LayerCount: 2
Fore
SplineSet
1448 1529 m 2
 1282.42578125 1529 1148 1394.57421875 1148 1229 c 0
 1148 1063.42578125 1282.42578125 929 1448 929 c 2
 3329.2421875 929 l 1
 3286.3515625 608.13671875 3172.11621094 374.64453125 2986.72949219 226.3359375 c 0
 2522.13378906 -145.341796875 1580.80761719 -1.9638671875 581.873046875 497.502929688 c 0
 541.564453125 517.657226562 496.096679688 529 448 529 c 0
 282.42578125 529 148 394.57421875 148 229 c 0
 148 111.521484375 215.671875 9.724609375 314.126953125 -39.5029296875 c 0
 672.905273438 -218.892578125 1474.55078125 -583 2265.59960938 -583 c 0
 2670.36621094 -583 3055.43164062 -486.961914062 3361.12207031 -242.409179688 c 0
 3672.49609375 6.689453125 3948 447.78515625 3948 1229 c 0
 3948 1550.54492188 3902.51171875 1988.56835938 3665.81542969 2359.85253906 c 0
 3417.85058594 2748.8125 2973.32519531 3041 2265.59960938 3041 c 0
 1994.43066406 3041 1711.47265625 2998.53320312 1421.578125 2923.23632812 c 0
 1059.23535156 2829.12109375 685.522460938 2683.20019531 314.126953125 2497.50292969 c 0
 215.671875 2448.27539062 148 2346.47851562 148 2229 c 0
 148 2063.42578125 282.42578125 1929 448 1929 c 0
 496.096679688 1929 541.564453125 1940.34277344 581.873046875 1960.49707031 c 0
 921.588867188 2130.35449219 1258.98632812 2260.97753906 1572.63867188 2342.44628906 c 0
 1814.13183594 2405.17089844 2555.33789062 2576.77832031 2986.72949219 2231.6640625 c 0
 3110.40820312 2132.72167969 3274.17773438 1940.9375 3329.2421875 1529 c 1
 1448 1529 l 2
EndSplineSet
Validated: 41
EndChar

StartChar: multiply
Encoding: 215 215 131
Width: 4096
Flags: HW
LayerCount: 2
Fore
SplineSet
3014.5 410 m 1
 2678.5 70 l 1
 2048.5 713 l 1
 1417.5 70 l 1
 1081.5 410 l 1
 1712.5 1049 l 1
 1081.5 1683 l 1
 1417.5 2023 l 1
 2048.5 1384 l 1
 2678.5 2023 l 1
 3014.5 1683 l 1
 2383.5 1049 l 1
 3014.5 410 l 1
EndSplineSet
Validated: 1
EndChar

StartChar: Uacute
Encoding: 218 218 132
Width: 4096
Flags: HW
LayerCount: 2
Fore
SplineSet
1048 -671 m 0
 1213.57421875 -671 1348 -536.57421875 1348 -371 c 0
 1348 -322.903320312 1336.65722656 -277.435546875 1316.50292969 -237.126953125 c 0
 1199.62304688 -3.3662109375 993.62109375 443.826171875 893.64453125 929 c 1
 3202.35546875 929 l 1
 3145.72753906 654.1953125 3026.48339844 256.845703125 2779.49707031 -237.126953125 c 0
 2759.34277344 -277.435546875 2748 -322.903320312 2748 -371 c 0
 2748 -536.57421875 2882.42578125 -671 3048 -671 c 0
 3165.47851562 -671 3267.27539062 -603.328125 3316.50292969 -504.873046875 c 0
 3495.89257812 -146.094726562 3860 655.55078125 3860 1446.59960938 c 0
 3860 1851.36621094 3763.96191406 2236.43164062 3519.40917969 2542.12207031 c 0
 3270.31054688 2853.49609375 2829.21484375 3129 2048 3129 c 0
 1726.45507812 3129 1288.43164062 3083.51171875 917.147460938 2846.81542969 c 0
 528.1875 2598.85058594 236 2154.32519531 236 1446.59960938 c 0
 236 1175.43066406 278.466796875 892.47265625 353.763671875 602.578125 c 0
 447.87890625 240.235351562 593.799804688 -133.477539062 779.497070312 -504.873046875 c 0
 828.724609375 -603.328125 930.521484375 -671 1048 -671 c 0
2048 2529 m 0
 2331.10449219 2529 2630.81347656 2484.66796875 2856.94335938 2340.5078125 c 0
 2996.30566406 2251.6640625 3235.08007812 2049.30371094 3258.20214844 1529 c 1
 837.797851562 1529 l 1
 860.943359375 2049.83300781 1100.21386719 2251.99511719 1239.05664062 2340.5078125 c 0
 1466.80664062 2485.70019531 1768.20800781 2529 2048 2529 c 0
EndSplineSet
Validated: 9
Ligature2: "'liga' Vowel Cluster-Latin" Y U
EndChar

StartChar: Udieresis
Encoding: 220 220 133
Width: 4096
Flags: HW
LayerCount: 2
Fore
SplineSet
1748 629 m 2
 1748 463.42578125 1882.42578125 329 2048 329 c 0
 2213.57421875 329 2348 463.42578125 2348 629 c 2
 2348 2510.2421875 l 1
 2668.86328125 2467.3515625 2902.35546875 2353.11621094 3050.6640625 2167.72949219 c 0
 3422.34179688 1703.13378906 3278.96386719 761.807617188 2779.49707031 -237.126953125 c 0
 2759.34277344 -277.435546875 2748 -322.903320312 2748 -371 c 0
 2748 -536.57421875 2882.42578125 -671 3048 -671 c 0
 3165.47851562 -671 3267.27539062 -603.328125 3316.50292969 -504.873046875 c 0
 3495.89257812 -146.094726562 3860 655.55078125 3860 1446.59960938 c 0
 3860 1851.36621094 3763.96191406 2236.43164062 3519.40917969 2542.12207031 c 0
 3270.31054688 2853.49609375 2829.21484375 3129 2048 3129 c 0
 1726.45507812 3129 1288.43164062 3083.51171875 917.147460938 2846.81542969 c 0
 528.1875 2598.85058594 236 2154.32519531 236 1446.59960938 c 0
 236 1175.43066406 278.466796875 892.47265625 353.763671875 602.578125 c 0
 447.87890625 240.235351562 593.799804688 -133.477539062 779.497070312 -504.873046875 c 0
 828.724609375 -603.328125 930.521484375 -671 1048 -671 c 0
 1213.57421875 -671 1348 -536.57421875 1348 -371 c 0
 1348 -322.903320312 1336.65722656 -277.435546875 1316.50292969 -237.126953125 c 0
 1146.64550781 102.588867188 1016.02246094 439.986328125 934.553710938 753.638671875 c 0
 871.829101562 995.131835938 700.221679688 1736.33789062 1045.3359375 2167.72949219 c 0
 1144.27832031 2291.40820312 1336.0625 2455.17773438 1748 2510.2421875 c 1
 1748 629 l 2
EndSplineSet
Validated: 41
EndChar

StartChar: agrave
Encoding: 224 224 134
Width: 4096
Flags: HW
LayerCount: 2
Fore
SplineSet
548 2729 m 1
 3548 2729 l 1
 3548 929 l 1
 1148 929 l 1
 1148 329 l 1
 3548 329 l 1
 3548 -271 l 1
 548 -271 l 1
 548 1529 l 1
 1148 1529 l 1
 2948 1529 l 1
 2948 2129 l 1
 548 2129 l 1
 548 2729 l 1
EndSplineSet
Validated: 1
Ligature2: "'liga' Vowel Cluster-Latin" w a
EndChar

StartChar: aacute
Encoding: 225 225 135
Width: 4096
Flags: HW
LayerCount: 2
Fore
SplineSet
548 2729 m 1
 1148 2729 l 1
 1148 1529 l 1
 2948 1529 l 1
 2948 2729 l 1
 3548 2729 l 1
 3548 -271 l 1
 548 -271 l 1
 548 2729 l 1
1148 929 m 1
 1148 329 l 1
 2948 329 l 1
 2948 929 l 1
 1148 929 l 1
EndSplineSet
Validated: 1
Ligature2: "'liga' Vowel Cluster-Latin" y a
EndChar

StartChar: aring
Encoding: 229 229 136
Width: 4096
Flags: HW
LayerCount: 2
Fore
SplineSet
3548 -271 m 1
 548 -271 l 1
 548 329 l 1
 2948 329 l 1
 2948 2129 l 1
 548 2129 l 1
 548 2729 l 1
 2948 2729 l 1
 3548 2729 l 1
 3548 -271 l 1
EndSplineSet
Validated: 1
EndChar

StartChar: egrave
Encoding: 232 232 137
Width: 4096
Flags: HW
LayerCount: 2
Fore
SplineSet
548 -271 m 1
 548 329 l 1
 2948 329 l 1
 2948 929 l 1
 1148 929 l 1
 548 929 l 1
 548 2729 l 1
 3548 2729 l 1
 3548 2129 l 1
 1148 2129 l 1
 1148 1529 l 1
 3548 1529 l 1
 3548 -271 l 1
 548 -271 l 1
EndSplineSet
Validated: 1
Ligature2: "'liga' Vowel Cluster-Latin" w e
EndChar

StartChar: eacute
Encoding: 233 233 138
Width: 4096
Flags: HW
LayerCount: 2
Fore
SplineSet
548 -271 m 1
 548 329 l 1
 1748 329 l 1
 1748 2129 l 1
 548 2129 l 1
 548 2729 l 1
 3548 2729 l 1
 3548 -271 l 1
 548 -271 l 1
2348 329 m 1
 2948 329 l 1
 2948 2129 l 1
 2348 2129 l 1
 2348 329 l 1
EndSplineSet
Validated: 1
Ligature2: "'liga' Vowel Cluster-Latin" y e
EndChar

StartChar: igrave
Encoding: 236 236 139
Width: 4096
Flags: HW
LayerCount: 2
Fore
SplineSet
3548 2729 m 1
 3548 -271 l 1
 1748 -271 l 1
 1748 2129 l 1
 1148 2129 l 1
 1148 -271 l 1
 548 -271 l 1
 548 2729 l 1
 2348 2729 l 1
 2348 2129 l 1
 2348 329 l 1
 2948 329 l 1
 2948 2729 l 1
 3548 2729 l 1
EndSplineSet
Validated: 1
Ligature2: "'liga' Vowel Cluster-Latin" w i
EndChar

StartChar: eth
Encoding: 240 240 140
Width: 4096
Flags: HW
LayerCount: 2
Fore
SplineSet
548 -271 m 1
 548 2729 l 1
 1748 2729 l 1
 1748 5325 l 1
 2348 5325 l 1
 2348 2729 l 1
 3548 2729 l 1
 3548 -271 l 1
 2948 -271 l 1
 2948 929 l 1
 1148 929 l 1
 1148 -271 l 1
 548 -271 l 1
1148 1529 m 1
 2948 1529 l 1
 2948 2129 l 1
 1148 2129 l 1
 1148 1529 l 1
EndSplineSet
Validated: 1
Ligature2: "'liga' Consonant Cluster Latin" d h
EndChar

StartChar: ograve
Encoding: 242 242 141
Width: 4096
Flags: HW
LayerCount: 2
Fore
SplineSet
548 2729 m 1
 1148 2729 l 1
 1148 329 l 1
 1748 329 l 1
 1748 2129 l 1
 1748 2729 l 1
 3548 2729 l 1
 3548 -271 l 1
 2948 -271 l 1
 2948 2129 l 1
 2348 2129 l 1
 2348 -271 l 1
 548 -271 l 1
 548 2729 l 1
EndSplineSet
Validated: 1
Ligature2: "'liga' Vowel Cluster-Latin" w o
EndChar

StartChar: oacute
Encoding: 243 243 142
Width: 4096
Flags: HW
LayerCount: 2
Fore
SplineSet
3548 2729 m 1
 3548 2129 l 1
 2348 2129 l 1
 2348 329 l 1
 3548 329 l 1
 3548 -271 l 1
 548 -271 l 1
 548 2729 l 1
 3548 2729 l 1
1748 2129 m 1
 1148 2129 l 1
 1148 329 l 1
 1748 329 l 1
 1748 2129 l 1
EndSplineSet
Validated: 1
Ligature2: "'liga' Vowel Cluster-Latin" y o
EndChar

StartChar: odieresis
Encoding: 246 246 143
Width: 4096
Flags: HW
LayerCount: 2
Fore
SplineSet
3548 -271 m 1
 548 -271 l 1
 548 329 l 1
 2948 329 l 1
 2948 929 l 1
 548 929 l 1
 548 1529 l 1
 2948 1529 l 1
 2948 2129 l 1
 548 2129 l 1
 548 2729 l 1
 2948 2729 l 1
 3548 2729 l 1
 3548 -271 l 1
EndSplineSet
Validated: 1
EndChar

StartChar: divide
Encoding: 247 247 144
Width: 4096
Flags: HW
LayerCount: 2
Fore
SplineSet
2420.5 1901 m 0
 2420.5 1797 2384.33300781 1708.16699219 2312 1634.5 c 128
 2239.66699219 1560.83300781 2151.83300781 1524 2048.5 1524 c 256
 1944.5 1524 1856.33300781 1560.83300781 1784 1634.5 c 128
 1711.66699219 1708.16699219 1675.5 1797 1675.5 1901 c 0
 1675.5 2002.33300781 1711.66699219 2090.33300781 1784 2165 c 128
 1856.33300781 2239.66699219 1944.5 2277 2048.5 2277 c 0
 2149.83300781 2277 2237.16699219 2239.66699219 2310.5 2165 c 128
 2383.83300781 2090.33300781 2420.5 2002.33300781 2420.5 1901 c 0
3084.5 799 m 1
 1011.5 799 l 1
 1011.5 1294 l 1
 3084.5 1294 l 1
 3084.5 799 l 1
2420.5 193 m 0
 2420.5 91.6669921875 2383.66699219 4.1669921875 2310 -69.5 c 128
 2236.33300781 -143.166992188 2149.16699219 -180 2048.5 -180 c 256
 1947.16699219 -180 1859.66699219 -143.166992188 1786 -69.5 c 128
 1712.33300781 4.1669921875 1675.5 91.6669921875 1675.5 193 c 256
 1675.5 294.333007812 1711.66699219 382.333007812 1784 457 c 128
 1856.33300781 531.666992188 1944.5 569 2048.5 569 c 256
 2152.5 569 2240.5 532.333007812 2312.5 459 c 128
 2384.5 385.666992188 2420.5 297 2420.5 193 c 0
EndSplineSet
Validated: 1
EndChar

StartChar: uacute
Encoding: 250 250 145
Width: 4096
Flags: HW
LayerCount: 2
Fore
SplineSet
3548 -271 m 1
 2948 -271 l 1
 2948 929 l 1
 1148 929 l 1
 1148 -271 l 1
 548 -271 l 1
 548 2729 l 1
 3548 2729 l 1
 3548 -271 l 1
2948 1529 m 1
 2948 2129 l 1
 1148 2129 l 1
 1148 1529 l 1
 2948 1529 l 1
EndSplineSet
Validated: 1
Ligature2: "'liga' Vowel Cluster-Latin" y u
EndChar

StartChar: udieresis
Encoding: 252 252 146
Width: 4096
Flags: HW
LayerCount: 2
Fore
SplineSet
3548 2729 m 1
 3548 -271 l 1
 2948 -271 l 1
 2948 2129 l 1
 2348 2129 l 1
 2348 -271 l 1
 1748 -271 l 1
 1748 2129 l 1
 1148 2129 l 1
 1148 -271 l 1
 548 -271 l 1
 548 2129 l 1
 548 2729 l 1
 3548 2729 l 1
EndSplineSet
Validated: 1
EndChar

StartChar: thorn
Encoding: 254 254 147
Width: 4096
Flags: HW
LayerCount: 2
Fore
SplineSet
1748 5325 m 1
 2348 5325 l 1
 2348 1529 l 1
 2948 1529 l 1
 2948 2729 l 1
 3548 2729 l 1
 3548 -271 l 1
 548 -271 l 1
 548 2729 l 1
 1148 2729 l 1
 1148 1529 l 1
 1748 1529 l 1
 1748 5325 l 1
1148 929 m 1
 1148 329 l 1
 2948 329 l 1
 2948 929 l 1
 1148 929 l 1
EndSplineSet
Validated: 1
Ligature2: "'liga' Consonant Cluster Latin" t h
EndChar

StartChar: Thorn
Encoding: 222 222 148
Width: 4096
Flags: HW
LayerCount: 2
Fore
SplineSet
3048 3129 m 0
 2882.42578125 3129 2748 2994.57421875 2748 2829 c 0
 2748 2780.90332031 2759.34277344 2735.43554688 2779.49707031 2695.12695312 c 0
 2896.37695312 2461.36621094 3102.37890625 2014.17382812 3202.35546875 1529 c 1
 2348 1529 l 1
 2348 5325 l 2
 2348 5490.57421875 2213.57421875 5625 2048 5625 c 0
 1882.42578125 5625 1748 5490.57421875 1748 5325 c 2
 1748 1529 l 1
 893.64453125 1529 l 1
 950.272460938 1803.8046875 1069.51660156 2201.15429688 1316.50292969 2695.12695312 c 0
 1336.65722656 2735.43554688 1348 2780.90332031 1348 2829 c 0
 1348 2994.57421875 1213.57421875 3129 1048 3129 c 0
 930.521484375 3129 828.724609375 3061.328125 779.497070312 2962.87304688 c 0
 600.107421875 2604.09472656 236 1802.44921875 236 1011.40039062 c 0
 236 606.633789062 332.038085938 221.568359375 576.590820312 -84.1220703125 c 0
 825.689453125 -395.49609375 1266.78515625 -671 2048 -671 c 0
 2369.54492188 -671 2807.56835938 -625.51171875 3178.85253906 -388.815429688 c 0
 3567.8125 -140.850585938 3860 303.674804688 3860 1011.40039062 c 0
 3860 1282.56933594 3817.53320312 1565.52734375 3742.23632812 1855.421875 c 0
 3648.12109375 2217.76464844 3502.20019531 2591.47753906 3316.50292969 2962.87304688 c 0
 3267.27539062 3061.328125 3165.47851562 3129 3048 3129 c 0
837.797851562 929 m 1
 1644.59960938 929 2451.40039062 929 3258.20214844 929 c 1
 3235.05664062 408.166992188 2995.78613281 206.004882812 2856.94335938 117.4921875 c 0
 2629.19335938 -27.7001953125 2327.79199219 -71 2048 -71 c 0
 1764.89550781 -71 1465.18652344 -26.66796875 1239.05664062 117.4921875 c 0
 1099.69433594 206.3359375 860.919921875 408.696289062 837.797851562 929 c 1
EndSplineSet
Validated: 9
Ligature2: "'liga' Consonant Cluster Latin" T H
EndChar

StartChar: uni0080
Encoding: 128 128 149
Width: 2649
Flags: HW
LayerCount: 2
Fore
SplineSet
524 1331 m 0
 524 1694.33300781 582.666992188 1992 700 2224 c 0
 864 2546 1130.33300781 2707 1499 2707 c 0
 1600.33300781 2707 1728.66699219 2663.33300781 1884 2576 c 0
 2053.33300781 2480.66699219 2138 2388 2138 2298 c 0
 2138 2178 2072.33300781 2118 1941 2118 c 0
 1886.33300781 2118 1818.16699219 2147.33300781 1736.5 2206 c 128
 1654.83300781 2264.66699219 1570 2294 1482 2294 c 0
 1372.66699219 2294 1267.66699219 2244.66699219 1167 2146 c 0
 1041.66699219 2020.66699219 979 1775 979 1409 c 0
 979 1105.66699219 1030.66699219 851.666992188 1134 647 c 0
 1180.66699219 554.333007812 1228.5 490.166992188 1277.5 454.5 c 128
 1326.5 418.833007812 1396.33300781 401 1487 401 c 0
 1653.66699219 401 1783.33300781 435.333007812 1876 504 c 0
 1903.33300781 526 1982.33300781 614.666992188 2113 770 c 1
 2157 800 2196.66699219 815 2232 815 c 0
 2311.33300781 815 2351 752.333007812 2351 627 c 0
 2351 589 2345.33300781 557.333007812 2334 532 c 0
 2284.66699219 414.666992188 2231.66699219 326 2175 266 c 0
 1983.66699219 69.3330078125 1747.33300781 -29 1466 -29 c 0
 1119.33300781 -29 864 135 700 463 c 0
 582.666992188 700.333007812 524 989.666992188 524 1331 c 0
2080 1835 m 1
 1917 1483 l 1
 204 1475 l 1
 200 1835 l 1
 2080 1835 l 1
1925 1298 m 1
 1745 942 l 1
 225 934 l 1
 225 1303 l 1
 1925 1298 l 1
EndSplineSet
Validated: 5
EndChar

StartChar: GH.vace
Encoding: 404 404 150
Width: 4096
Flags: HW
LayerCount: 2
Fore
SplineSet
2348 1829 m 2
 2348 1994.57421875 2213.57421875 2129 2048 2129 c 0
 1882.42578125 2129 1748 1994.57421875 1748 1829 c 2
 1748 -52.2421875 l 1
 1427.13671875 -9.3515625 1193.64453125 104.883789062 1045.3359375 290.270507812 c 0
 673.658203125 754.866210938 817.036132812 1696.19238281 1316.50292969 2695.12695312 c 0
 1336.65722656 2735.43554688 1348 2780.90332031 1348 2829 c 0
 1348 2994.57421875 1213.57421875 3129 1048 3129 c 0
 930.521484375 3129 828.724609375 3061.328125 779.497070312 2962.87304688 c 0
 600.107421875 2604.09472656 236 1802.44921875 236 1011.40039062 c 0
 236 606.633789062 332.038085938 221.568359375 576.590820312 -84.1220703125 c 0
 787.73046875 -348.047851562 1145.25292969 -595.27734375 1748 -656.438476562 c 1
 1748 -2867 l 2
 1748 -3032.57421875 1882.42578125 -3167 2048 -3167 c 0
 2213.57421875 -3167 2348 -3032.57421875 2348 -2867 c 2
 2348 -656.438476562 l 1
 2633.80566406 -627.4375 3163.60546875 -528.876953125 3519.40917969 -84.1220703125 c 0
 3763.96191406 221.568359375 3860 606.633789062 3860 1011.40039062 c 0
 3860 1282.56933594 3817.53320312 1565.52734375 3742.23632812 1855.421875 c 0
 3648.12109375 2217.76464844 3502.20019531 2591.47753906 3316.50292969 2962.87304688 c 0
 3267.27539062 3061.328125 3165.47851562 3129 3048 3129 c 0
 2882.42578125 3129 2748 2994.57421875 2748 2829 c 0
 2748 2780.90332031 2759.34277344 2735.43554688 2779.49707031 2695.12695312 c 0
 2949.35449219 2355.41113281 3079.97753906 2018.01367188 3161.44628906 1704.36132812 c 0
 3224.17089844 1462.86816406 3395.77832031 721.662109375 3050.6640625 290.270507812 c 0
 2951.72167969 166.591796875 2759.9375 2.822265625 2348 -52.2421875 c 1
 2348 1829 l 2
EndSplineSet
Validated: 41
Ligature2: "'liga' Consonant Cluster Latin" G H
EndChar

StartChar: SH.vace
Encoding: 425 425 151
Width: 4096
Flags: HW
LayerCount: 2
Fore
SplineSet
2748 -371 m 0
 2748 -536.57421875 2882.42578125 -671 3048 -671 c 0
 3165.47851562 -671 3267.27539062 -603.328125 3316.50292969 -504.873046875 c 0
 3495.89257812 -146.094726562 3860 655.55078125 3860 1446.59960938 c 0
 3860 1851.36621094 3763.96191406 2236.43164062 3519.40917969 2542.12207031 c 0
 3270.31054688 2853.49609375 2829.21484375 3129 2048 3129 c 0
 1726.45507812 3129 1288.43164062 3083.51171875 917.147460938 2846.81542969 c 0
 528.1875 2598.85058594 236 2154.32519531 236 1446.59960938 c 0
 236 1175.43066406 278.466796875 892.47265625 353.763671875 602.578125 c 0
 447.87890625 240.235351562 593.799804688 -133.477539062 779.497070312 -504.873046875 c 0
 828.724609375 -603.328125 930.521484375 -671 1048 -671 c 0
 1213.57421875 -671 1348 -536.57421875 1348 -371 c 0
 1348 -322.903320312 1336.65722656 -277.435546875 1316.50292969 -237.126953125 c 0
 1199.62304688 -3.3662109375 993.62109375 443.826171875 893.64453125 929 c 1
 1748 929 l 1
 1748 -2867 l 2
 1748 -3032.57421875 1882.42578125 -3167 2048 -3167 c 0
 2213.57421875 -3167 2348 -3032.57421875 2348 -2867 c 2
 2348 929 l 1
 3202.35546875 929 l 1
 3145.72753906 654.1953125 3026.48339844 256.845703125 2779.49707031 -237.126953125 c 0
 2759.34277344 -277.435546875 2748 -322.903320312 2748 -371 c 0
3258.20214844 1529 m 1
 2451.40039062 1529 1644.59960938 1529 837.797851562 1529 c 1
 860.943359375 2049.83300781 1100.21386719 2251.99511719 1239.05664062 2340.5078125 c 0
 1466.80664062 2485.70019531 1768.20800781 2529 2048 2529 c 0
 2331.10449219 2529 2630.81347656 2484.66796875 2856.94335938 2340.5078125 c 0
 2996.30566406 2251.6640625 3235.08007812 2049.30371094 3258.20214844 1529 c 1
EndSplineSet
Validated: 9
Ligature2: "'liga' Consonant Cluster Latin" S H
EndChar

StartChar: JH.vace
Encoding: 439 439 152
Width: 4096
Flags: HW
LayerCount: 2
Fore
SplineSet
3048 3129 m 0
 2882.42578125 3129 2748 2994.57421875 2748 2829 c 0
 2748 2780.90332031 2759.34277344 2735.43554688 2779.49707031 2695.12695312 c 0
 2896.37695312 2461.36621094 3102.37890625 2014.17382812 3202.35546875 1529 c 1
 893.64453125 1529 l 1
 950.272460938 1803.8046875 1069.51660156 2201.15429688 1316.50292969 2695.12695312 c 0
 1336.65722656 2735.43554688 1348 2780.90332031 1348 2829 c 0
 1348 2994.57421875 1213.57421875 3129 1048 3129 c 0
 930.521484375 3129 828.724609375 3061.328125 779.497070312 2962.87304688 c 0
 600.107421875 2604.09472656 236 1802.44921875 236 1011.40039062 c 0
 236 606.633789062 332.038085938 221.568359375 576.590820312 -84.1220703125 c 0
 787.73046875 -348.047851562 1145.25292969 -595.27734375 1748 -656.438476562 c 1
 1748 -2867 l 2
 1748 -3032.57421875 1882.42578125 -3167 2048 -3167 c 0
 2213.57421875 -3167 2348 -3032.57421875 2348 -2867 c 2
 2348 -656.438476562 l 1
 2633.80566406 -627.4375 3163.60546875 -528.876953125 3519.40917969 -84.1220703125 c 0
 3763.96191406 221.568359375 3860 606.633789062 3860 1011.40039062 c 0
 3860 1282.56933594 3817.53320312 1565.52734375 3742.23632812 1855.421875 c 0
 3648.12109375 2217.76464844 3502.20019531 2591.47753906 3316.50292969 2962.87304688 c 0
 3267.27539062 3061.328125 3165.47851562 3129 3048 3129 c 0
2048 -71 m 0
 1764.89550781 -71 1465.18652344 -26.66796875 1239.05664062 117.4921875 c 0
 1099.69433594 206.3359375 860.919921875 408.696289062 837.797851562 929 c 1
 3258.20214844 929 l 1
 3235.05664062 408.166992188 2995.78613281 206.004882812 2856.94335938 117.4921875 c 0
 2629.19335938 -27.7001953125 2327.79199219 -71 2048 -71 c 0
EndSplineSet
Validated: 9
Ligature2: "'liga' Consonant Cluster Latin" J H
EndChar

StartChar: Hcircumflex
Encoding: 292 292 153
Width: 4096
Flags: HW
LayerCount: 2
Fore
SplineSet
2748 -371 m 0
 2748 -536.57421875 2882.42578125 -671 3048 -671 c 0
 3165.47851562 -671 3267.27539062 -603.328125 3316.50292969 -504.873046875 c 0
 3495.89257812 -146.094726562 3860 655.55078125 3860 1446.59960938 c 0
 3860 1851.36621094 3763.96191406 2236.43164062 3519.40917969 2542.12207031 c 0
 3270.31054688 2853.49609375 2829.21484375 3129 2048 3129 c 0
 1726.45507812 3129 1288.43164062 3083.51171875 917.147460938 2846.81542969 c 0
 528.1875 2598.85058594 236 2154.32519531 236 1446.59960938 c 0
 236 1175.43066406 278.466796875 892.47265625 353.763671875 602.578125 c 0
 447.87890625 240.235351562 593.799804688 -133.477539062 779.497070312 -504.873046875 c 0
 828.724609375 -603.328125 930.521484375 -671 1048 -671 c 0
 1213.57421875 -671 1348 -536.57421875 1348 -371 c 0
 1348 -322.903320312 1336.65722656 -277.435546875 1316.50292969 -237.126953125 c 0
 1146.64550781 102.588867188 1016.02246094 439.986328125 934.553710938 753.638671875 c 0
 871.829101562 995.131835938 700.221679688 1736.33789062 1045.3359375 2167.72949219 c 0
 1144.27832031 2291.40820312 1336.0625 2455.17773438 1748 2510.2421875 c 1
 1748 -2867 l 2
 1748 -3032.57421875 1882.42578125 -3167 2048 -3167 c 0
 2213.57421875 -3167 2348 -3032.57421875 2348 -2867 c 2
 2348 2510.2421875 l 1
 2668.86328125 2467.3515625 2902.35546875 2353.11621094 3050.6640625 2167.72949219 c 0
 3422.34179688 1703.13378906 3278.96386719 761.807617188 2779.49707031 -237.126953125 c 0
 2759.34277344 -277.435546875 2748 -322.903320312 2748 -371 c 0
EndSplineSet
Validated: 41
Ligature2: "'liga' Consonant Cluster Latin" K H
EndChar

StartChar: DZ.vace
Encoding: 437 437 154
Width: 4096
Flags: HW
LayerCount: 2
Fore
SplineSet
1093.84863281 -367.234375 m 1
 1445.49902344 -485.771484375 1856.91796875 -583 2265.59960938 -583 c 0
 2670.36621094 -583 3055.43164062 -486.961914062 3361.12207031 -242.409179688 c 0
 3672.49609375 6.689453125 3948 447.78515625 3948 1229 c 0
 3948 1550.54492188 3902.51171875 1988.56835938 3665.81542969 2359.85253906 c 0
 3417.85058594 2748.8125 2973.32519531 3041 2265.59960938 3041 c 0
 1994.43066406 3041 1711.47265625 2998.53320312 1421.578125 2923.23632812 c 0
 1059.23535156 2829.12109375 685.522460938 2683.20019531 314.126953125 2497.50292969 c 0
 215.671875 2448.27539062 148 2346.47851562 148 2229 c 0
 148 2063.42578125 282.42578125 1929 448 1929 c 0
 496.096679688 1929 541.564453125 1940.34277344 581.873046875 1960.49707031 c 0
 921.588867188 2130.35449219 1258.98632812 2260.97753906 1572.63867188 2342.44628906 c 0
 1814.13183594 2405.17089844 2555.33789062 2576.77832031 2986.72949219 2231.6640625 c 0
 3110.40820312 2132.72167969 3274.17773438 1940.9375 3329.2421875 1529 c 1
 1448 1529 l 2
 1282.42578125 1529 1148 1394.57421875 1148 1229 c 0
 1148 1063.42578125 1282.42578125 929 1448 929 c 2
 3329.2421875 929 l 1
 3286.3515625 608.13671875 3172.11621094 374.64453125 2986.72949219 226.3359375 c 0
 2522.13378906 -145.341796875 1580.80761719 -1.9638671875 581.873046875 497.502929688 c 0
 541.564453125 517.657226562 496.096679688 529 448 529 c 0
 282.42578125 529 148 394.57421875 148 229 c 0
 148 179.483398438 160.022460938 132.751953125 181.305664062 91.5693359375 c 2
 1781.30566406 -3004.43066406 l 2
 1831.18945312 -3100.95507812 1931.94238281 -3167 2048 -3167 c 0
 2213.57421875 -3167 2348 -3032.57421875 2348 -2867 c 0
 2348 -2817.48339844 2335.97753906 -2770.75195312 2314.69433594 -2729.56933594 c 2
 1093.84863281 -367.234375 l 1
EndSplineSet
Validated: 41
Ligature2: "'liga' Consonant Cluster Latin" D Z
EndChar

StartChar: Ccaron
Encoding: 268 268 155
Width: 4096
Flags: HW
LayerCount: 2
Fore
SplineSet
3002.15136719 2825.234375 m 1
 2650.50097656 2943.77148438 2239.08203125 3041 1830.40039062 3041 c 0
 1425.63378906 3041 1040.56835938 2944.96191406 734.877929688 2700.40917969 c 0
 423.50390625 2451.31054688 148 2010.21484375 148 1229 c 0
 148 907.455078125 193.48828125 469.431640625 430.184570312 98.1474609375 c 0
 678.149414062 -290.8125 1122.67480469 -583 1830.40039062 -583 c 0
 2101.56933594 -583 2384.52734375 -540.533203125 2674.421875 -465.236328125 c 0
 3036.76464844 -371.12109375 3410.47753906 -225.200195312 3781.87304688 -39.5029296875 c 0
 3880.328125 9.724609375 3948 111.521484375 3948 229 c 0
 3948 394.57421875 3813.57421875 529 3648 529 c 0
 3599.90332031 529 3554.43554688 517.657226562 3514.12695312 497.502929688 c 0
 3174.41113281 327.645507812 2837.01367188 197.022460938 2523.36132812 115.553710938 c 0
 2281.86816406 52.8291015625 1540.66210938 -118.778320312 1109.27050781 226.3359375 c 0
 985.591796875 325.278320312 821.822265625 517.0625 766.7578125 929 c 1
 2648 929 l 2
 2813.57421875 929 2948 1063.42578125 2948 1229 c 0
 2948 1394.57421875 2813.57421875 1529 2648 1529 c 2
 766.7578125 1529 l 1
 809.6484375 1849.86328125 923.883789062 2083.35546875 1109.27050781 2231.6640625 c 0
 1573.86621094 2603.34179688 2515.19238281 2459.96386719 3514.12695312 1960.49707031 c 0
 3554.43554688 1940.34277344 3599.90332031 1929 3648 1929 c 0
 3813.57421875 1929 3948 2063.42578125 3948 2229 c 0
 3948 2278.51660156 3935.97753906 2325.24804688 3914.69433594 2366.43066406 c 2
 2314.69433594 5462.43066406 l 2
 2264.81054688 5558.95507812 2164.05761719 5625 2048 5625 c 0
 1882.42578125 5625 1748 5490.57421875 1748 5325 c 0
 1748 5275.48339844 1760.02246094 5228.75195312 1781.30566406 5187.56933594 c 2
 3002.15136719 2825.234375 l 1
EndSplineSet
Validated: 41
Ligature2: "'liga' Consonant Cluster Latin" C H
EndChar

StartChar: Zcaron
Encoding: 381 381 156
Width: 4096
Flags: W
HStem: 2825.23 21G<1104.18 1328.76>
VStem: 3329.24 618.758<591.735 929 1529 1868.07>
LayerCount: 2
Fore
SplineSet
1448 1529 m 2
 1282.42578125 1529 1148 1394.57421875 1148 1229 c 0
 1148 1063.42578125 1282.42578125 929 1448 929 c 2
 3329.2421875 929 l 1
 3286.3515625 608.13671875 3172.11621094 374.64453125 2986.72949219 226.3359375 c 0
 2522.13378906 -145.341796875 1580.80761719 -1.9638671875 581.873046875 497.502929688 c 0
 541.564453125 517.657226562 496.096679688 529 448 529 c 0
 282.42578125 529 148 394.57421875 148 229 c 0
 148 111.521484375 215.671875 9.724609375 314.126953125 -39.5029296875 c 0
 672.905273438 -218.892578125 1474.55078125 -583 2265.59960938 -583 c 0
 2670.36621094 -583 3055.43164062 -486.961914062 3361.12207031 -242.409179688 c 0
 3672.49609375 6.689453125 3948 447.78515625 3948 1229 c 0
 3948 1550.54492188 3902.51171875 1988.56835938 3665.81542969 2359.85253906 c 0
 3417.85058594 2748.8125 2973.32519531 3041 2265.59960938 3041 c 0
 1952.375 3041 1563.66210938 2983.60253906 1093.84863281 2825.234375 c 1
 2314.69433594 5187.56933594 l 2
 2335.97753906 5228.75195312 2348 5275.48339844 2348 5325 c 0
 2348 5490.57421875 2213.57421875 5625 2048 5625 c 0
 1931.94238281 5625 1831.18945312 5558.95507812 1781.30566406 5462.43066406 c 2
 181.305664062 2366.43066406 l 2
 160.022460938 2325.24804688 148 2278.51660156 148 2229 c 0
 148 2063.42578125 282.42578125 1929 448 1929 c 0
 496.096679688 1929 541.564453125 1940.34277344 581.873046875 1960.49707031 c 0
 921.588867188 2130.35449219 1258.98632812 2260.97753906 1572.63867188 2342.44628906 c 0
 1814.13183594 2405.17089844 2555.33789062 2576.77832031 2986.72949219 2231.6640625 c 0
 3110.40820312 2132.72167969 3274.17773438 1940.9375 3329.2421875 1529 c 1
 1448 1529 l 2
EndSplineSet
Validated: 41
Ligature2: "'liga' Consonant Cluster Latin" Z H
EndChar

StartChar: Rcaron
Encoding: 344 344 157
Width: 4096
Flags: HW
LayerCount: 2
Fore
SplineSet
148 629 m 0
 148 -194.958007812 771.044921875 -751 1830.40039062 -751 c 0
 2110.5625 -751 2499.171875 -711.709960938 2977.52539062 -564.173828125 c 1
 1785.22265625 -2722.24023438 l 2
 1761.50390625 -2765.17285156 1748 -2814.52148438 1748 -2867 c 0
 1748 -3032.57421875 1882.42578125 -3167 2048 -3167 c 0
 2161.09570312 -3167 2259.65917969 -3104.28222656 2310.77734375 -3011.75976562 c 2
 3910.77734375 -115.759765625 l 2
 3934.49609375 -72.8271484375 3948 -23.478515625 3948 29 c 0
 3948 194.57421875 3813.57421875 329 3648 329 c 0
 3599.90332031 329 3554.43554688 317.657226562 3514.12695312 297.502929688 c 0
 3178.37988281 129.62890625 2843.9453125 9.2431640625 2530.43652344 -64.044921875 c 0
 2244.97949219 -130.774414062 1771.22363281 -204.694335938 1357.28222656 -95.11328125 c 0
 1142.93359375 -38.3701171875 924.364257812 73.6728515625 818.166992188 292.3046875 c 0
 774.67578125 381.842773438 748 491.399414062 748 629 c 0
 748 769.374023438 793.602539062 816.0078125 832.046875 844.114257812 c 0
 854.684570312 860.665039062 924.705078125 907.553710938 1102.08203125 934.015625 c 0
 1624.89257812 1012.01074219 2473.234375 839.59765625 3083.046875 930.571289062 c 0
 3261.98925781 957.267578125 3635.96191406 1033.17285156 3830.85449219 1362.91308594 c 0
 3911.42675781 1499.23632812 3948 1658.58300781 3948 1829 c 0
 3948 2652.95800781 3324.95507812 3209 2265.59960938 3209 c 0
 2072.8671875 3209 1317.77246094 3199.32519531 314.126953125 2697.50292969 c 0
 215.671875 2648.27539062 148 2546.47851562 148 2429 c 0
 148 2263.42578125 282.42578125 2129 448 2129 c 0
 496.096679688 2129 541.564453125 2140.34277344 581.873046875 2160.49707031 c 0
 917.620117188 2328.37109375 1252.0546875 2448.75683594 1565.56347656 2522.04492188 c 0
 1851.02050781 2588.77441406 2324.77636719 2662.69433594 2738.71777344 2553.11328125 c 0
 2953.06640625 2496.37011719 3171.63574219 2384.32714844 3277.83300781 2165.6953125 c 0
 3321.32421875 2076.15722656 3348 1966.60058594 3348 1829 c 0
 3348 1688.62597656 3302.39746094 1641.9921875 3263.953125 1613.88574219 c 0
 3241.31542969 1597.33496094 3171.29492188 1550.44628906 2993.91796875 1523.984375 c 0
 2471.453125 1446.04101562 1622.41992188 1618.3515625 1012.953125 1527.42871094 c 0
 834.010742188 1500.73242188 460.038085938 1424.82714844 265.145507812 1095.08691406 c 0
 184.573242188 958.763671875 148 799.416992188 148 629 c 0
EndSplineSet
Validated: 41
Ligature2: "'liga' Consonant Cluster Latin" R H
EndChar

StartChar: HH.vace
Encoding: 542 542 158
Width: 4096
Flags: HW
LayerCount: 2
Fore
SplineSet
1012.953125 930.571289062 m 0
 1624.54296875 839.33203125 2469.33007812 1012.27539062 2993.91796875 934.015625 c 0
 3083.42089844 920.663085938 3194.90917969 894.591796875 3263.953125 844.114257812 c 0
 3302.42089844 815.991210938 3348 769.34375 3348 629 c 0
 3348 326.170898438 3218.328125 138.830078125 3019.8984375 19.771484375 c 0
 2939.90527344 -28.224609375 2709.78320312 -151 2265.59960938 -151 c 0
 2129.92578125 -151 1474.53613281 -148.828125 581.873046875 297.502929688 c 0
 541.564453125 317.657226562 496.096679688 329 448 329 c 0
 282.42578125 329 148 194.57421875 148 29 c 0
 148 -23.478515625 161.50390625 -72.8271484375 185.22265625 -115.759765625 c 2
 1785.22265625 -3011.75976562 l 2
 1836.34082031 -3104.28222656 1934.90429688 -3167 2048 -3167 c 0
 2213.57421875 -3167 2348 -3032.57421875 2348 -2867 c 0
 2348 -2814.52148438 2334.49609375 -2765.17285156 2310.77734375 -2722.24023438 c 2
 1118.47460938 -564.173828125 l 1
 1402.58691406 -651.80078125 1817.33007812 -751 2265.59960938 -751 c 0
 3324.99804688 -751 3948 -194.921875 3948 629 c 0
 3948 755.716796875 3936.984375 1231.91796875 3407.54101562 1443.49902344 c 0
 3189.84765625 1530.49511719 2930.34667969 1554.8203125 2653.90625 1554.8203125 c 0
 2125.39453125 1554.8203125 1509.26269531 1463.23925781 1102.08203125 1523.984375 c 0
 1012.57910156 1537.33691406 901.090820312 1563.40820312 832.046875 1613.88574219 c 0
 793.579101562 1642.00878906 748 1688.65625 748 1829 c 0
 748 2131.82910156 877.671875 2319.16992188 1076.1015625 2438.22851562 c 0
 1156.09472656 2486.22460938 1386.21679688 2609 1830.40039062 2609 c 0
 1966.07421875 2609 2621.46386719 2606.828125 3514.12695312 2160.49707031 c 0
 3554.43554688 2140.34277344 3599.90332031 2129 3648 2129 c 0
 3813.57421875 2129 3948 2263.42578125 3948 2429 c 0
 3948 2546.47851562 3880.328125 2648.27539062 3781.87304688 2697.50292969 c 0
 3576.65039062 2800.11425781 2744.98242188 3209 1830.40039062 3209 c 0
 771.001953125 3209 148 2652.921875 148 1829 c 0
 148 1702.28320312 159.015625 1226.08203125 688.458984375 1014.50097656 c 0
 793.13671875 972.669921875 901.8125 947.15234375 1012.953125 930.571289062 c 0
EndSplineSet
Validated: 41
Ligature2: "'liga' Consonant Cluster Latin" H H
EndChar

StartChar: MM.vace
Encoding: 11374 11374 159
Width: 4096
Flags: HW
LayerCount: 2
Fore
SplineSet
2648 -671 m 0
 3471.95800781 -671 4028 -47.955078125 4028 1011.40039062 c 0
 4028 1204.20410156 4003.09667969 1950.84082031 3517.55273438 2960.77148438 c 0
 2318.54296875 5454.71191406 2318.54296875 5454.71191406 2318.54296875 5454.71191406 c 2
 2270.12792969 5555.41699219 2167.12597656 5625 2048 5625 c 0
 1882.42578125 5625 1748 5490.57421875 1748 5325 c 0
 1748 5278.55078125 1758.57910156 5234.55371094 1777.45703125 5195.28808594 c 0
 2978.4609375 2697.20019531 2978.4609375 2697.20019531 2979.49707031 2695.12695312 c 0
 3147.37109375 2359.37988281 3267.75683594 2024.9453125 3341.04492188 1711.43652344 c 0
 3407.77441406 1425.97949219 3481.69433594 952.223632812 3372.11328125 538.282226562 c 0
 3315.37011719 323.93359375 3203.32714844 105.364257812 2984.6953125 -0.8330078125 c 0
 2895.15722656 -44.32421875 2785.60058594 -71 2648 -71 c 0
 2507.62597656 -71 2460.9921875 -25.3974609375 2432.88574219 13.046875 c 0
 2416.33496094 35.6845703125 2369.44628906 105.705078125 2342.984375 283.08203125 c 0
 2264.98925781 805.892578125 2437.40234375 1654.234375 2346.42871094 2264.046875 c 0
 2319.73242188 2442.98925781 2243.82714844 2816.96191406 1914.08691406 3011.85449219 c 0
 1777.76367188 3092.42675781 1618.41699219 3129 1448 3129 c 0
 624.041992188 3129 68 2505.95507812 68 1446.59960938 c 0
 68 1253.8671875 77.6748046875 498.772460938 579.497070312 -504.873046875 c 0
 628.724609375 -603.328125 730.521484375 -671 848 -671 c 0
 1013.57421875 -671 1148 -536.57421875 1148 -371 c 0
 1148 -322.903320312 1136.65722656 -277.435546875 1116.50292969 -237.126953125 c 0
 948.62890625 98.6201171875 828.243164062 433.0546875 754.955078125 746.563476562 c 0
 688.225585938 1032.02050781 614.305664062 1505.77636719 723.88671875 1919.71777344 c 0
 780.629882812 2134.06640625 892.672851562 2352.63574219 1111.3046875 2458.83300781 c 0
 1200.84277344 2502.32421875 1310.39941406 2529 1448 2529 c 0
 1588.37402344 2529 1635.0078125 2483.39746094 1663.11425781 2444.953125 c 0
 1679.66503906 2422.31542969 1726.55371094 2352.29492188 1753.015625 2174.91796875 c 0
 1831.01074219 1652.10742188 1658.59765625 803.765625 1749.57128906 193.953125 c 0
 1776.26757812 15.0107421875 1852.17285156 -358.961914062 2181.91308594 -553.854492188 c 0
 2318.23632812 -634.426757812 2477.58300781 -671 2648 -671 c 0
EndSplineSet
Validated: 41
Ligature2: "'liga' Consonant Cluster Latin" M M
EndChar

StartChar: NJ.vace
Encoding: 544 544 160
Width: 4096
Flags: HW
LayerCount: 2
Fore
SplineSet
3083.046875 1527.42871094 m 0
 2471.45703125 1618.66796875 1626.66992188 1445.72460938 1102.08203125 1523.984375 c 0
 1012.57910156 1537.33691406 901.090820312 1563.40820312 832.046875 1613.88574219 c 0
 793.579101562 1642.00878906 748 1688.65625 748 1829 c 0
 748 2131.82910156 877.671875 2319.16992188 1076.1015625 2438.22851562 c 0
 1156.09472656 2486.22460938 1386.21679688 2609 1830.40039062 2609 c 0
 1966.07421875 2609 2621.46386719 2606.828125 3514.12695312 2160.49707031 c 0
 3554.43554688 2140.34277344 3599.90332031 2129 3648 2129 c 0
 3813.57421875 2129 3948 2263.42578125 3948 2429 c 0
 3948 2481.47851562 3934.49609375 2530.82714844 3910.77734375 2573.75976562 c 2
 2310.77734375 5469.75976562 l 2
 2259.65917969 5562.28222656 2161.09570312 5625 2048 5625 c 0
 1882.42578125 5625 1748 5490.57421875 1748 5325 c 0
 1748 5272.52148438 1761.50390625 5223.17285156 1785.22265625 5180.24023438 c 2
 2977.52539062 3022.17382812 l 1
 2693.41308594 3109.80078125 2278.66992188 3209 1830.40039062 3209 c 0
 771.001953125 3209 148 2652.921875 148 1829 c 0
 148 1702.28320312 159.015625 1226.08203125 688.458984375 1014.50097656 c 0
 906.15234375 927.504882812 1165.65332031 903.1796875 1442.09375 903.1796875 c 0
 1970.60546875 903.1796875 2586.73730469 994.760742188 2993.91796875 934.015625 c 0
 3083.42089844 920.663085938 3194.90917969 894.591796875 3263.953125 844.114257812 c 0
 3302.42089844 815.991210938 3348 769.34375 3348 629 c 0
 3348 326.170898438 3218.328125 138.830078125 3019.8984375 19.771484375 c 0
 2939.90527344 -28.224609375 2709.78320312 -151 2265.59960938 -151 c 0
 2129.92578125 -151 1474.53613281 -148.828125 581.873046875 297.502929688 c 0
 541.564453125 317.657226562 496.096679688 329 448 329 c 0
 282.42578125 329 148 194.57421875 148 29 c 0
 148 -88.478515625 215.671875 -190.275390625 314.126953125 -239.502929688 c 0
 519.349609375 -342.114257812 1351.01757812 -751 2265.59960938 -751 c 0
 3324.99804688 -751 3948 -194.921875 3948 629 c 0
 3948 755.716796875 3936.984375 1231.91796875 3407.54101562 1443.49902344 c 0
 3302.86328125 1485.33007812 3194.1875 1510.84765625 3083.046875 1527.42871094 c 0
EndSplineSet
Validated: 41
Ligature2: "'liga' Consonant Cluster Latin" N J
EndChar

StartChar: nj.vace
Encoding: 414 414 161
Width: 4096
Flags: HW
LayerCount: 2
Fore
SplineSet
2348 5325 m 1
 3548 2729 l 1
 3548 2129 l 1
 1148 2129 l 1
 1148 1529 l 1
 3548 1529 l 1
 3548 -271 l 1
 548 -271 l 1
 548 329 l 1
 2948 329 l 1
 2948 929 l 1
 548 929 l 1
 548 2729 l 1
 2948 2729 l 1
 1748 5325 l 1
 2348 5325 l 1
EndSplineSet
Validated: 1
Ligature2: "'liga' Consonant Cluster Latin" n j
EndChar

StartChar: mm.vace
Encoding: 625 625 162
Width: 4096
Flags: HW
LayerCount: 2
Fore
SplineSet
2348 5325 m 1
 3548 2729 l 1
 3548 -271 l 1
 1748 -271 l 1
 1748 2129 l 1
 1148 2129 l 1
 1148 -271 l 1
 548 -271 l 1
 548 2729 l 1
 2348 2729 l 1
 2348 329 l 1
 2948 329 l 1
 2948 2729 l 1
 1748 5325 l 1
 2348 5325 l 1
EndSplineSet
Validated: 1
Ligature2: "'liga' Consonant Cluster Latin" m m
EndChar

StartChar: hh.vace
Encoding: 543 543 163
Width: 4096
Flags: HW
LayerCount: 2
Fore
SplineSet
1748 -2867 m 1
 548 -271 l 1
 548 329 l 1
 2948 329 l 1
 2948 929 l 1
 548 929 l 1
 548 2729 l 1
 3548 2729 l 1
 3548 2129 l 1
 1148 2129 l 1
 1148 1529 l 1
 3548 1529 l 1
 3548 -271 l 1
 1148 -271 l 1
 2348 -2867 l 1
 1748 -2867 l 1
EndSplineSet
Validated: 1
Ligature2: "'liga' Consonant Cluster Latin" h h
EndChar

StartChar: Eng
Encoding: 330 330 164
Width: 4096
Flags: HW
LayerCount: 2
Fore
SplineSet
2346.42871094 193.953125 m 0
 2437.58789062 805.005859375 2264.8046875 1650.8671875 2342.984375 2174.91796875 c 0
 2356.33691406 2264.42089844 2382.40820312 2375.90917969 2432.88574219 2444.953125 c 0
 2461.00878906 2483.42089844 2507.65625 2529 2648 2529 c 0
 2950.82910156 2529 3138.16992188 2399.328125 3257.22851562 2200.8984375 c 0
 3305.22460938 2120.90527344 3428 1890.78320312 3428 1446.59960938 c 0
 3428 1310.92578125 3425.828125 655.536132812 2979.49707031 -237.126953125 c 0
 2978.4609375 -239.200195312 2978.4609375 -239.200195312 1777.45703125 -2737.28808594 c 0
 1758.57910156 -2776.55371094 1748 -2820.55078125 1748 -2867 c 0
 1748 -3032.57421875 1882.42578125 -3167 2048 -3167 c 0
 2167.12597656 -3167 2270.12792969 -3097.41699219 2318.54296875 -2996.71191406 c 2
 3517.55273438 -502.771484375 l 1
 3620.12792969 -297.409179688 4028 533.190429688 4028 1446.59960938 c 0
 4028 2505.99804688 3471.921875 3129 2648 3129 c 0
 2521.28320312 3129 2045.08203125 3117.984375 1833.50097656 2588.54101562 c 0
 1746.50488281 2370.84765625 1722.1796875 2111.34667969 1722.1796875 1834.90625 c 0
 1722.1796875 1306.39453125 1813.76074219 690.262695312 1753.015625 283.08203125 c 0
 1739.66308594 193.579101562 1713.59179688 82.0908203125 1663.11425781 13.046875 c 0
 1634.99121094 -25.4208984375 1588.34375 -71 1448 -71 c 0
 1145.17089844 -71 957.830078125 58.671875 838.771484375 257.1015625 c 0
 790.775390625 337.094726562 668 567.216796875 668 1011.40039062 c 0
 668 1147.07421875 670.171875 1802.46386719 1116.50292969 2695.12695312 c 0
 1136.65722656 2735.43554688 1148 2780.90332031 1148 2829 c 0
 1148 2994.57421875 1013.57421875 3129 848 3129 c 0
 730.521484375 3129 628.724609375 3061.328125 579.497070312 2962.87304688 c 0
 476.885742188 2757.65039062 68 1925.98242188 68 1011.40039062 c 0
 68 -47.998046875 624.078125 -671 1448 -671 c 0
 1574.71679688 -671 2050.91796875 -659.984375 2262.49902344 -130.541015625 c 0
 2304.33007812 -25.86328125 2329.84765625 82.8125 2346.42871094 193.953125 c 0
EndSplineSet
Validated: 41
Ligature2: "'liga' Consonant Cluster Latin" N N
EndChar

StartChar: eng
Encoding: 331 331 165
Width: 4096
Flags: HW
LayerCount: 2
Fore
SplineSet
2348 -2867 m 1
 1748 -2867 l 1
 2948 -271 l 1
 2948 2129 l 1
 2348 2129 l 1
 2348 -271 l 1
 548 -271 l 1
 548 2729 l 1
 1148 2729 l 1
 1148 329 l 1
 1748 329 l 1
 1748 2729 l 1
 3548 2729 l 1
 3548 -271 l 1
 2348 -2867 l 1
EndSplineSet
Validated: 1
Ligature2: "'liga' Consonant Cluster Latin" n n
EndChar

StartChar: sh.vace
Encoding: 643 643 166
Width: 4096
Flags: HW
LayerCount: 2
Fore
SplineSet
1748 -2867 m 1
 1748 929 l 1
 1148 929 l 1
 1148 -271 l 1
 548 -271 l 1
 548 2729 l 1
 3548 2729 l 1
 3548 -271 l 1
 2948 -271 l 1
 2948 929 l 1
 2348 929 l 1
 2348 -2867 l 1
 1748 -2867 l 1
1148 1529 m 1
 2948 1529 l 1
 2948 2129 l 1
 1148 2129 l 1
 1148 1529 l 1
EndSplineSet
Validated: 1
Ligature2: "'liga' Consonant Cluster Latin" s h
EndChar

StartChar: jh.vace
Encoding: 658 658 167
Width: 4096
Flags: HW
LayerCount: 2
Fore
SplineSet
548 2729 m 1
 1148 2729 l 1
 1148 1529 l 1
 2948 1529 l 1
 2948 2729 l 1
 3548 2729 l 1
 3548 -271 l 1
 2348 -271 l 1
 2348 -2867 l 1
 1748 -2867 l 1
 1748 -271 l 1
 548 -271 l 1
 548 2729 l 1
1148 929 m 1
 1148 329 l 1
 2948 329 l 1
 2948 929 l 1
 1148 929 l 1
EndSplineSet
Validated: 1
Ligature2: "'liga' Consonant Cluster Latin" j h
EndChar

StartChar: gh.vace
Encoding: 611 611 168
Width: 4096
Flags: HW
LayerCount: 2
Fore
SplineSet
1748 -2867 m 1
 1748 -271 l 1
 548 -271 l 1
 548 2729 l 1
 1148 2729 l 1
 1148 329 l 1
 1748 329 l 1
 1748 2729 l 1
 2348 2729 l 1
 2348 329 l 1
 2948 329 l 1
 2948 2729 l 1
 3548 2729 l 1
 3548 -271 l 1
 2348 -271 l 1
 2348 -2867 l 1
 1748 -2867 l 1
EndSplineSet
Validated: 1
Ligature2: "'liga' Consonant Cluster Latin" g h
EndChar

StartChar: dz.vace
Encoding: 438 438 169
Width: 4096
Flags: HW
LayerCount: 2
Fore
SplineSet
1748 -2867 m 1
 548 -271 l 1
 548 329 l 1
 2948 329 l 1
 2948 929 l 1
 548 929 l 1
 548 1529 l 1
 2948 1529 l 1
 2948 2129 l 1
 548 2129 l 1
 548 2729 l 1
 2948 2729 l 1
 3548 2729 l 1
 3548 -271 l 1
 1148 -271 l 1
 2348 -2867 l 1
 1748 -2867 l 1
EndSplineSet
Validated: 1
Ligature2: "'liga' Consonant Cluster Latin" d z
EndChar

StartChar: zcaron
Encoding: 382 382 170
Width: 4096
Flags: HW
LayerCount: 2
Fore
SplineSet
1748 5325 m 1
 2348 5325 l 1
 1148 2729 l 1
 3548 2729 l 1
 3548 -271 l 1
 2948 -271 l 1
 548 -271 l 1
 548 329 l 1
 2948 329 l 1
 2948 929 l 1
 548 929 l 1
 548 1529 l 1
 2948 1529 l 1
 2948 2129 l 1
 548 2129 l 1
 548 2729 l 1
 1748 5325 l 1
EndSplineSet
Validated: 1
Ligature2: "'liga' Consonant Cluster Latin" z h
EndChar

StartChar: rcaron
Encoding: 345 345 171
Width: 4096
Flags: HW
LayerCount: 2
Fore
SplineSet
2348 -2867 m 1
 1748 -2867 l 1
 2948 -271 l 1
 548 -271 l 1
 548 1529 l 1
 2948 1529 l 1
 2948 2129 l 1
 548 2129 l 1
 548 2729 l 1
 3548 2729 l 1
 3548 929 l 1
 1148 929 l 1
 1148 329 l 1
 3548 329 l 1
 3548 -271 l 1
 2348 -2867 l 1
EndSplineSet
Validated: 1
Ligature2: "'liga' Consonant Cluster Latin" r h
EndChar

StartChar: ccaron
Encoding: 269 269 172
Width: 4096
Flags: HW
LayerCount: 2
Fore
SplineSet
2348 5325 m 1
 3548 2729 l 1
 3548 2129 l 1
 1148 2129 l 1
 1148 1529 l 1
 3548 1529 l 1
 3548 929 l 1
 1148 929 l 1
 1148 329 l 1
 3548 329 l 1
 3548 -271 l 1
 1148 -271 l 1
 548 -271 l 1
 548 2729 l 1
 2948 2729 l 1
 1748 5325 l 1
 2348 5325 l 1
EndSplineSet
Validated: 1
Ligature2: "'liga' Consonant Cluster Latin" c h
EndChar

StartChar: hcircumflex
Encoding: 293 293 173
Width: 4096
Flags: HW
LayerCount: 2
Fore
SplineSet
3548 -271 m 1
 2948 -271 l 1
 2948 2129 l 1
 2348 2129 l 1
 2348 -2867 l 1
 1748 -2867 l 1
 1748 2129 l 1
 1148 2129 l 1
 1148 -271 l 1
 548 -271 l 1
 548 2129 l 1
 548 2729 l 1
 3548 2729 l 1
 3548 -271 l 1
EndSplineSet
Validated: 1
Ligature2: "'liga' Consonant Cluster Latin" k h
EndChar

StartChar: Ntilde
Encoding: 209 209 174
Width: 4096
Flags: HW
LayerCount: 2
Fore
SplineSet
3948 1829 m 0
 3948 2652.95800781 3324.95507812 3209 2265.59960938 3209 c 0
 1985.4375 3209 1596.828125 3169.70996094 1118.47460938 3022.17382812 c 1
 2310.77734375 5180.24023438 l 2
 2334.49609375 5223.17285156 2348 5272.52148438 2348 5325 c 0
 2348 5490.57421875 2213.57421875 5625 2048 5625 c 0
 1934.90429688 5625 1836.34082031 5562.28222656 1785.22265625 5469.75976562 c 2
 185.22265625 2573.75976562 l 2
 161.50390625 2530.82714844 148 2481.47851562 148 2429 c 0
 148 2263.42578125 282.42578125 2129 448 2129 c 0
 496.096679688 2129 541.564453125 2140.34277344 581.873046875 2160.49707031 c 0
 917.620117188 2328.37109375 1252.0546875 2448.75683594 1565.56347656 2522.04492188 c 0
 1851.02050781 2588.77441406 2324.77636719 2662.69433594 2738.71777344 2553.11328125 c 0
 2953.06640625 2496.37011719 3171.63574219 2384.32714844 3277.83300781 2165.6953125 c 0
 3321.32421875 2076.15722656 3348 1966.60058594 3348 1829 c 0
 3348 1688.62597656 3302.39746094 1641.9921875 3263.953125 1613.88574219 c 0
 3241.31542969 1597.33496094 3171.29492188 1550.44628906 2993.91796875 1523.984375 c 0
 2588.33007812 1463.47753906 1964.79492188 1554.8203125 1442.09375 1554.8203125 c 0
 1076.85546875 1554.8203125 729.702148438 1512.45898438 478.462890625 1328.77734375 c 0
 308.801757812 1204.73730469 148 988.643554688 148 629 c 0
 148 -194.958007812 771.044921875 -751 1830.40039062 -751 c 0
 2023.1328125 -751 2778.22753906 -741.325195312 3781.87304688 -239.502929688 c 0
 3880.328125 -190.275390625 3948 -88.478515625 3948 29 c 0
 3948 194.57421875 3813.57421875 329 3648 329 c 0
 3599.90332031 329 3554.43554688 317.657226562 3514.12695312 297.502929688 c 0
 3178.37988281 129.62890625 2843.9453125 9.2431640625 2530.43652344 -64.044921875 c 0
 2244.97949219 -130.774414062 1771.22363281 -204.694335938 1357.28222656 -95.11328125 c 0
 1142.93359375 -38.3701171875 924.364257812 73.6728515625 818.166992188 292.3046875 c 0
 774.67578125 381.842773438 748 491.399414062 748 629 c 0
 748 769.374023438 793.602539062 816.0078125 832.046875 844.114257812 c 0
 854.684570312 860.665039062 924.705078125 907.553710938 1102.08203125 934.015625 c 0
 1624.89257812 1012.01074219 2473.234375 839.59765625 3083.046875 930.571289062 c 0
 3261.98925781 957.267578125 3635.96191406 1033.17285156 3830.85449219 1362.91308594 c 0
 3911.42675781 1499.23632812 3948 1658.58300781 3948 1829 c 0
EndSplineSet
Validated: 41
Ligature2: "'liga' Consonant Cluster Latin" N H
EndChar

StartChar: ntilde
Encoding: 241 241 175
Width: 4096
Flags: HW
LayerCount: 2
Fore
SplineSet
1748 5325 m 1
 2348 5325 l 1
 1148 2729 l 1
 3548 2729 l 1
 3548 929 l 1
 1148 929 l 1
 1148 329 l 1
 3548 329 l 1
 3548 -271 l 1
 548 -271 l 1
 548 1529 l 1
 2948 1529 l 1
 2948 2129 l 1
 548 2129 l 1
 548 2729 l 1
 1748 5325 l 1
EndSplineSet
Validated: 1
Ligature2: "'liga' Consonant Cluster Latin" n h
EndChar

StartChar: Ccedilla
Encoding: 199 199 176
Width: 4096
Flags: H
LayerCount: 2
Fore
SplineSet
2748 -371 m 0
 2748 -536.57421875 2882.42578125 -671 3048 -671 c 0
 3165.47851562 -671 3267.27539062 -603.328125 3316.50292969 -504.873046875 c 0
 3495.89257812 -146.094726562 3860 655.55078125 3860 1446.59960938 c 0
 3860 1851.36621094 3763.96191406 2236.43164062 3519.40917969 2542.12207031 c 0
 3270.31054688 2853.49609375 2829.21484375 3129 2048 3129 c 0
 1726.45507812 3129 1288.43164062 3083.51171875 917.147460938 2846.81542969 c 0
 528.1875 2598.85058594 236 2154.32519531 236 1446.59960938 c 0
 236 1175.43066406 278.466796875 892.47265625 353.763671875 602.578125 c 0
 446.936523438 243.865234375 621.166015625 -112.415039062 773.928710938 -493.711914062 c 0
 1769.39550781 -2978.39550781 1769.39550781 -2978.39550781 1769.39550781 -2978.39550781 c 2
 1813.66015625 -3088.88085938 1921.77929688 -3167 2048 -3167 c 0
 2213.57421875 -3167 2348 -3032.57421875 2348 -2867 c 0
 2348 -2827.64648438 2340.40625 -2790.05175781 2326.60449219 -2755.60449219 c 2
 1326.60449219 -259.604492188 l 2
 1323.5390625 -251.952148438 1320.16699219 -244.454101562 1316.50292969 -237.126953125 c 0
 1146.64550781 102.588867188 1016.02246094 439.986328125 934.553710938 753.638671875 c 0
 871.829101562 995.131835938 700.221679688 1736.33789062 1045.3359375 2167.72949219 c 0
 1115.04003906 2254.86132812 1235.81445312 2368.44824219 1459.93652344 2444.79394531 c 0
 1613.51953125 2497.11132812 1808.00976562 2529 2048 2529 c 0
 2331.10449219 2529 2630.81347656 2484.66796875 2856.94335938 2340.5078125 c 0
 2935.24316406 2290.59179688 2998.14257812 2233.3828125 3050.6640625 2167.72949219 c 0
 3422.34179688 1703.13378906 3278.96386719 761.807617188 2779.49707031 -237.126953125 c 0
 2759.34277344 -277.435546875 2748 -322.903320312 2748 -371 c 0
EndSplineSet
Validated: 524329
Ligature2: "'liga' Consonant Cluster Latin" C S
EndChar

StartChar: SS.vace
Encoding: 7838 7838 177
Width: 4096
Flags: H
LayerCount: 2
Fore
SplineSet
1048 -671 m 0
 1213.57421875 -671 1348 -536.57421875 1348 -371 c 0
 1348 -322.903320312 1336.65722656 -277.435546875 1316.50292969 -237.126953125 c 0
 1146.64550781 102.588867188 1016.02246094 439.986328125 934.553710938 753.638671875 c 0
 871.829101562 995.131835938 700.221679688 1736.33789062 1045.3359375 2167.72949219 c 0
 1115.04003906 2254.86132812 1235.81445312 2368.44824219 1459.93652344 2444.79394531 c 0
 1613.51953125 2497.11132812 1808.00976562 2529 2048 2529 c 0
 2331.10449219 2529 2630.81347656 2484.66796875 2856.94335938 2340.5078125 c 0
 2935.24316406 2290.59179688 2998.14257812 2233.3828125 3050.6640625 2167.72949219 c 0
 3422.34179688 1703.13378906 3278.96386719 761.807617188 2779.49707031 -237.126953125 c 0
 2775.83300781 -244.454101562 2772.4609375 -251.952148438 2769.39550781 -259.604492188 c 2
 1769.39550781 -2755.60449219 l 2
 1755.59375 -2790.05175781 1748 -2827.64648438 1748 -2867 c 0
 1748 -3032.57421875 1882.42578125 -3167 2048 -3167 c 0
 2174.22070312 -3167 2282.33984375 -3088.88085938 2326.60449219 -2978.39550781 c 2
 3322.07128906 -493.711914062 l 1
 3500.52441406 -135.221679688 3860 660.677734375 3860 1446.59960938 c 0
 3860 1851.36621094 3763.96191406 2236.43164062 3519.40917969 2542.12207031 c 0
 3270.31054688 2853.49609375 2829.21484375 3129 2048 3129 c 0
 1726.45507812 3129 1288.43164062 3083.51171875 917.147460938 2846.81542969 c 0
 528.1875 2598.85058594 236 2154.32519531 236 1446.59960938 c 0
 236 1175.43066406 278.466796875 892.47265625 353.763671875 602.578125 c 0
 447.87890625 240.235351562 593.799804688 -133.477539062 779.497070312 -504.873046875 c 0
 828.724609375 -603.328125 930.521484375 -671 1048 -671 c 0
EndSplineSet
Validated: 524329
Ligature2: "'liga' Consonant Cluster Latin" S S
EndChar

StartChar: ccedilla
Encoding: 231 231 178
Width: 4096
Flags: H
LayerCount: 2
Fore
SplineSet
1748 -2867 m 1
 548 -271 l 1
 548 2729 l 1
 3548 2729 l 1
 3548 -271 l 1
 2948 -271 l 1
 2948 2129 l 1
 1148 2129 l 1
 1148 -271 l 1
 2348 -2867 l 1
 1748 -2867 l 1
EndSplineSet
Validated: 1
Ligature2: "'liga' Consonant Cluster Latin" C s
EndChar

StartChar: germandbls
Encoding: 223 223 179
Width: 4096
HStem: -271 21G<548 1148> 2129 600<1148 2948>
VStem: 548 600<-271 2129> 2948 600<-271 2129>
LayerCount: 2
Fore
SplineSet
2348 -2867 m 1
 1748 -2867 l 1
 2948 -271 l 1
 2948 2129 l 1
 1148 2129 l 1
 1148 -271 l 1
 548 -271 l 1
 548 2729 l 1
 3548 2729 l 1
 3548 -271 l 1
 2348 -2867 l 1
EndSplineSet
Validated: 1
Ligature2: "'liga' Consonant Cluster Latin" S s
EndChar
